{"glyphs":{"0":{"ha":714,"x_min":92,"x_max":621,"o":"m 293 63 l 421 63 q 518 98 485 63 q 551 200 551 133 l 551 693 q 518 795 551 760 q 421 831 485 831 l 293 831 q 196 795 229 831 q 163 693 163 760 l 163 200 q 196 98 163 133 q 293 63 229 63 m 426 0 l 288 0 q 144 53 197 0 q 92 197 92 106 l 92 696 q 144 840 92 788 q 288 893 197 893 l 426 893 q 569 840 517 893 q 621 696 621 788 l 621 197 q 569 53 621 106 q 426 0 517 0 z "},"1":{"ha":440,"x_min":50,"x_max":322,"o":"m 50 725 l 50 756 q 67 785 50 774 l 242 883 q 271 893 256 893 l 307 893 q 322 876 322 893 l 322 17 q 307 0 322 0 l 267 0 q 253 17 253 0 l 253 818 l 74 717 q 50 725 50 701 z "},"2":{"ha":664,"x_min":78,"x_max":585,"o":"m 83 15 l 83 138 q 167 297 83 235 l 440 506 q 511 644 511 560 l 511 699 q 379 832 511 832 l 279 832 q 149 699 149 832 l 149 636 q 133 619 149 619 l 93 619 q 78 636 78 619 l 78 700 q 131 842 78 790 q 274 893 183 893 l 386 893 q 528 842 476 893 q 581 700 581 792 l 581 642 q 493 467 581 533 l 217 254 q 158 144 158 210 l 158 64 l 569 64 q 585 49 585 64 l 585 15 q 569 0 585 0 l 100 0 q 83 15 83 0 z "},"3":{"ha":689,"x_min":88,"x_max":597,"o":"m 313 481 l 396 481 q 528 613 528 481 l 528 699 q 396 832 528 832 l 289 832 q 157 699 157 832 l 157 649 q 143 633 157 633 l 103 633 q 88 649 88 633 l 88 700 q 140 842 88 790 q 283 893 193 893 l 401 893 q 544 842 492 893 q 597 700 597 790 l 597 611 q 482 450 597 483 q 597 288 597 418 l 597 193 q 544 51 597 103 q 401 0 492 0 l 283 0 q 140 51 193 0 q 88 193 88 103 l 88 256 q 103 272 88 272 l 143 272 q 157 256 157 272 l 157 194 q 289 61 157 61 l 396 61 q 528 194 528 61 l 528 286 q 396 419 528 419 l 313 419 q 297 435 297 419 l 297 465 q 313 481 297 481 z "},"4":{"ha":722,"x_min":64,"x_max":675,"o":"m 488 244 l 488 838 l 138 244 l 488 244 m 540 0 l 503 0 q 488 17 488 0 l 488 182 l 85 182 q 64 201 64 182 l 64 226 q 74 258 64 239 l 438 872 q 471 893 450 893 l 536 893 q 556 872 556 893 l 556 244 l 660 244 q 675 231 675 244 l 675 197 q 660 182 675 182 l 556 182 l 556 17 q 540 0 556 0 z "},"5":{"ha":669,"x_min":90,"x_max":592,"o":"m 389 503 l 269 503 q 214 492 236 503 q 185 467 192 481 q 151 432 167 432 l 107 432 q 93 447 93 432 l 93 876 q 107 893 93 893 l 558 893 q 575 878 575 893 l 575 843 q 558 828 575 828 l 163 828 l 163 494 q 282 563 188 563 l 399 563 q 540 513 489 563 q 592 371 592 463 l 592 197 q 539 53 592 106 q 396 0 486 0 l 285 0 q 142 53 194 0 q 90 197 90 106 l 90 246 q 104 263 90 263 l 144 263 q 160 246 160 263 l 160 199 q 193 97 160 133 q 290 61 226 61 l 390 61 q 488 97 454 61 q 522 199 522 132 l 522 365 q 389 503 522 503 z "},"6":{"ha":690,"x_min":81,"x_max":601,"o":"m 282 63 l 400 63 q 497 98 464 63 q 531 200 531 133 l 531 333 q 497 434 531 399 q 400 469 464 469 l 151 469 l 151 200 q 185 98 151 133 q 282 63 218 63 m 406 0 l 276 0 q 133 53 186 0 q 81 197 81 106 l 81 696 q 133 840 81 788 q 276 893 186 893 l 540 893 q 556 878 556 893 l 556 844 q 540 831 556 831 l 282 831 q 185 795 218 831 q 151 693 151 760 l 151 532 l 406 532 q 549 479 496 532 q 601 336 601 426 l 601 197 q 549 53 601 106 q 406 0 496 0 z "},"7":{"ha":528,"x_min":22,"x_max":500,"o":"m 169 0 l 131 0 q 121 21 111 0 l 425 829 l 38 829 q 22 843 22 829 l 22 878 q 38 893 22 893 l 485 893 q 500 878 500 893 l 500 843 q 493 811 500 829 l 194 15 q 169 0 189 0 z "},"8":{"ha":721,"x_min":92,"x_max":628,"o":"m 293 63 l 428 63 q 560 196 560 63 l 560 286 q 428 419 560 419 l 293 419 q 163 286 163 419 l 163 196 q 293 63 163 63 m 293 479 l 428 479 q 526 514 492 479 q 560 614 560 549 l 560 697 q 428 831 560 831 l 293 831 q 163 697 163 831 l 163 614 q 293 479 163 479 m 433 0 l 288 0 q 144 51 197 0 q 92 192 92 101 l 92 283 q 193 450 92 410 q 92 615 92 490 l 92 701 q 144 842 92 792 q 288 893 197 893 l 433 893 q 576 842 524 893 q 628 701 628 792 l 628 615 q 528 450 628 488 q 628 283 628 411 l 628 192 q 576 51 628 101 q 433 0 524 0 z "},"9":{"ha":690,"x_min":78,"x_max":599,"o":"m 279 421 l 529 421 l 529 693 q 495 795 529 760 q 397 831 461 831 l 279 831 q 182 795 215 831 q 149 693 149 760 l 149 558 q 182 456 149 492 q 279 421 215 421 m 403 0 l 138 0 q 121 15 121 0 l 121 49 q 138 63 121 63 l 397 63 q 494 98 461 63 q 528 200 528 133 l 528 358 l 274 358 q 131 411 183 358 q 78 556 78 464 l 78 696 q 131 840 78 788 q 274 893 183 893 l 403 893 q 546 840 493 893 q 599 696 599 788 l 599 197 q 546 53 599 106 q 403 0 493 0 z "},"\u0000":{"ha":0,"x_min":0,"x_max":0,"o":""},"\r":{"ha":0,"x_min":0,"x_max":0,"o":""}," ":{"ha":371,"x_min":0,"x_max":0,"o":""},"!":{"ha":329,"x_min":125,"x_max":206,"o":"m 125 740 l 125 876 q 139 893 125 893 l 190 893 q 206 876 206 893 l 206 740 q 199 485 206 632 q 189 314 192 339 q 175 289 186 289 l 154 289 q 139 307 143 289 q 131 483 136 335 q 125 740 125 631 m 201 182 l 201 17 q 188 0 201 0 l 143 0 q 128 17 128 0 l 128 182 q 143 197 128 197 l 188 197 q 201 182 201 197 z "},"\"":{"ha":458,"x_min":88,"x_max":371,"o":"m 126 604 l 119 604 q 103 622 103 604 l 88 876 q 103 893 88 893 l 144 893 q 158 876 161 893 l 143 622 q 126 604 143 604 m 339 604 l 332 604 q 315 622 315 604 l 300 876 q 315 893 297 893 l 356 893 q 371 876 371 893 l 356 622 q 339 604 354 604 z "},"#":{"ha":940,"x_min":76,"x_max":864,"o":"m 849 663 q 864 647 864 663 l 864 617 q 849 601 864 601 l 708 601 l 621 292 l 756 292 q 772 276 772 292 l 772 246 q 756 231 772 231 l 604 231 l 544 18 q 525 0 540 0 l 494 0 q 485 22 479 0 l 543 231 l 279 231 l 219 18 q 200 0 215 0 l 169 0 q 160 22 154 0 l 218 231 l 92 231 q 76 246 76 231 l 76 276 q 92 292 76 292 l 235 292 l 321 601 l 185 601 q 168 617 168 601 l 168 647 q 185 663 168 663 l 338 663 l 397 875 q 418 893 401 893 l 444 893 q 458 871 464 893 l 400 663 l 663 663 l 722 875 q 744 893 728 893 l 769 893 q 783 871 789 893 l 725 663 l 849 663 m 560 292 l 646 601 l 383 601 l 296 292 l 560 292 z "},"$":{"ha":700,"x_min":96,"x_max":604,"o":"m 382 -136 l 350 -136 q 335 -119 335 -136 l 335 0 l 290 0 q 149 53 201 0 q 96 197 96 107 l 96 240 q 111 256 96 256 l 151 256 q 165 240 165 256 l 165 201 q 300 63 165 63 l 400 63 q 535 203 535 63 l 535 285 q 498 388 535 358 q 388 418 461 417 l 300 419 q 149 464 203 422 q 96 611 96 506 l 96 699 q 149 842 96 789 q 290 896 201 896 l 335 896 l 335 1015 q 350 1032 335 1032 l 382 1032 q 397 1015 397 1032 l 397 896 l 410 896 q 549 842 497 896 q 601 699 601 789 l 601 660 q 588 643 601 643 l 547 643 q 532 660 532 643 l 532 693 q 397 832 532 832 l 300 832 q 165 690 165 832 l 165 610 q 201 512 165 540 q 310 482 236 483 l 410 482 q 552 436 500 479 q 604 289 604 393 l 604 197 q 551 53 604 106 q 410 0 499 0 l 397 0 l 397 -119 q 382 -136 397 -136 z "},"%":{"ha":996,"x_min":69,"x_max":926,"o":"m 764 360 l 739 360 q 655 334 678 360 q 632 244 632 308 l 632 167 q 656 78 632 104 q 739 51 679 51 l 764 51 q 847 78 824 51 q 869 167 869 104 l 869 244 q 847 334 869 308 q 764 360 824 360 m 733 411 l 768 411 q 888 371 850 411 q 926 247 926 331 l 926 164 q 768 0 926 0 l 733 0 q 574 164 574 0 l 574 247 q 733 411 574 411 m 258 847 l 233 847 q 151 822 174 847 q 128 733 128 796 l 128 654 q 151 565 128 592 q 233 539 174 539 l 258 539 q 341 565 318 539 q 364 654 364 592 l 364 733 q 341 822 364 796 q 258 847 318 847 m 229 899 l 264 899 q 422 736 422 899 l 422 653 q 264 488 422 488 l 229 488 q 69 653 69 488 l 69 736 q 229 899 69 899 m 319 0 l 293 0 q 285 22 276 0 q 469 448 293 44 q 654 875 644 851 q 676 893 664 893 l 703 893 q 711 872 722 893 l 342 18 q 319 0 333 0 z "},"&":{"ha":829,"x_min":99,"x_max":749,"o":"m 300 63 l 406 63 q 531 160 514 63 l 283 443 q 168 307 168 436 l 168 196 q 300 63 168 63 m 406 0 l 294 0 q 151 51 204 0 q 99 193 99 103 l 99 311 q 135 432 99 381 q 246 486 171 483 q 182 650 182 564 l 182 700 q 235 842 182 790 q 379 893 289 893 l 413 893 q 556 842 503 893 q 608 700 608 790 l 608 636 q 593 619 608 619 l 553 619 q 538 636 538 619 l 538 699 q 410 832 538 832 l 383 832 q 286 798 319 832 q 253 699 253 764 l 253 650 q 266 576 253 607 q 313 508 279 546 l 400 408 l 732 408 q 749 393 749 408 l 749 360 q 732 344 749 344 l 453 344 l 740 13 q 736 0 749 0 l 683 0 q 660 11 669 0 l 578 104 q 406 0 539 0 z "},"'":{"ha":258,"x_min":93,"x_max":164,"o":"m 133 615 l 125 615 q 108 632 108 615 l 93 868 q 108 883 93 883 l 149 883 q 164 868 167 883 l 150 631 q 133 615 144 615 z "},"(":{"ha":393,"x_min":78,"x_max":300,"o":"m 300 881 l 300 850 q 285 836 300 836 l 281 836 q 178 797 214 836 q 142 683 142 757 l 142 68 q 178 -45 142 -6 q 281 -85 214 -85 l 285 -85 q 300 -99 300 -85 l 300 -129 q 285 -142 300 -142 l 281 -142 q 133 -85 188 -142 q 78 72 78 -29 l 78 679 q 133 837 78 781 q 281 893 188 893 l 286 893 q 300 881 300 893 z "},")":{"ha":393,"x_min":78,"x_max":300,"o":"m 78 -129 l 78 -99 q 94 -85 78 -85 l 99 -85 q 201 -45 165 -85 q 238 68 238 -6 l 238 683 q 201 797 238 757 q 99 836 165 836 l 94 836 q 78 850 78 836 l 78 881 q 94 893 78 893 l 99 893 q 245 837 190 893 q 300 679 300 781 l 300 72 q 245 -85 300 -29 q 99 -142 190 -142 l 94 -142 q 78 -129 78 -142 z "},"*":{"ha":564,"x_min":94,"x_max":469,"o":"m 251 857 l 251 878 q 267 893 251 893 l 297 893 q 313 878 313 893 l 313 857 q 282 701 313 763 q 442 785 361 765 q 460 775 456 790 l 469 746 q 458 726 475 732 l 438 721 q 282 701 347 692 q 397 594 358 647 l 411 576 q 407 556 418 565 l 382 539 q 361 542 369 529 l 349 560 q 282 701 293 635 q 215 560 246 600 l 203 540 q 182 538 194 529 l 157 556 q 154 578 144 563 q 282 701 224 669 q 104 728 175 701 q 94 746 90 732 l 106 775 q 124 783 108 789 q 282 701 228 756 q 251 857 251 793 z "},"+":{"ha":726,"x_min":97,"x_max":629,"o":"m 396 476 l 613 476 q 629 461 629 476 l 629 431 q 613 415 629 415 l 396 415 l 396 196 q 379 179 396 179 l 347 179 q 331 196 331 179 l 331 415 l 114 415 q 97 431 97 415 l 97 461 q 114 476 97 476 l 331 476 l 331 696 q 347 713 331 713 l 379 713 q 396 696 396 713 l 396 476 z "},",":{"ha":265,"x_min":93,"x_max":171,"o":"m 171 182 l 171 74 q 156 -6 171 47 l 115 -132 q 103 -142 114 -142 q 93 -129 93 -142 l 93 182 q 108 197 93 197 l 157 197 q 171 182 171 197 z "},"-":{"ha":433,"x_min":56,"x_max":378,"o":"m 361 414 l 72 414 q 56 429 56 414 l 56 460 q 72 475 56 475 l 361 475 q 378 460 378 475 l 378 429 q 361 414 378 414 z "},".":{"ha":265,"x_min":93,"x_max":171,"o":"m 171 182 l 171 17 q 157 0 171 0 l 108 0 q 93 17 93 0 l 93 182 q 108 197 93 197 l 157 197 q 171 182 171 197 z "},"/":{"ha":550,"x_min":86,"x_max":464,"o":"m 138 0 l 100 0 q 86 17 79 0 q 238 440 93 33 q 393 875 382 847 q 415 893 399 893 l 453 893 q 464 872 471 893 l 160 18 q 138 0 153 0 z "},":":{"ha":265,"x_min":93,"x_max":171,"o":"m 171 693 l 171 526 q 157 511 171 511 l 108 511 q 93 526 93 511 l 93 693 q 108 708 93 708 l 157 708 q 171 693 171 708 m 171 182 l 171 17 q 157 0 171 0 l 108 0 q 93 17 93 0 l 93 182 q 108 197 93 197 l 157 197 q 171 182 171 197 z "},";":{"ha":265,"x_min":93,"x_max":171,"o":"m 171 182 l 171 74 q 156 -6 171 47 l 115 -132 q 103 -142 114 -142 q 93 -129 93 -142 l 93 182 q 108 197 93 197 l 157 197 q 171 182 171 197 m 171 693 l 171 526 q 157 511 171 511 l 108 511 q 93 526 93 511 l 93 693 q 108 708 93 708 l 157 708 q 171 693 171 708 z "},"<":{"ha":713,"x_min":90,"x_max":622,"o":"m 622 667 l 622 633 q 610 614 622 617 l 151 447 l 610 282 q 622 263 622 279 l 622 228 q 603 217 622 211 l 108 406 q 90 429 90 411 l 90 467 q 108 490 90 483 l 603 678 q 622 667 622 686 z "},"=":{"ha":738,"x_min":103,"x_max":635,"o":"m 119 600 l 618 600 q 635 585 635 600 l 635 556 q 618 540 635 540 l 119 540 q 103 556 103 540 l 103 585 q 119 600 103 600 m 119 351 l 618 351 q 635 336 635 351 l 635 307 q 618 292 635 292 l 119 292 q 103 307 103 292 l 103 336 q 119 351 103 351 z "},">":{"ha":738,"x_min":103,"x_max":635,"o":"m 103 633 l 103 667 q 122 678 103 686 l 618 490 q 635 467 635 483 l 635 429 q 618 406 635 411 l 122 217 q 103 228 103 211 l 103 263 q 117 282 103 278 l 574 447 l 117 614 q 103 633 103 617 z "},"?":{"ha":657,"x_min":99,"x_max":558,"o":"m 376 182 l 376 17 q 363 0 376 0 l 313 0 q 299 17 299 0 l 299 182 q 313 197 299 197 l 363 197 q 376 182 376 197 m 372 356 l 372 306 q 358 289 372 289 l 319 289 q 304 306 304 289 l 304 351 q 320 440 304 408 q 385 513 336 471 l 435 556 q 489 658 489 601 l 489 697 q 357 831 489 831 l 300 831 q 169 697 169 831 l 169 639 q 154 622 169 622 l 114 622 q 99 639 99 622 l 99 699 q 151 840 99 789 q 294 892 204 892 l 363 892 q 506 840 453 892 q 558 699 558 789 l 558 656 q 492 526 558 581 l 428 472 q 381 419 390 442 q 372 356 372 397 z "},"@":{"ha":1046,"x_min":115,"x_max":933,"o":"m 715 -81 l 463 -81 q 219 13 322 -81 q 115 268 115 107 l 115 488 q 217 742 115 647 q 458 838 319 838 l 728 838 q 877 782 821 838 q 933 635 933 726 l 933 303 q 882 167 933 218 q 747 115 831 115 l 706 115 q 670 128 685 115 q 656 163 656 142 l 656 190 l 650 190 q 501 118 613 118 q 366 170 417 118 q 315 313 315 222 l 315 442 q 367 586 315 533 q 506 639 418 639 l 703 639 q 718 622 718 639 l 718 181 q 733 168 718 168 l 746 168 q 844 204 810 168 q 879 307 879 240 l 879 632 q 838 745 879 704 q 726 786 797 786 l 458 786 q 254 703 339 786 q 169 486 169 621 l 169 271 q 255 53 169 136 q 461 -29 340 -29 l 715 -29 q 731 -43 731 -29 l 731 -65 q 715 -81 731 -81 m 656 313 l 656 568 q 642 581 656 581 l 511 581 q 414 545 447 581 q 381 443 381 510 l 381 313 q 414 210 381 246 q 511 175 447 175 l 513 175 q 617 211 579 175 q 656 313 656 247 z "},"A":{"ha":740,"x_min":42,"x_max":699,"o":"m 94 0 l 51 0 q 42 17 36 0 l 318 876 q 338 893 322 893 l 403 893 q 422 876 417 893 l 699 17 q 689 0 703 0 l 644 0 q 626 17 631 0 l 551 239 l 188 239 l 113 17 q 94 0 107 0 m 367 817 l 207 301 l 533 301 l 372 817 l 367 817 z "},"B":{"ha":758,"x_min":118,"x_max":661,"o":"m 201 61 l 460 61 q 592 194 592 61 l 592 290 q 447 422 592 422 l 201 422 q 188 411 188 422 l 188 74 q 201 61 188 61 m 201 483 l 446 483 q 547 518 511 483 q 582 617 582 553 l 582 699 q 450 832 582 832 l 201 832 q 188 819 188 832 l 188 496 q 201 483 188 483 m 118 17 l 118 876 q 132 893 118 893 l 456 893 q 599 842 546 893 q 651 700 651 790 l 651 615 q 532 453 651 489 q 622 406 583 450 q 661 290 661 361 l 661 193 q 608 51 661 103 q 465 0 556 0 l 132 0 q 118 17 118 0 z "},"C":{"ha":753,"x_min":104,"x_max":668,"o":"m 474 0 l 299 0 q 156 53 208 0 q 104 197 104 106 l 104 696 q 156 840 104 788 q 299 893 208 893 l 474 893 q 616 840 564 893 q 668 696 668 788 l 668 628 q 653 611 668 611 l 614 611 q 599 628 599 611 l 599 693 q 565 795 599 760 q 467 831 531 831 l 304 831 q 207 794 240 831 q 174 693 174 758 l 174 200 q 207 99 174 135 q 304 63 240 63 l 467 63 q 565 98 531 63 q 599 200 599 133 l 599 265 q 614 282 599 282 l 653 282 q 668 265 668 282 l 668 197 q 616 53 668 106 q 474 0 564 0 z "},"D":{"ha":774,"x_min":118,"x_max":669,"o":"m 201 63 l 468 63 q 566 98 532 63 q 600 200 600 133 l 600 693 q 566 795 600 760 q 468 831 532 831 l 201 831 q 188 818 188 831 l 188 75 q 201 63 188 63 m 118 17 l 118 876 q 132 893 118 893 l 475 893 q 617 840 565 893 q 669 696 669 788 l 669 197 q 617 53 669 106 q 475 0 565 0 l 132 0 q 118 17 118 0 z "},"E":{"ha":668,"x_min":118,"x_max":578,"o":"m 561 0 l 132 0 q 118 17 118 0 l 118 876 q 132 893 118 893 l 561 893 q 578 878 578 893 l 578 846 q 561 831 578 831 l 201 831 q 188 818 188 831 l 188 499 q 201 486 188 486 l 522 486 q 538 471 538 486 l 538 439 q 522 424 538 424 l 201 424 q 188 411 188 424 l 188 75 q 201 63 188 63 l 561 63 q 578 47 578 63 l 578 15 q 561 0 578 0 z "},"F":{"ha":638,"x_min":118,"x_max":576,"o":"m 172 0 l 132 0 q 118 17 118 0 l 118 876 q 132 893 118 893 l 560 893 q 576 878 576 893 l 576 846 q 560 831 576 831 l 201 831 q 188 818 188 831 l 188 481 q 201 469 188 469 l 522 469 q 538 454 538 469 l 538 421 q 522 406 538 406 l 201 406 q 188 394 188 406 l 188 17 q 172 0 188 0 z "},"G":{"ha":749,"x_min":104,"x_max":646,"o":"m 450 0 l 299 0 q 156 53 208 0 q 104 197 104 106 l 104 696 q 156 840 104 788 q 299 893 208 893 l 450 893 q 593 840 540 893 q 646 696 646 788 l 646 633 q 631 617 646 617 l 590 617 q 575 633 575 617 l 575 693 q 542 795 575 760 q 444 831 508 831 l 304 831 q 207 794 240 831 q 174 693 174 758 l 174 200 q 207 99 174 135 q 304 63 240 63 l 444 63 q 542 98 508 63 q 575 200 575 133 l 575 383 q 563 396 575 396 l 403 396 q 388 411 388 396 l 388 443 q 403 458 388 458 l 619 458 q 646 431 646 458 l 646 197 q 593 53 646 106 q 450 0 540 0 z "},"H":{"ha":792,"x_min":118,"x_max":674,"o":"m 172 0 l 132 0 q 118 17 118 0 l 118 876 q 132 893 118 893 l 172 893 q 188 876 188 893 l 188 497 q 201 485 188 485 l 590 485 q 604 497 604 485 l 604 876 q 618 893 604 893 l 658 893 q 674 876 674 893 l 674 17 q 658 0 674 0 l 618 0 q 604 17 604 0 l 604 410 q 590 422 604 422 l 201 422 q 188 410 188 422 l 188 17 q 172 0 188 0 z "},"I":{"ha":319,"x_min":125,"x_max":194,"o":"m 194 876 l 194 17 q 179 0 194 0 l 139 0 q 125 17 125 0 l 125 876 q 139 893 125 893 l 179 893 q 194 876 194 893 z "},"J":{"ha":693,"x_min":53,"x_max":582,"o":"m 528 893 l 567 893 q 582 878 582 893 l 582 197 q 530 53 582 106 q 388 0 478 0 l 249 0 q 106 53 158 0 q 53 197 53 106 l 53 313 q 68 328 53 328 l 108 328 q 124 313 124 328 l 124 200 q 157 98 124 133 q 254 63 190 63 l 381 63 q 478 98 444 63 q 513 200 513 133 l 513 876 q 528 893 513 893 z "},"K":{"ha":736,"x_min":118,"x_max":697,"o":"m 172 0 l 132 0 q 118 17 118 0 l 118 876 q 132 893 118 893 l 172 893 q 188 876 188 893 l 188 364 l 193 364 q 218 410 201 386 l 571 876 q 600 893 583 893 l 649 893 q 654 876 667 893 l 375 503 l 697 17 q 689 0 708 0 l 650 0 q 619 17 629 0 l 331 450 l 188 278 l 188 17 q 172 0 188 0 z "},"L":{"ha":626,"x_min":118,"x_max":590,"o":"m 574 0 l 132 0 q 118 17 118 0 l 118 876 q 132 893 118 893 l 172 893 q 188 876 188 893 l 188 78 q 201 65 188 65 l 574 65 q 590 50 590 65 l 590 15 q 574 0 590 0 z "},"M":{"ha":967,"x_min":118,"x_max":849,"o":"m 760 893 l 835 893 q 849 876 849 893 l 849 17 q 835 0 849 0 l 794 0 q 779 17 779 0 l 779 786 l 774 786 l 528 210 q 507 194 519 194 l 461 194 q 442 210 447 194 l 192 788 l 186 788 l 186 17 q 172 0 186 0 l 132 0 q 118 17 118 0 l 118 876 q 132 893 118 893 l 207 893 q 219 885 217 893 l 481 275 l 486 275 l 747 885 q 760 893 750 893 z "},"N":{"ha":804,"x_min":118,"x_max":688,"o":"m 172 0 l 132 0 q 118 17 118 0 l 118 876 q 132 893 118 893 l 169 893 q 186 885 182 893 l 613 151 l 618 151 l 618 876 q 633 893 618 893 l 672 893 q 688 876 688 893 l 688 17 q 672 0 688 0 l 640 0 q 618 15 628 0 l 193 743 l 188 743 l 188 17 q 172 0 188 0 z "},"O":{"ha":768,"x_min":104,"x_max":664,"o":"m 304 63 l 463 63 q 560 98 526 63 q 594 200 594 133 l 594 693 q 560 795 594 760 q 463 831 526 831 l 304 831 q 207 794 240 831 q 174 693 174 758 l 174 200 q 207 99 174 135 q 304 63 240 63 m 469 0 l 299 0 q 156 53 208 0 q 104 197 104 106 l 104 696 q 156 840 104 788 q 299 893 208 893 l 469 893 q 612 840 560 893 q 664 696 664 788 l 664 197 q 612 53 664 106 q 469 0 560 0 z "},"P":{"ha":728,"x_min":118,"x_max":647,"o":"m 172 0 l 132 0 q 118 17 118 0 l 118 876 q 132 893 118 893 l 451 893 q 594 840 542 893 q 647 696 647 788 l 647 533 q 594 389 647 442 q 451 336 542 336 l 201 336 q 188 325 188 336 l 188 17 q 172 0 188 0 m 201 400 l 446 400 q 543 435 510 400 q 576 536 576 471 l 576 693 q 543 795 576 760 q 446 831 510 831 l 201 831 q 188 818 188 831 l 188 411 q 201 400 188 400 z "},"Q":{"ha":772,"x_min":106,"x_max":667,"o":"m 307 63 l 465 63 q 563 98 529 63 q 597 200 597 133 l 597 693 q 563 795 597 760 q 465 831 529 831 l 307 831 q 210 795 243 831 q 176 693 176 760 l 176 200 q 210 98 176 133 q 307 63 243 63 m 578 -185 l 539 -185 q 511 -168 521 -185 l 408 0 l 301 0 q 158 53 211 0 q 106 197 106 106 l 106 696 q 158 840 106 788 q 301 893 211 893 l 471 893 q 614 840 561 893 q 667 696 667 788 l 667 197 q 617 57 667 110 q 483 1 568 4 l 588 -167 q 578 -185 597 -185 z "},"R":{"ha":742,"x_min":118,"x_max":663,"o":"m 172 0 l 132 0 q 118 17 118 0 l 118 876 q 132 893 118 893 l 449 893 q 592 840 539 893 q 644 696 644 788 l 644 564 q 605 436 644 486 q 497 372 565 386 l 497 367 l 663 17 q 653 0 671 0 l 610 0 q 585 17 592 0 l 421 367 l 201 367 q 188 354 188 367 l 188 17 q 172 0 188 0 m 201 426 l 442 426 q 540 462 506 426 q 575 563 575 497 l 575 693 q 540 794 575 758 q 442 831 506 831 l 201 831 q 188 818 188 831 l 188 439 q 201 426 188 426 z "},"S":{"ha":781,"x_min":113,"x_max":668,"o":"m 113 197 l 113 247 q 128 263 113 263 l 168 263 q 183 247 183 263 l 183 201 q 318 63 183 63 l 463 63 q 597 203 597 63 l 597 261 q 547 357 597 322 q 426 407 497 392 q 284 439 356 422 q 163 500 213 456 q 113 619 113 544 l 113 696 q 165 840 113 788 q 308 893 218 893 l 469 893 q 613 840 560 893 q 665 696 665 788 l 665 657 q 650 642 665 642 l 610 642 q 594 657 594 642 l 594 692 q 460 831 594 831 l 317 831 q 183 689 183 831 l 183 619 q 354 490 183 524 q 497 458 425 476 q 618 393 568 440 q 668 265 668 346 l 668 197 q 615 53 668 106 q 472 0 563 0 l 308 0 q 165 53 218 0 q 113 197 113 106 z "},"T":{"ha":583,"x_min":25,"x_max":558,"o":"m 313 0 l 272 0 q 257 17 257 0 l 257 818 q 243 831 257 831 l 42 831 q 25 846 25 831 l 25 878 q 42 893 25 893 l 542 893 q 558 878 558 893 l 558 846 q 542 831 558 831 l 340 831 q 326 818 326 831 l 326 17 q 313 0 326 0 z "},"U":{"ha":767,"x_min":111,"x_max":656,"o":"m 601 893 l 640 893 q 656 878 656 893 l 656 197 q 603 53 656 106 q 461 0 551 0 l 306 0 q 163 53 215 0 q 111 197 111 106 l 111 876 q 125 893 111 893 l 165 893 q 181 876 181 893 l 181 200 q 214 99 181 135 q 311 63 247 63 l 454 63 q 552 98 518 63 q 586 200 586 133 l 586 876 q 601 893 586 893 z "},"V":{"ha":694,"x_min":39,"x_max":656,"o":"m 379 0 l 315 0 q 297 17 301 0 l 39 876 q 51 893 33 893 l 94 893 q 113 876 108 893 l 344 86 l 350 86 l 582 876 q 600 893 586 893 l 643 893 q 656 876 660 893 l 397 17 q 379 0 393 0 z "},"W":{"ha":1103,"x_min":44,"x_max":1058,"o":"m 324 0 l 254 0 q 235 17 239 0 l 44 876 q 58 893 40 893 l 104 893 q 122 876 119 893 l 288 79 l 294 79 l 506 878 q 524 893 508 893 l 576 893 q 596 878 593 893 l 808 79 l 815 79 l 979 876 q 999 893 982 893 l 1046 893 q 1058 876 1063 893 l 868 17 q 850 0 865 0 l 779 0 q 760 17 764 0 l 554 800 l 549 800 l 342 17 q 324 0 338 0 z "},"X":{"ha":700,"x_min":49,"x_max":651,"o":"m 104 0 l 57 0 q 49 17 42 0 l 303 471 l 63 876 q 62 888 58 883 q 72 893 65 893 l 115 893 q 140 876 133 893 l 349 519 l 354 519 l 560 876 q 583 893 569 893 l 629 893 q 639 876 647 893 l 399 472 l 651 17 q 643 0 661 0 l 596 0 q 575 14 583 0 l 353 417 l 347 417 l 125 14 q 104 0 117 0 z "},"Y":{"ha":685,"x_min":38,"x_max":647,"o":"m 363 0 l 322 0 q 307 17 307 0 l 307 338 l 38 876 q 47 893 29 893 l 97 893 q 117 876 110 893 l 339 422 l 346 422 l 567 876 q 586 893 574 893 l 638 893 q 647 876 653 893 l 376 338 l 376 17 q 363 0 376 0 z "},"Z":{"ha":669,"x_min":58,"x_max":611,"o":"m 58 15 l 58 51 q 64 75 58 68 l 518 822 l 518 828 l 90 828 q 74 843 74 828 l 74 878 q 90 893 74 893 l 581 893 q 597 878 597 893 l 597 832 q 590 808 597 819 l 140 71 l 140 65 l 594 65 q 611 51 611 65 l 611 15 q 594 0 611 0 l 74 0 q 58 15 58 0 z "},"[":{"ha":399,"x_min":89,"x_max":303,"o":"m 288 -140 l 103 -140 q 89 -124 89 -140 l 89 876 q 103 893 89 893 l 288 893 q 303 878 303 893 l 303 853 q 288 838 303 838 l 164 838 q 151 825 151 838 l 151 -72 q 164 -85 151 -85 l 288 -85 q 303 -100 303 -85 l 303 -125 q 288 -140 303 -140 z "},"\\":{"ha":550,"x_min":88,"x_max":464,"o":"m 97 893 l 136 893 q 158 872 150 893 q 464 19 181 824 q 450 0 472 0 l 414 0 q 392 18 399 0 l 88 872 q 97 893 78 893 z "},"]":{"ha":399,"x_min":83,"x_max":299,"o":"m 83 -125 l 83 -100 q 100 -85 83 -85 l 222 -85 q 236 -72 236 -85 l 236 825 q 222 838 236 838 l 100 838 q 83 853 83 838 l 83 878 q 100 893 83 893 l 283 893 q 299 876 299 893 l 299 -124 q 283 -140 299 -140 l 100 -140 q 83 -125 83 -140 z "},"^":{"ha":646,"x_min":79,"x_max":567,"o":"m 126 506 l 93 506 q 80 511 83 506 q 82 525 76 517 l 264 872 q 297 893 275 893 l 349 893 q 382 872 372 893 l 564 525 q 566 511 569 517 q 553 506 563 506 l 519 506 q 496 522 504 506 l 322 850 l 150 522 q 126 506 139 506 z "},"_":{"ha":517,"x_min":0,"x_max":517,"o":"m 500 -137 l 17 -137 q 0 -122 0 -137 l 0 -101 q 17 -87 0 -87 l 500 -87 q 517 -101 517 -87 l 517 -122 q 500 -137 517 -137 z "},"`":{"ha":374,"x_min":93,"x_max":278,"o":"m 271 797 l 243 797 q 221 810 229 797 l 96 961 q 93 972 90 967 q 103 976 96 976 l 165 976 q 190 961 183 976 l 278 814 q 271 797 286 797 z "},"a":{"ha":697,"x_min":90,"x_max":593,"o":"m 374 0 l 285 0 q 142 53 194 0 q 90 197 90 106 l 90 511 q 142 656 90 603 q 285 708 194 708 l 579 708 q 593 692 593 708 l 593 17 q 579 0 593 0 l 539 0 q 524 17 524 0 l 524 72 l 518 72 q 374 0 482 0 m 524 199 l 524 633 q 510 646 524 646 l 290 646 q 193 610 226 646 q 160 508 160 574 l 160 200 q 193 99 160 135 q 290 63 226 63 l 381 63 q 485 98 447 63 q 524 199 524 133 z "},"b":{"ha":700,"x_min":104,"x_max":610,"o":"m 188 63 l 408 63 q 506 98 472 63 q 540 200 540 133 l 540 521 q 506 622 540 586 q 408 657 472 657 l 317 657 q 212 622 250 657 q 174 521 174 586 l 174 75 q 188 63 174 63 m 104 17 l 104 960 q 118 976 104 976 l 158 976 q 174 960 174 976 l 174 647 l 179 647 q 324 719 218 719 l 415 719 q 558 667 506 719 q 610 524 610 614 l 610 197 q 558 53 610 106 q 415 0 506 0 l 118 0 q 104 17 104 0 z "},"c":{"ha":547,"x_min":90,"x_max":500,"o":"m 500 47 l 500 15 q 485 0 500 0 l 285 0 q 142 53 194 0 q 90 197 90 106 l 90 511 q 142 656 90 603 q 285 708 194 708 l 485 708 q 500 693 500 708 l 500 660 q 485 646 500 646 l 290 646 q 193 610 226 646 q 160 508 160 574 l 160 200 q 193 99 160 135 q 290 63 226 63 l 485 63 q 500 47 500 63 z "},"d":{"ha":700,"x_min":90,"x_max":596,"o":"m 375 0 l 282 0 q 142 53 193 0 q 90 197 90 106 l 90 511 q 142 656 90 603 q 282 708 193 708 l 375 708 q 521 636 482 708 l 526 636 l 526 960 q 540 976 526 976 l 581 976 q 596 960 596 976 l 596 17 q 581 0 596 0 l 540 0 q 526 17 526 0 l 526 72 l 521 72 q 375 0 482 0 m 526 199 l 526 510 q 488 610 526 575 q 383 646 450 646 l 290 646 q 193 610 226 646 q 160 508 160 574 l 160 200 q 193 99 160 135 q 290 63 226 63 l 383 63 q 488 98 450 63 q 526 199 526 133 z "},"e":{"ha":683,"x_min":90,"x_max":600,"o":"m 575 0 l 285 0 q 142 53 194 0 q 90 197 90 106 l 90 511 q 142 656 90 603 q 285 708 194 708 l 404 708 q 547 656 494 708 q 600 511 600 603 l 600 335 q 583 318 600 318 l 172 318 q 160 306 160 318 l 160 199 q 193 98 160 133 q 290 63 226 63 l 575 63 q 590 47 590 63 l 590 15 q 575 0 590 0 m 172 374 l 518 374 q 531 386 531 374 l 531 510 q 497 610 531 575 q 400 646 464 646 l 290 646 q 193 610 226 646 q 160 510 160 575 l 160 386 q 172 374 160 374 z "},"f":{"ha":421,"x_min":50,"x_max":393,"o":"m 250 708 l 376 708 q 393 693 393 708 l 393 661 q 376 646 393 646 l 250 646 q 238 633 238 646 l 238 17 q 222 0 238 0 l 182 0 q 167 17 167 0 l 167 633 q 154 646 167 646 l 65 646 q 50 661 50 646 l 50 693 q 65 708 50 708 l 154 708 q 167 721 167 708 l 167 782 q 343 976 167 976 l 376 976 q 393 961 393 976 l 393 929 q 376 914 393 914 l 350 914 q 263 881 288 914 q 238 779 238 847 l 238 721 q 250 708 238 708 z "},"g":{"ha":703,"x_min":96,"x_max":600,"o":"m 379 40 l 289 40 q 148 93 200 40 q 96 236 96 146 l 96 511 q 148 656 96 603 q 290 708 200 708 l 585 708 q 600 692 600 708 l 600 3 q 547 -142 600 -89 q 404 -194 494 -194 l 151 -194 q 136 -179 136 -194 l 136 -146 q 151 -132 136 -132 l 399 -132 q 496 -97 463 -132 q 529 6 529 -61 l 529 113 l 524 113 q 379 40 489 40 m 529 239 l 529 633 q 517 646 529 646 l 297 646 q 199 610 233 646 q 165 508 165 575 l 165 239 q 199 138 165 174 q 297 103 233 103 l 386 103 q 491 138 453 103 q 529 239 529 174 z "},"h":{"ha":704,"x_min":104,"x_max":607,"o":"m 158 0 l 118 0 q 104 17 104 0 l 104 960 q 118 976 104 976 l 158 976 q 174 960 174 976 l 174 636 l 179 636 q 324 708 218 708 l 415 708 q 556 656 504 708 q 607 511 607 603 l 607 17 q 593 0 607 0 l 553 0 q 538 17 538 0 l 538 508 q 504 610 538 574 q 407 646 471 646 l 317 646 q 212 610 250 646 q 174 510 174 575 l 174 17 q 158 0 174 0 z "},"i":{"ha":292,"x_min":111,"x_max":181,"o":"m 111 825 l 111 958 q 125 974 111 974 l 167 974 q 181 958 181 974 l 181 825 q 167 808 181 808 l 125 808 q 111 825 111 808 m 111 17 l 111 692 q 125 708 111 708 l 165 708 q 181 692 181 708 l 181 17 q 167 0 181 0 l 125 0 q 111 17 111 0 z "},"j":{"ha":292,"x_min":-72,"x_max":181,"o":"m 111 825 l 111 958 q 125 974 111 974 l 167 974 q 181 958 181 974 l 181 825 q 167 808 181 808 l 125 808 q 111 825 111 808 m -15 -194 l -56 -194 q -72 -179 -72 -194 l -72 -146 q -56 -132 -72 -132 l -26 -132 q 111 11 111 -132 l 111 692 q 125 708 111 708 l 165 708 q 181 692 181 708 l 181 3 q 128 -142 181 -89 q -15 -194 75 -194 z "},"k":{"ha":599,"x_min":104,"x_max":582,"o":"m 503 708 l 546 708 q 557 703 554 708 q 554 692 560 699 l 342 369 l 342 364 l 579 17 q 582 5 585 10 q 571 0 579 0 l 528 0 q 496 17 507 0 l 267 354 q 267 376 261 365 l 475 694 q 503 708 483 708 m 158 0 l 118 0 q 104 17 104 0 l 104 960 q 118 976 104 976 l 158 976 q 174 960 174 976 l 174 17 q 158 0 174 0 z "},"l":{"ha":292,"x_min":111,"x_max":181,"o":"m 165 0 l 125 0 q 111 17 111 0 l 111 960 q 125 976 111 976 l 165 976 q 181 960 181 976 l 181 17 q 165 0 181 0 z "},"m":{"ha":1068,"x_min":104,"x_max":971,"o":"m 158 0 l 118 0 q 104 17 104 0 l 104 692 q 118 708 104 708 l 158 708 q 174 692 174 708 l 174 636 l 179 636 q 326 708 219 708 l 383 708 q 553 611 506 708 q 624 684 574 660 q 726 708 674 708 l 778 708 q 919 656 868 708 q 971 511 971 603 l 971 17 q 956 0 971 0 l 915 0 q 900 17 900 0 l 900 508 q 867 610 900 575 q 769 646 833 646 l 718 646 q 613 608 651 646 q 574 504 574 569 l 574 17 q 558 0 574 0 l 518 0 q 503 17 503 0 l 503 508 q 469 610 503 575 q 372 646 436 646 l 317 646 q 212 610 250 646 q 174 510 174 575 l 174 17 q 158 0 174 0 z "},"n":{"ha":704,"x_min":104,"x_max":607,"o":"m 158 0 l 118 0 q 104 17 104 0 l 104 692 q 118 708 104 708 l 158 708 q 174 692 174 708 l 174 636 l 179 636 q 324 708 218 708 l 415 708 q 556 656 504 708 q 607 511 607 603 l 607 17 q 593 0 607 0 l 553 0 q 538 17 538 0 l 538 508 q 504 610 538 574 q 407 646 471 646 l 317 646 q 212 610 250 646 q 174 510 174 575 l 174 17 q 158 0 174 0 z "},"o":{"ha":689,"x_min":90,"x_max":600,"o":"m 404 0 l 285 0 q 142 53 194 0 q 90 197 90 106 l 90 511 q 142 656 90 603 q 285 708 194 708 l 404 708 q 547 656 494 708 q 600 511 600 603 l 600 197 q 547 53 600 106 q 404 0 494 0 m 290 63 l 399 63 q 497 98 463 63 q 531 199 531 133 l 531 510 q 497 610 531 575 q 399 646 463 646 l 290 646 q 193 610 226 646 q 160 510 160 575 l 160 199 q 193 98 160 133 q 290 63 226 63 z "},"p":{"ha":700,"x_min":104,"x_max":610,"o":"m 158 -207 l 118 -207 q 104 -192 104 -207 l 104 692 q 118 708 104 708 l 158 708 q 174 692 174 708 l 174 636 l 179 636 q 324 708 218 708 l 418 708 q 558 656 507 708 q 610 511 610 603 l 610 197 q 558 53 610 106 q 418 0 507 0 l 324 0 q 179 72 218 0 l 174 72 l 174 -192 q 158 -207 174 -207 m 317 63 l 408 63 q 506 98 472 63 q 540 200 540 133 l 540 508 q 506 610 540 575 q 408 646 472 646 l 317 646 q 212 610 250 646 q 174 510 174 575 l 174 199 q 212 98 174 133 q 317 63 250 63 z "},"q":{"ha":697,"x_min":90,"x_max":593,"o":"m 524 206 l 524 633 q 510 646 524 646 l 290 646 q 193 610 226 646 q 160 508 160 574 l 160 200 q 193 99 160 135 q 290 63 226 63 l 378 63 q 485 101 446 63 q 524 206 524 140 m 368 0 l 285 0 q 142 53 194 0 q 90 197 90 106 l 90 511 q 142 656 90 603 q 285 708 194 708 l 579 708 q 593 692 593 708 l 593 -192 q 579 -207 593 -207 l 539 -207 q 524 -192 524 -207 l 524 75 l 518 75 q 472 24 500 42 q 422 3 443 6 q 368 0 400 0 z "},"r":{"ha":435,"x_min":104,"x_max":399,"o":"m 158 0 l 118 0 q 104 17 104 0 l 104 692 q 118 708 104 708 l 158 708 q 174 692 174 708 l 174 633 l 179 633 q 233 685 194 663 q 329 708 272 708 l 383 708 q 399 693 399 708 l 399 660 q 383 646 399 644 l 318 646 q 212 604 250 646 q 174 492 174 563 l 174 17 q 158 0 174 0 z "},"s":{"ha":599,"x_min":69,"x_max":524,"o":"m 333 0 l 92 0 q 76 15 76 0 l 76 47 q 92 61 76 61 l 326 61 q 451 158 451 61 l 451 192 q 374 310 451 282 l 200 376 q 99 442 129 404 q 69 546 69 479 q 249 708 69 708 l 474 708 q 489 693 489 708 l 489 661 q 474 647 489 647 l 256 647 q 170 622 199 647 q 142 564 142 597 l 142 532 q 163 471 142 493 q 229 433 185 449 l 403 364 q 499 294 475 340 q 524 164 524 247 q 477 40 524 81 q 333 0 431 0 z "},"t":{"ha":482,"x_min":35,"x_max":425,"o":"m 135 646 l 50 646 q 35 660 35 646 l 35 693 q 50 708 35 708 l 135 708 q 147 721 147 708 l 147 833 q 163 850 147 850 l 203 850 q 218 833 218 850 l 218 721 q 231 708 218 708 l 396 708 q 411 693 411 708 l 411 660 q 396 646 411 646 l 231 646 q 218 633 218 646 l 218 196 q 254 97 218 132 q 356 63 290 63 l 410 63 q 425 47 425 63 l 425 15 q 410 0 425 0 l 350 0 q 203 51 258 0 q 147 193 147 103 l 147 633 q 135 646 147 646 z "},"u":{"ha":704,"x_min":97,"x_max":600,"o":"m 381 0 l 289 0 q 149 53 200 0 q 97 197 97 106 l 97 692 q 111 708 97 708 l 151 708 q 167 692 167 708 l 167 200 q 200 99 167 135 q 297 63 233 63 l 388 63 q 492 98 454 63 q 531 199 531 133 l 531 692 q 546 708 531 708 l 586 708 q 600 692 600 708 l 600 17 q 586 0 600 0 l 546 0 q 531 17 531 0 l 531 72 l 525 72 q 381 0 489 0 z "},"v":{"ha":578,"x_min":28,"x_max":549,"o":"m 39 708 l 82 708 q 100 692 96 708 l 286 78 l 292 78 l 476 692 q 494 708 482 708 l 539 708 q 549 692 554 708 l 339 17 q 319 0 335 0 l 258 0 q 238 17 243 0 l 28 692 q 39 708 24 708 z "},"w":{"ha":949,"x_min":29,"x_max":918,"o":"m 297 0 l 242 0 q 224 17 228 0 l 29 692 q 40 708 25 708 l 85 708 q 103 692 100 708 l 267 88 l 274 88 l 435 692 q 454 708 438 708 l 494 708 q 514 692 511 708 l 672 88 l 679 88 l 844 692 q 863 708 849 708 l 907 708 q 918 692 924 708 l 725 17 q 706 0 721 0 l 650 0 q 631 17 635 0 l 476 603 l 469 603 l 317 17 q 297 0 313 0 z "},"x":{"ha":574,"x_min":38,"x_max":538,"o":"m 96 0 l 44 0 q 38 17 26 0 l 239 361 l 47 692 q 54 708 36 708 l 104 708 q 128 692 119 708 l 285 408 l 290 408 l 440 692 q 464 708 450 708 l 514 708 q 521 692 532 708 l 333 364 l 538 17 q 531 0 547 0 l 475 0 q 456 17 464 0 l 290 314 l 285 314 l 119 17 q 96 0 110 0 z "},"y":{"ha":638,"x_min":40,"x_max":599,"o":"m 138 -211 l 86 -211 q 71 -196 71 -211 l 71 -162 q 86 -147 71 -147 l 124 -147 q 194 -135 165 -147 q 246 -92 224 -124 q 275 -42 268 -60 q 307 38 294 1 l 281 38 q 261 54 265 38 l 40 692 q 51 708 35 708 l 94 708 q 113 692 108 708 l 317 96 l 322 96 l 526 692 q 544 708 531 708 l 586 708 q 599 692 603 708 q 340 -61 350 -36 q 301 -129 329 -86 q 138 -211 249 -211 z "},"z":{"ha":563,"x_min":47,"x_max":515,"o":"m 47 15 l 47 35 q 56 61 47 50 l 419 640 l 419 646 l 72 646 q 57 661 57 646 l 57 693 q 72 708 57 708 l 489 708 q 506 693 506 708 l 506 663 q 499 639 506 650 l 140 68 l 140 63 l 499 63 q 515 47 515 63 l 515 15 q 499 0 515 0 l 64 0 q 47 15 47 0 z "},"{":{"ha":414,"x_min":50,"x_max":332,"o":"m 310 893 l 317 893 q 332 878 332 893 l 332 851 q 317 836 332 836 l 311 836 q 235 802 257 836 q 214 700 214 768 l 214 508 q 139 375 214 400 q 214 242 214 353 l 214 51 q 235 -51 214 -17 q 311 -85 257 -85 l 317 -85 q 332 -100 332 -85 l 332 -126 q 317 -142 332 -142 l 310 -142 q 192 -90 232 -142 q 153 56 153 -39 l 153 238 q 131 319 153 294 q 67 343 110 343 q 50 358 50 343 l 50 392 q 67 407 50 407 q 131 431 110 407 q 153 513 153 456 l 153 696 q 192 842 153 790 q 310 893 232 893 z "},"|":{"ha":288,"x_min":114,"x_max":172,"o":"m 172 876 l 172 17 q 157 0 172 0 l 129 0 q 114 17 114 0 l 114 876 q 129 893 114 893 l 157 893 q 172 876 172 893 z "},"}":{"ha":414,"x_min":50,"x_max":332,"o":"m 231 696 l 231 513 q 252 431 231 456 q 317 407 274 407 q 332 392 332 407 l 332 358 q 317 343 332 343 q 252 319 274 343 q 231 238 231 294 l 231 56 q 191 -90 231 -39 q 74 -142 151 -142 l 67 -142 q 50 -126 50 -142 l 50 -100 q 67 -85 50 -85 l 72 -85 q 147 -51 125 -85 q 168 51 168 -17 l 168 242 q 243 375 168 351 q 168 508 168 401 l 168 700 q 147 802 168 768 q 72 836 125 836 l 67 836 q 50 851 50 836 l 50 878 q 67 893 50 893 l 74 893 q 191 842 151 893 q 231 696 231 790 z "},"~":{"ha":726,"x_min":97,"x_max":629,"o":"m 503 400 q 477 400 503 400 q 360 420 451 400 q 233 440 268 440 q 154 425 197 440 q 110 410 111 410 q 97 425 97 410 l 97 451 q 124 479 97 468 q 225 500 175 500 q 365 479 275 500 q 493 458 456 458 q 572 474 531 458 q 617 489 614 489 q 629 474 629 489 l 629 447 q 604 421 629 432 q 503 400 556 400 z "}," ":{"ha":371,"x_min":0,"x_max":0,"o":""},"¡":{"ha":329,"x_min":125,"x_max":206,"o":"m 188 696 l 143 696 q 128 711 128 696 l 128 876 q 143 893 128 893 l 188 893 q 201 876 201 893 l 201 711 q 188 696 201 696 m 154 604 l 175 604 q 189 579 186 604 q 199 408 192 554 q 206 153 206 261 l 206 17 q 190 0 206 0 l 139 0 q 125 17 125 0 l 125 153 q 131 410 125 263 q 139 586 136 558 q 154 604 143 604 z "},"¢":{"ha":575,"x_min":90,"x_max":525,"o":"m 376 -125 l 343 -125 q 328 -110 328 -125 l 328 0 l 282 0 q 142 53 193 0 q 90 197 90 107 l 90 511 q 142 655 90 601 q 282 708 193 708 l 328 708 l 328 835 q 343 851 328 851 l 376 851 q 392 835 392 851 l 392 708 l 504 708 q 525 693 525 708 l 525 660 q 510 646 525 646 l 290 646 q 193 610 226 646 q 160 508 160 574 l 160 200 q 193 99 160 135 q 290 63 226 63 l 510 63 q 525 49 525 63 l 525 15 q 510 0 525 0 l 392 0 l 392 -110 q 376 -125 392 -125 z "},"£":{"ha":733,"x_min":50,"x_max":638,"o":"m 176 61 l 622 61 q 638 46 638 61 l 638 15 q 622 0 638 0 l 67 0 q 50 15 50 0 l 50 46 q 67 61 50 61 l 82 61 q 131 90 110 61 q 151 158 151 118 l 151 379 l 67 379 q 50 394 50 379 l 50 426 q 67 440 50 440 l 151 440 l 151 700 q 204 842 151 790 q 347 893 257 893 l 438 893 q 580 842 528 893 q 632 700 632 792 l 632 661 q 617 644 632 644 l 578 644 q 563 661 563 644 l 563 699 q 431 832 563 832 l 353 832 q 221 699 221 832 l 221 440 l 446 440 q 463 426 463 440 l 463 394 q 446 379 463 379 l 221 379 l 221 165 q 194 75 221 97 q 176 67 185 67 l 176 61 z "},"¥":{"ha":693,"x_min":42,"x_max":650,"o":"m 365 0 l 326 0 q 311 17 311 0 l 311 236 l 67 236 q 50 253 50 236 l 50 276 q 67 292 50 292 l 310 292 l 310 340 l 263 433 l 67 433 q 50 450 50 433 l 50 474 q 67 489 50 489 l 236 489 l 42 876 q 50 893 35 893 l 103 893 q 121 876 114 893 l 343 418 l 349 418 l 571 876 q 589 893 578 893 l 642 893 q 650 876 660 893 l 457 489 l 625 489 q 642 474 642 489 l 642 450 q 625 433 642 433 l 429 433 l 382 340 l 382 292 l 625 292 q 642 276 642 292 l 642 253 q 625 236 642 236 l 381 236 l 381 17 q 365 0 381 0 z "},"¦":{"ha":279,"x_min":108,"x_max":169,"o":"m 169 876 l 169 536 q 156 521 169 521 l 124 521 q 108 536 108 521 l 108 876 q 124 893 108 893 l 156 893 q 169 876 169 893 m 169 357 l 169 17 q 156 0 169 0 l 124 0 q 108 17 108 0 l 108 357 q 124 372 108 372 l 156 372 q 169 357 169 372 z "},"§":{"ha":631,"x_min":83,"x_max":547,"o":"m 479 421 q 455 492 479 468 q 379 525 431 515 l 244 550 q 150 593 185 563 l 150 482 q 250 369 150 389 l 383 346 q 479 307 446 335 l 479 421 m 356 0 l 108 0 q 93 15 93 0 l 93 49 q 108 63 93 63 l 351 63 q 451 95 425 63 q 476 181 476 128 q 451 256 476 233 q 371 288 425 278 l 224 314 q 83 479 83 343 l 83 719 q 264 893 83 893 l 488 893 q 504 878 504 893 l 504 844 q 488 831 504 831 l 265 831 q 182 801 211 831 q 153 721 153 772 q 175 644 153 669 q 257 608 197 619 l 404 582 q 547 422 547 554 l 547 186 q 356 0 547 0 z "},"¨":{"ha":479,"x_min":92,"x_max":386,"o":"m 92 814 l 92 961 q 107 976 92 976 l 146 976 q 160 961 160 976 l 160 814 q 146 797 160 797 l 107 797 q 92 814 92 797 m 319 814 l 319 961 q 333 976 319 976 l 372 976 q 386 961 386 976 l 386 814 q 372 797 386 797 l 333 797 q 319 814 319 797 z "},"©":{"ha":1004,"x_min":100,"x_max":903,"o":"m 686 558 l 686 531 q 674 517 686 517 l 643 517 q 629 531 629 517 l 629 553 q 603 642 629 618 q 511 665 578 665 l 486 665 q 394 642 419 665 q 368 553 368 618 l 368 332 q 394 244 368 268 q 486 219 421 219 l 511 219 q 603 243 578 219 q 629 332 629 267 l 629 363 q 643 376 629 376 l 674 376 q 686 363 686 376 l 686 326 q 518 169 686 169 l 481 169 q 313 326 313 169 l 313 558 q 481 717 313 717 l 518 717 q 686 558 686 717 m 292 53 l 713 53 q 813 89 778 53 q 847 192 847 125 l 847 701 q 813 804 847 768 q 713 840 778 840 l 292 840 q 192 804 226 840 q 157 701 157 768 l 157 192 q 192 89 157 125 q 292 53 226 53 m 285 893 l 719 893 q 853 843 804 893 q 903 708 903 793 l 903 185 q 853 50 903 100 q 719 0 804 0 l 285 0 q 150 50 200 0 q 100 185 100 100 l 100 708 q 150 843 100 793 q 285 893 200 893 z "},"«":{"ha":599,"x_min":90,"x_max":508,"o":"m 508 167 l 508 133 q 503 120 508 124 q 490 125 499 117 l 301 310 q 286 342 286 325 l 286 368 q 301 400 286 385 l 490 585 q 503 590 499 593 q 508 576 508 586 l 508 543 q 497 519 508 529 l 331 354 l 497 190 q 508 167 508 179 m 314 167 l 314 133 q 308 120 314 124 q 294 125 303 117 l 106 310 q 90 342 90 325 l 90 368 q 106 400 90 385 l 294 585 q 308 590 303 593 q 314 576 314 586 l 314 543 q 301 519 314 531 l 135 354 l 301 190 q 314 167 314 178 z "},"®":{"ha":610,"x_min":94,"x_max":515,"o":"m 328 861 l 268 861 l 268 772 l 328 772 q 353 797 353 772 l 353 836 q 328 861 353 861 m 229 660 l 229 881 q 244 897 229 897 l 329 897 q 375 881 358 897 q 392 835 392 864 l 392 799 q 357 740 392 753 l 394 661 q 388 644 403 644 l 374 644 q 358 654 361 644 l 321 738 l 268 738 l 268 660 q 254 644 268 644 l 244 644 q 229 660 229 644 m 242 594 l 367 594 q 474 706 474 594 l 474 833 q 367 944 474 944 l 242 944 q 163 915 190 944 q 135 833 135 886 l 135 706 q 163 624 135 653 q 242 594 190 594 m 371 556 l 239 556 q 134 595 174 556 q 94 701 94 635 l 94 838 q 134 944 94 904 q 239 983 174 983 l 371 983 q 476 944 436 983 q 515 838 515 904 l 515 701 q 476 595 515 635 q 371 556 436 556 z "},"¯":{"ha":497,"x_min":92,"x_max":406,"o":"m 389 861 l 108 861 q 92 876 92 861 l 92 900 q 108 914 92 914 l 389 914 q 406 900 406 914 l 406 876 q 389 861 406 861 z "},"°":{"ha":414,"x_min":108,"x_max":304,"o":"m 235 710 l 176 710 q 108 778 108 710 l 108 913 q 176 978 108 978 l 235 978 q 285 960 267 978 q 304 913 304 943 l 304 778 q 285 728 304 746 q 235 710 267 710 m 215 750 q 250 759 242 750 q 258 794 258 768 l 258 890 q 250 926 258 917 q 215 935 242 935 l 199 935 q 163 926 172 935 q 154 890 154 917 l 154 794 q 163 760 154 769 q 199 750 172 750 l 215 750 z "},"±":{"ha":726,"x_min":97,"x_max":629,"o":"m 396 543 l 613 543 q 629 528 629 543 l 629 499 q 613 483 629 483 l 396 483 l 396 332 q 379 315 396 315 l 347 315 q 331 332 331 315 l 331 483 l 114 483 q 97 499 97 483 l 97 528 q 114 543 97 543 l 331 543 l 331 696 q 347 713 331 713 l 379 713 q 396 696 396 713 l 396 543 m 114 240 l 613 240 q 629 225 629 240 l 629 196 q 613 179 629 179 l 114 179 q 97 196 97 179 l 97 225 q 114 240 97 240 z "},"´":{"ha":374,"x_min":96,"x_max":281,"o":"m 208 976 l 271 976 q 280 972 278 976 q 278 961 282 967 l 153 810 q 129 797 142 797 l 103 797 q 96 814 88 797 l 183 961 q 208 976 192 976 z "},"¶":{"ha":713,"x_min":69,"x_max":592,"o":"m 286 0 l 253 0 q 238 17 238 0 l 238 447 q 69 611 69 450 l 69 729 q 249 893 69 893 l 576 893 q 592 878 592 893 l 592 17 q 576 0 592 0 l 544 0 q 529 17 529 0 l 529 821 q 515 833 529 833 l 314 833 q 300 821 300 833 l 300 17 q 286 0 300 0 z "},"·":{"ha":288,"x_min":104,"x_max":182,"o":"m 182 525 l 182 360 q 168 343 182 343 l 119 343 q 104 360 104 343 l 104 525 q 119 542 104 542 l 168 542 q 182 525 182 542 z "},"¸":{"ha":357,"x_min":93,"x_max":264,"o":"m 156 -69 q 264 -154 264 -69 l 264 -171 q 150 -254 264 -254 l 115 -254 q 100 -240 100 -254 l 100 -222 q 115 -208 100 -208 l 143 -208 q 217 -164 217 -208 l 217 -161 q 201 -125 217 -135 q 143 -115 185 -115 l 125 -115 q 93 -97 100 -115 q 103 -61 86 -78 l 181 28 l 242 28 l 156 -64 l 156 -69 z "},"»":{"ha":599,"x_min":90,"x_max":508,"o":"m 286 543 l 286 576 q 291 590 286 586 q 303 585 296 593 l 493 400 q 508 368 508 385 l 508 342 q 493 310 508 325 l 303 125 q 291 120 296 117 q 286 133 286 124 l 286 167 q 297 190 286 179 l 464 354 l 297 519 q 286 543 286 529 m 90 543 l 90 576 q 95 590 90 586 q 108 585 100 593 l 297 400 q 314 368 314 383 l 314 342 q 297 310 314 326 l 108 125 q 95 120 100 117 q 90 133 90 124 l 90 167 q 101 190 90 179 l 268 354 l 101 519 q 90 543 90 529 z "},"¿":{"ha":657,"x_min":99,"x_max":558,"o":"m 281 710 l 281 875 q 296 892 281 892 l 344 892 q 358 875 358 892 l 358 710 q 344 694 358 694 l 296 694 q 281 710 281 694 m 285 536 l 285 586 q 299 603 285 603 l 338 603 q 353 586 353 603 l 353 540 q 337 452 353 483 q 272 379 321 421 l 222 336 q 168 233 168 290 l 168 194 q 300 61 168 61 l 357 61 q 488 194 488 61 l 488 253 q 503 269 488 269 l 543 269 q 558 253 558 269 l 558 193 q 506 51 558 103 q 363 0 453 0 l 294 0 q 151 51 204 0 q 99 193 99 103 l 99 236 q 165 365 99 311 l 228 419 q 275 472 265 450 q 285 536 285 494 z "},"À":{"ha":739,"x_min":42,"x_max":699,"o":"m 379 982 l 350 982 q 328 994 336 982 l 203 1146 q 201 1157 197 1153 q 211 1161 204 1161 l 272 1161 q 297 1146 289 1161 l 385 999 q 379 982 393 982 m 94 0 l 51 0 q 42 17 36 0 l 318 876 q 338 893 322 893 l 403 893 q 422 876 417 893 l 699 17 q 689 0 703 0 l 644 0 q 626 17 631 0 l 551 239 l 188 239 l 113 17 q 94 0 107 0 m 367 817 l 207 301 l 533 301 l 372 817 l 367 817 z "},"Á":{"ha":739,"x_min":42,"x_max":699,"o":"m 467 1161 l 529 1161 q 539 1157 536 1161 q 536 1146 542 1153 l 411 994 q 389 982 403 982 l 361 982 q 354 999 346 982 l 442 1146 q 467 1161 450 1161 m 94 0 l 51 0 q 42 17 36 0 l 318 876 q 338 893 322 893 l 403 893 q 422 876 417 893 l 699 17 q 689 0 703 0 l 644 0 q 626 17 631 0 l 551 239 l 188 239 l 113 17 q 94 0 107 0 m 367 817 l 207 301 l 533 301 l 372 817 l 367 817 z "},"Â":{"ha":739,"x_min":42,"x_max":699,"o":"m 494 982 l 461 982 q 444 990 447 982 l 369 1125 l 296 990 q 279 982 293 982 l 246 982 q 239 997 229 982 l 328 1149 q 354 1161 336 1161 l 385 1161 q 413 1149 404 1161 l 500 997 q 494 982 510 982 m 94 0 l 51 0 q 42 17 36 0 l 318 876 q 338 893 322 893 l 403 893 q 422 876 417 893 l 699 17 q 689 0 703 0 l 644 0 q 626 17 631 0 l 551 239 l 188 239 l 113 17 q 94 0 107 0 m 367 817 l 207 301 l 533 301 l 372 817 l 367 817 z "},"Ã":{"ha":739,"x_min":42,"x_max":699,"o":"m 387 1049 q 380 1027 387 1049 q 353 990 372 1006 q 296 975 335 975 q 240 1001 257 975 q 222 1083 222 1026 l 222 1138 q 233 1150 222 1150 l 253 1150 q 265 1138 265 1150 l 265 1092 q 273 1033 265 1049 q 301 1018 281 1018 q 331 1031 322 1018 q 356 1085 340 1043 q 388 1141 372 1128 q 444 1154 404 1154 q 501 1128 483 1154 q 518 1047 518 1103 l 518 990 q 507 976 518 976 l 488 976 q 475 990 475 976 l 475 1038 q 467 1097 475 1082 q 438 1113 460 1113 q 409 1102 417 1113 q 387 1049 401 1092 m 94 0 l 51 0 q 42 17 36 0 l 318 876 q 338 893 322 893 l 403 893 q 422 876 417 893 l 699 17 q 689 0 703 0 l 644 0 q 626 17 631 0 l 551 239 l 188 239 l 113 17 q 94 0 107 0 m 367 817 l 207 301 l 533 301 l 372 817 l 367 817 z "},"Ä":{"ha":739,"x_min":42,"x_max":699,"o":"m 222 999 l 222 1146 q 238 1161 222 1161 l 276 1161 q 290 1146 290 1161 l 290 999 q 276 982 290 982 l 238 982 q 222 999 222 982 m 449 999 l 449 1146 q 464 1161 449 1161 l 503 1161 q 517 1146 517 1161 l 517 999 q 503 982 517 982 l 464 982 q 449 999 449 982 m 94 0 l 51 0 q 42 17 36 0 l 318 876 q 338 893 322 893 l 403 893 q 422 876 417 893 l 699 17 q 689 0 703 0 l 644 0 q 626 17 631 0 l 551 239 l 188 239 l 113 17 q 94 0 107 0 m 367 817 l 207 301 l 533 301 l 372 817 l 367 817 z "},"Å":{"ha":739,"x_min":42,"x_max":699,"o":"m 381 965 l 354 965 q 254 1067 254 965 l 254 1110 q 354 1211 254 1211 l 381 1211 q 456 1185 429 1211 q 483 1110 483 1158 l 483 1067 q 456 992 483 1018 q 381 965 429 965 m 360 1003 l 375 1003 q 440 1074 440 1003 l 440 1103 q 375 1172 440 1172 l 360 1172 q 296 1103 296 1172 l 296 1074 q 360 1003 296 1003 m 94 0 l 51 0 q 42 17 36 0 l 318 876 q 338 893 322 893 l 403 893 q 422 876 417 893 l 699 17 q 689 0 703 0 l 644 0 q 626 17 631 0 l 551 239 l 188 239 l 113 17 q 94 0 107 0 m 367 817 l 207 301 l 533 301 l 372 817 l 367 817 z "},"Æ":{"ha":1074,"x_min":3,"x_max":983,"o":"m 58 0 l 11 0 q 3 17 -3 0 l 474 876 q 499 893 483 893 l 968 893 q 983 878 983 893 l 983 846 q 968 831 983 831 l 607 831 q 594 818 594 831 l 594 499 q 607 486 594 486 l 929 486 q 944 471 944 486 l 944 439 q 929 424 944 424 l 607 424 q 594 411 594 424 l 594 75 q 607 63 594 63 l 968 63 q 983 47 983 63 l 983 15 q 968 0 983 0 l 539 0 q 524 17 524 0 l 524 239 l 204 239 l 81 17 q 58 0 71 0 m 524 304 l 524 818 l 518 818 l 236 304 l 524 304 z "},"Ç":{"ha":753,"x_min":104,"x_max":668,"o":"m 653 611 l 614 611 q 599 628 599 611 l 599 693 q 565 795 599 760 q 467 831 531 831 l 304 831 q 207 794 240 831 q 174 693 174 758 l 174 200 q 207 99 174 135 q 304 63 240 63 l 467 63 q 565 98 531 63 q 599 200 599 133 l 599 265 q 614 282 599 282 l 653 282 q 668 265 668 282 l 668 197 q 616 53 668 106 q 474 0 564 0 l 446 0 l 382 -67 l 382 -72 q 464 -92 438 -72 q 490 -157 490 -111 l 490 -174 q 376 -257 490 -257 l 342 -257 q 328 -242 328 -257 l 328 -225 q 342 -211 328 -211 l 369 -211 q 426 -201 410 -211 q 443 -167 443 -192 l 443 -164 q 427 -128 443 -137 q 369 -118 411 -118 l 353 -118 q 320 -99 328 -118 q 329 -62 313 -81 l 386 0 l 299 0 q 156 53 208 0 q 104 197 104 106 l 104 696 q 156 840 104 788 q 299 893 208 893 l 474 893 q 616 840 564 893 q 668 696 668 788 l 668 628 q 653 611 668 611 z "},"È":{"ha":668,"x_min":118,"x_max":578,"o":"m 376 982 l 347 982 q 325 994 333 982 l 200 1146 q 207 1161 190 1161 l 269 1161 q 294 1146 286 1161 l 382 999 q 376 982 390 982 m 561 0 l 132 0 q 118 17 118 0 l 118 876 q 132 893 118 893 l 561 893 q 578 878 578 893 l 578 846 q 561 831 578 831 l 201 831 q 188 818 188 831 l 188 499 q 201 486 188 486 l 522 486 q 538 471 538 486 l 538 439 q 522 424 538 424 l 201 424 q 188 411 188 424 l 188 75 q 201 63 188 63 l 561 63 q 578 47 578 63 l 578 15 q 561 0 578 0 z "},"É":{"ha":668,"x_min":118,"x_max":578,"o":"m 428 1161 l 490 1161 q 500 1157 497 1161 q 497 1146 503 1153 l 372 994 q 350 982 364 982 l 322 982 q 315 999 307 982 l 403 1146 q 428 1161 411 1161 m 561 0 l 132 0 q 118 17 118 0 l 118 876 q 132 893 118 893 l 561 893 q 578 878 578 893 l 578 846 q 561 831 578 831 l 201 831 q 188 818 188 831 l 188 499 q 201 486 188 486 l 522 486 q 538 471 538 486 l 538 439 q 522 424 538 424 l 201 424 q 188 411 188 424 l 188 75 q 201 63 188 63 l 561 63 q 578 47 578 63 l 578 15 q 561 0 578 0 z "},"Ê":{"ha":668,"x_min":118,"x_max":578,"o":"m 471 982 l 438 982 q 421 990 424 982 l 347 1125 l 272 990 q 256 982 269 982 l 222 982 q 215 997 206 982 l 304 1149 q 332 1161 313 1161 l 361 1161 q 389 1149 381 1161 l 478 997 q 471 982 488 982 m 561 0 l 132 0 q 118 17 118 0 l 118 876 q 132 893 118 893 l 561 893 q 578 878 578 893 l 578 846 q 561 831 578 831 l 201 831 q 188 818 188 831 l 188 499 q 201 486 188 486 l 522 486 q 538 471 538 486 l 538 439 q 522 424 538 424 l 201 424 q 188 411 188 424 l 188 75 q 201 63 188 63 l 561 63 q 578 47 578 63 l 578 15 q 561 0 578 0 z "},"Ë":{"ha":668,"x_min":118,"x_max":578,"o":"m 200 999 l 200 1146 q 214 1161 200 1161 l 253 1161 q 268 1146 268 1161 l 268 999 q 253 982 268 982 l 214 982 q 200 999 200 982 m 426 999 l 426 1146 q 440 1161 426 1161 l 479 1161 q 494 1146 494 1161 l 494 999 q 479 982 494 982 l 440 982 q 426 999 426 982 m 561 0 l 132 0 q 118 17 118 0 l 118 876 q 132 893 118 893 l 561 893 q 578 878 578 893 l 578 846 q 561 831 578 831 l 201 831 q 188 818 188 831 l 188 499 q 201 486 188 486 l 522 486 q 538 471 538 486 l 538 439 q 522 424 538 424 l 201 424 q 188 411 188 424 l 188 75 q 201 63 188 63 l 561 63 q 578 47 578 63 l 578 15 q 561 0 578 0 z "},"Ì":{"ha":319,"x_min":0,"x_max":194,"o":"m 175 982 l 147 982 q 124 994 133 982 l 0 1146 q 7 1161 -12 1161 l 68 1161 q 93 1146 86 1161 l 181 999 q 175 982 189 982 m 194 876 l 194 17 q 179 0 194 0 l 139 0 q 125 17 125 0 l 125 876 q 139 893 125 893 l 179 893 q 194 876 194 893 z "},"Í":{"ha":321,"x_min":125,"x_max":324,"o":"m 251 1161 l 314 1161 q 324 1157 321 1161 q 321 1146 326 1153 l 196 994 q 174 982 188 982 l 146 982 q 139 999 131 982 l 226 1146 q 251 1161 233 1161 m 194 876 l 194 17 q 179 0 194 0 l 139 0 q 125 17 125 0 l 125 876 q 139 893 125 893 l 179 893 q 194 876 194 893 z "},"Î":{"ha":318,"x_min":29,"x_max":290,"o":"m 283 982 l 250 982 q 233 990 239 982 l 160 1125 l 85 990 q 68 982 82 982 l 36 982 q 29 997 19 982 l 117 1149 q 144 1161 125 1161 l 175 1161 q 201 1149 193 1161 l 290 997 q 283 982 300 982 m 194 876 l 194 17 q 179 0 194 0 l 139 0 q 125 17 125 0 l 125 876 q 139 893 125 893 l 179 893 q 194 876 194 893 z "},"Ï":{"ha":319,"x_min":13,"x_max":307,"o":"m 13 999 l 13 1146 q 26 1161 13 1161 l 65 1161 q 81 1146 81 1161 l 81 999 q 65 982 81 982 l 26 982 q 13 999 13 982 m 239 999 l 239 1146 q 253 1161 239 1161 l 292 1161 q 307 1146 307 1161 l 307 999 q 292 982 307 982 l 253 982 q 239 999 239 982 m 194 876 l 194 17 q 179 0 194 0 l 139 0 q 125 17 125 0 l 125 876 q 139 893 125 893 l 179 893 q 194 876 194 893 z "},"Ð":{"ha":714,"x_min":35,"x_max":674,"o":"m 204 63 l 472 63 q 570 98 536 63 q 604 200 604 133 l 604 693 q 570 795 604 760 q 472 831 536 831 l 204 831 q 192 818 192 831 l 192 493 q 204 481 192 481 l 410 481 q 425 465 425 481 l 425 438 q 410 422 425 422 l 204 422 q 192 411 192 422 l 192 75 q 204 63 192 63 m 479 0 l 136 0 q 122 17 122 0 l 122 411 q 108 422 122 422 l 50 422 q 35 438 35 422 l 35 465 q 50 481 35 481 l 108 481 q 122 493 122 481 l 122 876 q 136 893 122 893 l 479 893 q 622 840 569 893 q 674 696 674 788 l 674 197 q 622 53 674 106 q 479 0 569 0 z "},"Ñ":{"ha":804,"x_min":118,"x_max":688,"o":"m 419 1054 q 386 990 404 1006 q 329 975 368 975 q 272 1001 290 975 q 254 1083 254 1026 l 254 1138 q 267 1150 254 1150 l 286 1150 q 297 1138 297 1150 l 297 1092 q 306 1034 297 1050 q 334 1018 314 1018 q 363 1031 354 1018 q 388 1085 372 1043 q 421 1140 404 1126 q 476 1154 438 1154 q 533 1128 515 1154 q 551 1047 551 1103 l 551 990 q 539 976 551 976 l 519 976 q 508 990 508 976 l 508 1038 q 500 1097 508 1081 q 471 1113 492 1113 q 442 1103 450 1113 q 429 1078 435 1093 q 423 1063 424 1064 q 422 1058 422 1061 q 419 1054 421 1056 m 172 0 l 132 0 q 118 17 118 0 l 118 876 q 132 893 118 893 l 169 893 q 186 885 182 893 l 613 151 l 618 151 l 618 876 q 633 893 618 893 l 672 893 q 688 876 688 893 l 688 17 q 672 0 688 0 l 640 0 q 618 15 628 0 l 193 743 l 188 743 l 188 17 q 172 0 188 0 z "},"Ò":{"ha":768,"x_min":104,"x_max":664,"o":"m 404 982 l 375 982 q 353 994 361 982 l 228 1146 q 235 1161 218 1161 l 297 1161 q 322 1146 314 1161 l 410 999 q 404 982 418 982 m 304 63 l 463 63 q 560 98 526 63 q 594 200 594 133 l 594 693 q 560 795 594 760 q 463 831 526 831 l 304 831 q 207 794 240 831 q 174 693 174 758 l 174 200 q 207 99 174 135 q 304 63 240 63 m 469 0 l 299 0 q 156 53 208 0 q 104 197 104 106 l 104 696 q 156 840 104 788 q 299 893 208 893 l 469 893 q 612 840 560 893 q 664 696 664 788 l 664 197 q 612 53 664 106 q 469 0 560 0 z "},"Ó":{"ha":768,"x_min":104,"x_max":664,"o":"m 465 1161 l 528 1161 q 535 1146 544 1161 l 410 994 q 386 982 401 982 l 358 982 q 353 999 344 982 l 440 1146 q 465 1161 447 1161 m 304 63 l 463 63 q 560 98 526 63 q 594 200 594 133 l 594 693 q 560 795 594 760 q 463 831 526 831 l 304 831 q 207 794 240 831 q 174 693 174 758 l 174 200 q 207 99 174 135 q 304 63 240 63 m 469 0 l 299 0 q 156 53 208 0 q 104 197 104 106 l 104 696 q 156 840 104 788 q 299 893 208 893 l 469 893 q 612 840 560 893 q 664 696 664 788 l 664 197 q 612 53 664 106 q 469 0 560 0 z "},"Ô":{"ha":768,"x_min":104,"x_max":664,"o":"m 508 982 l 475 982 q 458 990 461 982 l 385 1125 l 310 990 q 293 982 307 982 l 260 982 q 254 997 244 982 l 342 1149 q 369 1161 350 1161 l 400 1161 q 426 1149 418 1161 l 515 997 q 508 982 525 982 m 304 63 l 463 63 q 560 98 526 63 q 594 200 594 133 l 594 693 q 560 795 594 760 q 463 831 526 831 l 304 831 q 207 794 240 831 q 174 693 174 758 l 174 200 q 207 99 174 135 q 304 63 240 63 m 469 0 l 299 0 q 156 53 208 0 q 104 197 104 106 l 104 696 q 156 840 104 788 q 299 893 208 893 l 469 893 q 612 840 560 893 q 664 696 664 788 l 664 197 q 612 53 664 106 q 469 0 560 0 z "},"Õ":{"ha":768,"x_min":104,"x_max":664,"o":"m 400 1049 q 392 1027 400 1049 q 367 990 385 1006 q 309 975 349 975 q 252 1001 269 975 q 235 1083 235 1026 l 235 1138 q 247 1150 235 1150 l 267 1150 q 278 1138 278 1150 l 278 1092 q 286 1034 278 1050 q 315 1018 294 1018 q 345 1031 336 1018 q 370 1085 354 1043 q 402 1141 386 1128 q 457 1154 418 1154 q 514 1128 496 1154 q 532 1047 532 1103 l 532 990 q 519 976 532 976 l 500 976 q 489 990 489 976 l 489 1038 q 481 1097 489 1081 q 451 1113 472 1113 q 423 1102 431 1113 q 400 1049 415 1092 m 304 63 l 463 63 q 560 98 526 63 q 594 200 594 133 l 594 693 q 560 795 594 760 q 463 831 526 831 l 304 831 q 207 794 240 831 q 174 693 174 758 l 174 200 q 207 99 174 135 q 304 63 240 63 m 469 0 l 299 0 q 156 53 208 0 q 104 197 104 106 l 104 696 q 156 840 104 788 q 299 893 208 893 l 469 893 q 612 840 560 893 q 664 696 664 788 l 664 197 q 612 53 664 106 q 469 0 560 0 z "},"Ö":{"ha":768,"x_min":104,"x_max":664,"o":"m 236 999 l 236 1146 q 251 1161 236 1161 l 289 1161 q 304 1146 304 1161 l 304 999 q 289 982 304 982 l 251 982 q 236 999 236 982 m 463 999 l 463 1146 q 478 1161 463 1161 l 517 1161 q 531 1146 531 1161 l 531 999 q 517 982 531 982 l 478 982 q 463 999 463 982 m 304 63 l 463 63 q 560 98 526 63 q 594 200 594 133 l 594 693 q 560 795 594 760 q 463 831 526 831 l 304 831 q 207 794 240 831 q 174 693 174 758 l 174 200 q 207 99 174 135 q 304 63 240 63 m 469 0 l 299 0 q 156 53 208 0 q 104 197 104 106 l 104 696 q 156 840 104 788 q 299 893 208 893 l 469 893 q 612 840 560 893 q 664 696 664 788 l 664 197 q 612 53 664 106 q 469 0 560 0 z "},"×":{"ha":685,"x_min":138,"x_max":546,"o":"m 388 446 l 546 289 q 546 265 557 276 l 522 242 q 499 242 511 231 l 342 400 l 183 242 q 161 242 172 231 l 138 265 q 138 289 125 276 l 294 446 l 138 603 q 138 626 126 615 l 161 650 q 183 650 172 661 l 342 493 l 499 650 q 522 650 511 661 l 544 626 q 544 603 557 615 l 388 446 z "},"Ø":{"ha":776,"x_min":68,"x_max":707,"o":"m 669 696 l 669 197 q 617 53 669 106 q 475 0 564 0 l 301 0 q 147 67 199 0 l 110 15 q 86 11 99 3 l 69 22 q 68 46 58 32 l 119 118 q 107 197 107 153 l 107 696 q 159 840 107 788 q 301 893 211 893 l 475 893 q 629 826 578 893 l 665 876 q 689 882 675 890 l 706 871 q 707 847 717 861 l 657 776 q 669 696 669 740 m 176 693 l 176 196 l 585 765 q 468 831 557 831 l 308 831 q 210 795 244 831 q 176 693 176 760 m 599 200 l 599 696 l 190 128 q 308 63 221 63 l 468 63 q 565 98 532 63 q 599 200 599 133 z "},"Ù":{"ha":767,"x_min":111,"x_max":656,"o":"m 411 982 l 383 982 q 361 994 369 982 l 236 1146 q 233 1157 231 1153 q 243 1161 236 1161 l 306 1161 q 331 1146 322 1161 l 418 999 q 411 982 426 982 m 601 893 l 640 893 q 656 878 656 893 l 656 197 q 603 53 656 106 q 461 0 551 0 l 306 0 q 163 53 215 0 q 111 197 111 106 l 111 876 q 125 893 111 893 l 165 893 q 181 876 181 893 l 181 200 q 214 99 181 135 q 311 63 247 63 l 454 63 q 552 98 518 63 q 586 200 586 133 l 586 876 q 601 893 586 893 z "},"Ú":{"ha":767,"x_min":111,"x_max":656,"o":"m 467 1161 l 528 1161 q 538 1157 535 1161 q 536 1146 542 1153 l 411 994 q 388 982 400 982 l 360 982 q 354 999 346 982 l 442 1146 q 467 1161 450 1161 m 601 893 l 640 893 q 656 878 656 893 l 656 197 q 603 53 656 106 q 461 0 551 0 l 306 0 q 163 53 215 0 q 111 197 111 106 l 111 876 q 125 893 111 893 l 165 893 q 181 876 181 893 l 181 200 q 214 99 181 135 q 311 63 247 63 l 454 63 q 552 98 518 63 q 586 200 586 133 l 586 876 q 601 893 586 893 z "},"Û":{"ha":767,"x_min":111,"x_max":656,"o":"m 508 982 l 475 982 q 458 990 461 982 l 383 1125 l 310 990 q 293 982 307 982 l 260 982 q 253 997 243 982 l 342 1149 q 369 1161 350 1161 l 399 1161 q 426 1149 418 1161 l 515 997 q 508 982 525 982 m 601 893 l 640 893 q 656 878 656 893 l 656 197 q 603 53 656 106 q 461 0 551 0 l 306 0 q 163 53 215 0 q 111 197 111 106 l 111 876 q 125 893 111 893 l 165 893 q 181 876 181 893 l 181 200 q 214 99 181 135 q 311 63 247 63 l 454 63 q 552 98 518 63 q 586 200 586 133 l 586 876 q 601 893 586 893 z "},"Ü":{"ha":767,"x_min":111,"x_max":656,"o":"m 236 999 l 236 1146 q 251 1161 236 1161 l 289 1161 q 304 1146 304 1161 l 304 999 q 289 982 304 982 l 251 982 q 236 999 236 982 m 463 999 l 463 1146 q 478 1161 463 1161 l 517 1161 q 531 1146 531 1161 l 531 999 q 517 982 531 982 l 478 982 q 463 999 463 982 m 601 893 l 640 893 q 656 878 656 893 l 656 197 q 603 53 656 106 q 461 0 551 0 l 306 0 q 163 53 215 0 q 111 197 111 106 l 111 876 q 125 893 111 893 l 165 893 q 181 876 181 893 l 181 200 q 214 99 181 135 q 311 63 247 63 l 454 63 q 552 98 518 63 q 586 200 586 133 l 586 876 q 601 893 586 893 z "},"Ý":{"ha":685,"x_min":38,"x_max":647,"o":"m 428 1161 l 490 1161 q 500 1157 497 1161 q 497 1146 503 1153 l 374 994 q 350 982 364 982 l 322 982 q 315 999 307 982 l 403 1146 q 428 1161 411 1161 m 363 0 l 322 0 q 307 17 307 0 l 307 338 l 38 876 q 47 893 29 893 l 97 893 q 117 876 110 893 l 339 422 l 346 422 l 567 876 q 586 893 574 893 l 638 893 q 647 876 653 893 l 376 338 l 376 17 q 363 0 376 0 z "},"Þ":{"ha":696,"x_min":160,"x_max":599,"o":"m 243 247 l 397 247 q 495 283 461 247 q 529 383 529 318 l 529 508 q 495 610 529 575 q 397 646 461 646 l 243 646 q 231 633 231 646 l 231 260 q 243 247 231 247 m 215 0 l 175 0 q 160 17 160 0 l 160 876 q 175 893 160 893 l 215 893 q 231 876 231 893 l 231 721 q 243 708 231 708 l 404 708 q 547 656 494 708 q 599 511 599 603 l 599 381 q 547 238 599 290 q 404 185 494 185 l 243 185 q 231 172 231 185 l 231 17 q 215 0 231 0 z "},"ß":{"ha":750,"x_min":110,"x_max":653,"o":"m 354 482 l 429 482 q 532 518 494 482 q 569 618 569 554 l 569 694 q 535 795 569 760 q 438 831 501 831 l 311 831 q 213 795 247 831 q 179 694 179 760 l 179 17 q 165 0 179 0 l 125 0 q 110 17 110 0 l 110 696 q 162 840 110 788 q 304 893 214 893 l 444 893 q 587 840 535 893 q 639 696 639 788 l 639 615 q 533 451 639 497 q 620 391 588 438 q 653 283 653 344 l 653 194 q 601 51 653 103 q 458 0 549 0 l 328 0 q 311 15 311 0 l 311 47 q 328 61 311 61 l 451 61 q 549 97 515 61 q 583 199 583 132 l 583 283 q 540 383 583 346 q 432 419 497 419 l 354 419 q 339 433 339 419 l 339 467 q 354 482 339 482 z "},"à":{"ha":697,"x_min":90,"x_max":593,"o":"m 407 797 l 379 797 q 356 810 367 797 l 232 961 q 228 972 226 967 q 239 976 231 976 l 300 976 q 325 961 319 976 l 414 814 q 407 797 419 797 m 374 0 l 285 0 q 142 53 194 0 q 90 197 90 106 l 90 511 q 142 656 90 603 q 285 708 194 708 l 579 708 q 593 692 593 708 l 593 17 q 579 0 593 0 l 539 0 q 524 17 524 0 l 524 72 l 518 72 q 374 0 482 0 m 524 199 l 524 633 q 510 646 524 646 l 290 646 q 193 610 226 646 q 160 508 160 574 l 160 200 q 193 99 160 135 q 290 63 226 63 l 381 63 q 485 98 447 63 q 524 199 524 133 z "},"á":{"ha":697,"x_min":90,"x_max":593,"o":"m 447 976 l 510 976 q 519 972 517 976 q 517 961 522 967 l 392 810 q 368 797 383 797 l 340 797 q 335 814 326 797 l 422 961 q 447 976 431 976 m 374 0 l 285 0 q 142 53 194 0 q 90 197 90 106 l 90 511 q 142 656 90 603 q 285 708 194 708 l 579 708 q 593 692 593 708 l 593 17 q 579 0 593 0 l 539 0 q 524 17 524 0 l 524 72 l 518 72 q 374 0 482 0 m 524 199 l 524 633 q 510 646 524 646 l 290 646 q 193 610 226 646 q 160 508 160 574 l 160 200 q 193 99 160 135 q 290 63 226 63 l 381 63 q 485 98 447 63 q 524 199 524 133 z "},"â":{"ha":697,"x_min":90,"x_max":593,"o":"m 489 797 l 456 797 q 439 806 442 797 l 365 940 l 290 806 q 274 797 288 797 l 240 797 q 235 813 225 797 l 322 964 q 350 976 331 976 l 381 976 q 407 964 399 976 l 496 813 q 489 797 506 797 m 374 0 l 285 0 q 142 53 194 0 q 90 197 90 106 l 90 511 q 142 656 90 603 q 285 708 194 708 l 579 708 q 593 692 593 708 l 593 17 q 579 0 593 0 l 539 0 q 524 17 524 0 l 524 72 l 518 72 q 374 0 482 0 m 524 199 l 524 633 q 510 646 524 646 l 290 646 q 193 610 226 646 q 160 508 160 574 l 160 200 q 193 99 160 135 q 290 63 226 63 l 381 63 q 485 98 447 63 q 524 199 524 133 z "},"ã":{"ha":700,"x_min":90,"x_max":593,"o":"m 229 908 l 229 963 q 240 975 229 975 l 260 975 q 272 963 272 975 l 272 917 q 280 858 272 874 q 308 843 288 843 q 338 856 329 843 q 363 910 347 868 q 395 967 379 953 q 451 981 411 981 q 508 955 490 981 q 525 872 525 929 l 525 815 q 514 801 525 801 l 494 801 q 482 815 482 801 l 482 863 q 474 922 482 906 q 445 938 465 938 q 417 928 425 938 q 404 903 410 918 q 398 888 399 889 q 397 883 397 886 q 394 879 396 881 q 360 815 379 831 q 303 800 342 800 q 247 826 264 800 q 229 908 229 851 m 374 0 l 285 0 q 142 53 194 0 q 90 197 90 106 l 90 511 q 142 656 90 603 q 285 708 194 708 l 579 708 q 593 692 593 708 l 593 17 q 579 0 593 0 l 539 0 q 524 17 524 0 l 524 72 l 518 72 q 374 0 482 0 m 524 199 l 524 633 q 510 646 524 646 l 290 646 q 193 610 226 646 q 160 508 160 574 l 160 200 q 193 99 160 135 q 290 63 226 63 l 381 63 q 485 98 447 63 q 524 199 524 133 z "},"ä":{"ha":697,"x_min":90,"x_max":593,"o":"m 224 814 l 224 961 q 239 976 224 976 l 276 976 q 292 961 292 976 l 292 814 q 276 797 292 797 l 239 797 q 224 814 224 797 m 450 814 l 450 961 q 465 976 450 976 l 504 976 q 518 961 518 976 l 518 814 q 504 797 518 797 l 465 797 q 450 814 450 797 m 374 0 l 285 0 q 142 53 194 0 q 90 197 90 106 l 90 511 q 142 656 90 603 q 285 708 194 708 l 579 708 q 593 692 593 708 l 593 17 q 579 0 593 0 l 539 0 q 524 17 524 0 l 524 72 l 518 72 q 374 0 482 0 m 524 199 l 524 633 q 510 646 524 646 l 290 646 q 193 610 226 646 q 160 508 160 574 l 160 200 q 193 99 160 135 q 290 63 226 63 l 381 63 q 485 98 447 63 q 524 199 524 133 z "},"å":{"ha":697,"x_min":90,"x_max":593,"o":"m 524 199 l 524 633 q 510 646 524 646 l 290 646 q 193 610 226 646 q 160 508 160 574 l 160 200 q 193 99 160 135 q 290 63 226 63 l 381 63 q 485 98 447 63 q 524 199 524 133 m 374 0 l 285 0 q 142 53 194 0 q 90 197 90 106 l 90 511 q 142 656 90 603 q 285 708 194 708 l 579 708 q 593 692 593 708 l 593 17 q 579 0 593 0 l 539 0 q 524 17 524 0 l 524 72 l 518 72 q 374 0 482 0 m 281 918 l 281 865 q 294 819 281 832 q 343 806 308 806 l 363 806 q 412 819 397 806 q 426 865 426 832 l 426 918 q 412 964 426 951 q 363 976 397 976 l 343 976 q 294 964 308 976 q 281 918 281 951 m 242 860 l 242 925 q 336 1014 242 1014 l 369 1014 q 467 925 467 1014 l 467 860 q 369 769 467 769 l 336 769 q 242 860 242 769 z "},"æ":{"ha":1104,"x_min":89,"x_max":1015,"o":"m 590 275 l 590 200 q 624 98 590 133 q 721 63 657 63 l 1000 63 q 1015 47 1015 63 l 1015 15 q 1000 0 1015 0 l 715 0 q 547 92 590 0 q 369 0 503 0 l 283 0 q 142 52 194 0 q 89 194 89 104 l 89 229 q 141 372 89 319 q 283 424 193 424 l 508 424 q 519 435 519 424 l 519 510 q 485 610 519 575 q 389 646 451 646 l 175 646 q 158 661 158 646 l 158 693 q 175 708 158 708 l 388 708 q 556 617 514 708 q 726 708 601 708 l 821 708 q 963 656 911 708 q 1015 511 1015 603 l 1015 304 q 1000 288 1015 288 l 603 288 q 590 275 590 288 m 951 354 l 951 508 q 917 610 951 575 q 819 646 883 646 l 731 646 q 628 613 665 646 q 590 514 590 579 l 590 354 q 603 343 590 343 l 938 343 q 951 354 951 343 m 521 197 l 521 354 q 507 367 521 367 l 290 367 q 157 229 157 367 l 157 199 q 290 61 157 61 l 378 61 q 483 96 444 61 q 521 197 521 131 z "},"ç":{"ha":547,"x_min":90,"x_max":500,"o":"m 485 646 l 290 646 q 193 610 226 646 q 160 508 160 574 l 160 200 q 193 99 160 135 q 290 63 226 63 l 485 63 q 500 47 500 63 l 500 15 q 485 0 500 0 l 389 0 l 328 -64 l 328 -69 q 410 -89 383 -69 q 436 -154 436 -108 l 436 -171 q 322 -254 436 -254 l 289 -254 q 272 -240 272 -254 l 272 -222 q 289 -208 272 -208 l 315 -208 q 389 -164 389 -208 l 389 -161 q 373 -125 389 -135 q 315 -115 357 -115 l 299 -115 q 266 -97 274 -115 q 275 -61 258 -78 l 329 0 l 285 0 q 142 53 194 0 q 90 197 90 106 l 90 511 q 142 656 90 603 q 285 708 194 708 l 485 708 q 500 693 500 708 l 500 660 q 485 646 500 646 z "},"è":{"ha":683,"x_min":90,"x_max":600,"o":"m 374 797 l 346 797 q 322 810 333 797 l 197 961 q 195 972 192 967 q 206 976 199 976 l 267 976 q 292 961 283 976 l 379 814 q 374 797 388 797 m 575 0 l 285 0 q 142 53 194 0 q 90 197 90 106 l 90 511 q 142 656 90 603 q 285 708 194 708 l 404 708 q 547 656 494 708 q 600 511 600 603 l 600 335 q 583 318 600 318 l 172 318 q 160 306 160 318 l 160 199 q 193 98 160 133 q 290 63 226 63 l 575 63 q 590 47 590 63 l 590 15 q 575 0 590 0 m 172 374 l 518 374 q 531 386 531 374 l 531 510 q 497 610 531 575 q 400 646 464 646 l 290 646 q 193 610 226 646 q 160 510 160 575 l 160 386 q 172 374 160 374 z "},"é":{"ha":683,"x_min":90,"x_max":600,"o":"m 415 976 l 478 976 q 488 972 485 976 q 485 961 490 967 l 360 810 q 336 797 351 797 l 310 797 q 303 814 294 797 l 390 961 q 415 976 397 976 m 575 0 l 285 0 q 142 53 194 0 q 90 197 90 106 l 90 511 q 142 656 90 603 q 285 708 194 708 l 404 708 q 547 656 494 708 q 600 511 600 603 l 600 335 q 583 318 600 318 l 172 318 q 160 306 160 318 l 160 199 q 193 98 160 133 q 290 63 226 63 l 575 63 q 590 47 590 63 l 590 15 q 575 0 590 0 m 172 374 l 518 374 q 531 386 531 374 l 531 510 q 497 610 531 575 q 400 646 464 646 l 290 646 q 193 610 226 646 q 160 510 160 575 l 160 386 q 172 374 160 374 z "},"ê":{"ha":683,"x_min":90,"x_max":600,"o":"m 471 797 l 438 797 q 421 806 424 797 l 346 940 l 272 806 q 256 797 269 797 l 222 797 q 215 813 206 797 l 304 964 q 332 976 313 976 l 361 976 q 389 964 381 976 l 478 813 q 471 797 488 797 m 575 0 l 285 0 q 142 53 194 0 q 90 197 90 106 l 90 511 q 142 656 90 603 q 285 708 194 708 l 404 708 q 547 656 494 708 q 600 511 600 603 l 600 335 q 583 318 600 318 l 172 318 q 160 306 160 318 l 160 199 q 193 98 160 133 q 290 63 226 63 l 575 63 q 590 47 590 63 l 590 15 q 575 0 590 0 m 172 374 l 518 374 q 531 386 531 374 l 531 510 q 497 610 531 575 q 400 646 464 646 l 290 646 q 193 610 226 646 q 160 510 160 575 l 160 386 q 172 374 160 374 z "},"ë":{"ha":683,"x_min":90,"x_max":600,"o":"m 199 814 l 199 961 q 214 976 199 976 l 253 976 q 267 961 267 976 l 267 814 q 253 797 267 797 l 214 797 q 199 814 199 797 m 426 814 l 426 961 q 440 976 426 976 l 479 976 q 493 961 493 976 l 493 814 q 479 797 493 797 l 440 797 q 426 814 426 797 m 575 0 l 285 0 q 142 53 194 0 q 90 197 90 106 l 90 511 q 142 656 90 603 q 285 708 194 708 l 404 708 q 547 656 494 708 q 600 511 600 603 l 600 335 q 583 318 600 318 l 172 318 q 160 306 160 318 l 160 199 q 193 98 160 133 q 290 63 226 63 l 575 63 q 590 47 590 63 l 590 15 q 575 0 590 0 m 172 374 l 518 374 q 531 386 531 374 l 531 510 q 497 610 531 575 q 400 646 464 646 l 290 646 q 193 610 226 646 q 160 510 160 575 l 160 386 q 172 374 160 374 z "},"ì":{"ha":292,"x_min":-19,"x_max":181,"o":"m 160 797 l 132 797 q 108 810 119 797 l -15 961 q -19 972 -21 967 q -8 976 -17 976 l 53 976 q 78 961 69 976 l 165 814 q 160 797 174 797 m 111 17 l 111 692 q 125 708 111 708 l 165 708 q 181 692 181 708 l 181 17 q 167 0 181 0 l 125 0 q 111 17 111 0 z "},"í":{"ha":289,"x_min":111,"x_max":308,"o":"m 236 976 l 299 976 q 308 972 306 976 q 306 961 311 967 l 181 810 q 157 797 172 797 l 131 797 q 124 814 115 797 l 211 961 q 236 976 219 976 m 111 17 l 111 692 q 125 708 111 708 l 165 708 q 181 692 181 708 l 181 17 q 167 0 181 0 l 125 0 q 111 17 111 0 z "},"î":{"ha":292,"x_min":15,"x_max":276,"o":"m 269 797 l 238 797 q 219 806 225 797 l 146 940 l 72 806 q 54 797 67 797 l 22 797 q 15 813 6 797 l 104 964 q 131 976 113 976 l 161 976 q 188 964 179 976 l 276 813 q 269 797 286 797 m 111 17 l 111 692 q 125 708 111 708 l 165 708 q 181 692 181 708 l 181 17 q 167 0 181 0 l 125 0 q 111 17 111 0 z "},"ï":{"ha":292,"x_min":-1,"x_max":293,"o":"m -1 814 l -1 961 q 13 976 -1 976 l 51 976 q 67 961 67 976 l 67 814 q 51 797 67 797 l 13 797 q -1 814 -1 797 m 225 814 l 225 961 q 239 976 225 976 l 278 976 q 293 961 293 976 l 293 814 q 278 797 293 797 l 239 797 q 225 814 225 797 m 111 17 l 111 692 q 125 708 111 708 l 165 708 q 181 692 181 708 l 181 17 q 167 0 181 0 l 125 0 q 111 17 111 0 z "},"ð":{"ha":678,"x_min":90,"x_max":592,"o":"m 592 482 l 592 197 q 539 53 592 106 q 396 0 486 0 l 285 0 q 142 53 194 0 q 90 197 90 106 l 90 372 q 142 517 90 464 q 285 569 194 569 l 374 569 q 521 497 485 569 l 526 497 q 489 597 524 554 l 343 763 l 206 647 q 183 649 193 639 l 169 667 q 172 689 161 678 l 307 803 l 196 928 q 197 954 182 943 l 215 969 q 240 967 231 979 l 353 842 l 494 963 q 515 961 507 971 l 531 942 q 529 919 540 929 l 389 801 l 542 633 q 592 482 592 574 m 521 200 l 521 371 q 484 472 521 436 q 381 507 447 507 l 293 507 q 194 471 229 507 q 160 369 160 435 l 160 200 q 193 99 160 135 q 290 63 226 63 l 390 63 q 488 98 454 63 q 521 200 521 133 z "},"ñ":{"ha":704,"x_min":104,"x_max":607,"o":"m 204 908 l 204 963 q 217 975 204 975 l 236 975 q 247 963 247 975 l 247 917 q 256 859 247 875 q 285 843 264 843 q 315 856 306 843 q 340 910 324 868 q 372 967 356 953 q 427 981 388 981 q 484 955 467 981 q 501 872 501 929 l 501 815 q 489 801 501 801 l 469 801 q 458 815 458 801 l 458 863 q 450 922 458 906 q 421 938 442 938 q 392 927 400 938 q 369 874 385 917 q 336 815 354 831 q 278 800 318 800 q 222 826 239 800 q 204 908 204 851 m 158 0 l 118 0 q 104 17 104 0 l 104 692 q 118 708 104 708 l 158 708 q 174 692 174 708 l 174 636 l 179 636 q 324 708 218 708 l 415 708 q 556 656 504 708 q 607 511 607 603 l 607 17 q 593 0 607 0 l 553 0 q 538 17 538 0 l 538 508 q 504 610 538 574 q 407 646 471 646 l 317 646 q 212 610 250 646 q 174 510 174 575 l 174 17 q 158 0 174 0 z "},"ò":{"ha":689,"x_min":90,"x_max":600,"o":"m 363 797 l 335 797 q 311 810 322 797 l 188 961 q 185 972 182 967 q 194 976 188 976 l 257 976 q 282 961 275 976 l 369 814 q 363 797 378 797 m 404 0 l 285 0 q 142 53 194 0 q 90 197 90 106 l 90 511 q 142 656 90 603 q 285 708 194 708 l 404 708 q 547 656 494 708 q 600 511 600 603 l 600 197 q 547 53 600 106 q 404 0 494 0 m 290 63 l 399 63 q 497 98 463 63 q 531 199 531 133 l 531 510 q 497 610 531 575 q 399 646 463 646 l 290 646 q 193 610 226 646 q 160 510 160 575 l 160 199 q 193 98 160 133 q 290 63 226 63 z "},"ó":{"ha":689,"x_min":90,"x_max":600,"o":"m 435 976 l 497 976 q 507 972 504 976 q 504 961 510 967 l 381 810 q 357 797 369 797 l 329 797 q 322 814 314 797 l 410 961 q 435 976 417 976 m 404 0 l 285 0 q 142 53 194 0 q 90 197 90 106 l 90 511 q 142 656 90 603 q 285 708 194 708 l 404 708 q 547 656 494 708 q 600 511 600 603 l 600 197 q 547 53 600 106 q 404 0 494 0 m 290 63 l 399 63 q 497 98 463 63 q 531 199 531 133 l 531 510 q 497 610 531 575 q 399 646 463 646 l 290 646 q 193 610 226 646 q 160 510 160 575 l 160 199 q 193 98 160 133 q 290 63 226 63 z "},"ô":{"ha":689,"x_min":90,"x_max":600,"o":"m 468 797 l 435 797 q 418 806 421 797 l 344 940 l 269 806 q 253 797 267 797 l 219 797 q 214 813 204 797 l 301 964 q 329 976 310 976 l 360 976 q 386 964 378 976 l 475 813 q 468 797 485 797 m 404 0 l 285 0 q 142 53 194 0 q 90 197 90 106 l 90 511 q 142 656 90 603 q 285 708 194 708 l 404 708 q 547 656 494 708 q 600 511 600 603 l 600 197 q 547 53 600 106 q 404 0 494 0 m 290 63 l 399 63 q 497 98 463 63 q 531 199 531 133 l 531 510 q 497 610 531 575 q 399 646 463 646 l 290 646 q 193 610 226 646 q 160 510 160 575 l 160 199 q 193 98 160 133 q 290 63 226 63 z "},"õ":{"ha":689,"x_min":90,"x_max":600,"o":"m 193 908 l 193 963 q 206 975 193 975 l 225 975 q 236 963 236 975 l 236 917 q 244 859 236 875 q 274 843 253 843 q 303 856 294 843 q 328 910 313 868 q 360 967 344 953 q 416 981 376 981 q 473 955 456 981 q 490 872 490 929 l 490 815 q 478 801 490 801 l 458 801 q 447 815 447 801 l 447 863 q 439 922 447 906 q 410 938 431 938 q 381 927 389 938 q 358 874 374 917 q 325 815 343 831 q 267 800 307 800 q 210 826 228 800 q 193 908 193 851 m 404 0 l 285 0 q 142 53 194 0 q 90 197 90 106 l 90 511 q 142 656 90 603 q 285 708 194 708 l 404 708 q 547 656 494 708 q 600 511 600 603 l 600 197 q 547 53 600 106 q 404 0 494 0 m 290 63 l 399 63 q 497 98 463 63 q 531 199 531 133 l 531 510 q 497 610 531 575 q 399 646 463 646 l 290 646 q 193 610 226 646 q 160 510 160 575 l 160 199 q 193 98 160 133 q 290 63 226 63 z "},"ö":{"ha":689,"x_min":90,"x_max":600,"o":"m 197 814 l 197 961 q 211 976 197 976 l 250 976 q 265 961 265 976 l 265 814 q 250 797 265 797 l 211 797 q 197 814 197 797 m 424 814 l 424 961 q 439 976 424 976 l 476 976 q 492 961 492 976 l 492 814 q 476 797 492 797 l 439 797 q 424 814 424 797 m 404 0 l 285 0 q 142 53 194 0 q 90 197 90 106 l 90 511 q 142 656 90 603 q 285 708 194 708 l 404 708 q 547 656 494 708 q 600 511 600 603 l 600 197 q 547 53 600 106 q 404 0 494 0 m 290 63 l 399 63 q 497 98 463 63 q 531 199 531 133 l 531 510 q 497 610 531 575 q 399 646 463 646 l 290 646 q 193 610 226 646 q 160 510 160 575 l 160 199 q 193 98 160 133 q 290 63 226 63 z "},"÷":{"ha":708,"x_min":103,"x_max":606,"o":"m 325 204 l 325 289 q 340 306 325 306 l 368 306 q 383 289 383 306 l 383 204 q 368 189 383 189 l 340 189 q 325 204 325 189 m 589 418 l 119 418 q 103 433 103 418 l 103 458 q 119 474 103 474 l 589 474 q 606 458 606 474 l 606 433 q 589 418 606 418 m 325 603 l 325 686 q 340 703 325 703 l 368 703 q 383 686 383 703 l 383 603 q 368 586 383 586 l 340 586 q 325 603 325 586 z "},"ø":{"ha":724,"x_min":42,"x_max":682,"o":"m 617 511 l 617 197 q 564 53 617 106 q 421 0 511 0 l 303 0 q 133 88 183 0 l 81 35 q 58 35 68 24 l 43 50 q 42 72 32 58 l 113 143 q 107 197 107 165 l 107 511 q 160 656 107 603 q 303 708 213 708 l 421 708 q 590 621 540 708 l 643 674 q 665 675 656 686 l 682 658 q 681 636 692 649 l 611 567 q 617 511 617 543 m 176 508 l 176 207 l 538 568 q 415 646 511 646 l 308 646 q 210 610 244 646 q 176 508 176 575 m 546 200 l 546 501 l 186 140 q 308 63 213 63 l 415 63 q 513 98 479 63 q 546 200 546 133 z "},"ù":{"ha":704,"x_min":97,"x_max":600,"o":"m 369 797 l 342 797 q 318 810 326 797 l 193 961 q 191 972 189 967 q 200 976 193 976 l 263 976 q 288 961 281 976 l 375 814 q 369 797 383 797 m 381 0 l 289 0 q 149 53 200 0 q 97 197 97 106 l 97 692 q 111 708 97 708 l 151 708 q 167 692 167 708 l 167 200 q 200 99 167 135 q 297 63 233 63 l 388 63 q 492 98 454 63 q 531 199 531 133 l 531 692 q 546 708 531 708 l 586 708 q 600 692 600 708 l 600 17 q 586 0 600 0 l 546 0 q 531 17 531 0 l 531 72 l 525 72 q 381 0 489 0 z "},"ú":{"ha":704,"x_min":97,"x_max":600,"o":"m 438 976 l 500 976 q 509 972 507 976 q 507 961 511 967 l 382 810 q 358 797 372 797 l 331 797 q 325 814 317 797 l 413 961 q 438 976 419 976 m 381 0 l 289 0 q 149 53 200 0 q 97 197 97 106 l 97 692 q 111 708 97 708 l 151 708 q 167 692 167 708 l 167 200 q 200 99 167 135 q 297 63 233 63 l 388 63 q 492 98 454 63 q 531 199 531 133 l 531 692 q 546 708 531 708 l 586 708 q 600 692 600 708 l 600 17 q 586 0 600 0 l 546 0 q 531 17 531 0 l 531 72 l 525 72 q 381 0 489 0 z "},"û":{"ha":704,"x_min":97,"x_max":600,"o":"m 474 797 l 440 797 q 422 806 428 797 l 349 940 l 275 806 q 257 797 269 797 l 225 797 q 218 813 208 797 l 307 964 q 333 976 315 976 l 364 976 q 392 964 383 976 l 479 813 q 474 797 489 797 m 381 0 l 289 0 q 149 53 200 0 q 97 197 97 106 l 97 692 q 111 708 97 708 l 151 708 q 167 692 167 708 l 167 200 q 200 99 167 135 q 297 63 233 63 l 388 63 q 492 98 454 63 q 531 199 531 133 l 531 692 q 546 708 531 708 l 586 708 q 600 692 600 708 l 600 17 q 586 0 600 0 l 546 0 q 531 17 531 0 l 531 72 l 525 72 q 381 0 489 0 z "},"ü":{"ha":704,"x_min":97,"x_max":600,"o":"m 201 814 l 201 961 q 217 976 201 976 l 254 976 q 269 961 269 976 l 269 814 q 254 797 269 797 l 217 797 q 201 814 201 797 m 428 814 l 428 961 q 443 976 428 976 l 482 976 q 496 961 496 976 l 496 814 q 482 797 496 797 l 443 797 q 428 814 428 797 m 381 0 l 289 0 q 149 53 200 0 q 97 197 97 106 l 97 692 q 111 708 97 708 l 151 708 q 167 692 167 708 l 167 200 q 200 99 167 135 q 297 63 233 63 l 388 63 q 492 98 454 63 q 531 199 531 133 l 531 692 q 546 708 531 708 l 586 708 q 600 692 600 708 l 600 17 q 586 0 600 0 l 546 0 q 531 17 531 0 l 531 72 l 525 72 q 381 0 489 0 z "},"ý":{"ha":638,"x_min":40,"x_max":599,"o":"m 411 976 l 474 976 q 483 972 481 976 q 481 961 486 967 l 356 810 q 332 797 347 797 l 306 797 q 299 814 290 797 l 386 961 q 411 976 394 976 m 138 -211 l 86 -211 q 71 -196 71 -211 l 71 -162 q 86 -147 71 -147 l 124 -147 q 194 -135 165 -147 q 246 -92 224 -124 q 275 -42 268 -60 q 307 38 294 1 l 281 38 q 261 54 265 38 l 40 692 q 51 708 35 708 l 94 708 q 113 692 108 708 l 317 96 l 322 96 l 526 692 q 544 708 531 708 l 586 708 q 599 692 603 708 q 340 -61 350 -36 q 301 -129 329 -86 q 138 -211 249 -211 z "},"þ":{"ha":706,"x_min":110,"x_max":615,"o":"m 322 63 l 414 63 q 512 98 478 63 q 546 200 546 133 l 546 508 q 512 610 546 575 q 414 646 478 646 l 322 646 q 217 610 256 646 q 179 510 179 575 l 179 199 q 217 98 179 133 q 322 63 256 63 m 179 72 l 179 -168 q 165 -185 179 -185 l 125 -185 q 110 -168 110 -185 l 110 960 q 125 976 110 976 l 165 976 q 179 960 179 976 l 179 636 l 185 636 q 331 708 224 708 l 421 708 q 563 656 511 708 q 615 511 615 603 l 615 197 q 563 53 615 106 q 421 0 511 0 l 331 0 q 185 72 224 0 l 179 72 z "},"ÿ":{"ha":638,"x_min":40,"x_max":599,"o":"m 172 814 l 172 961 q 186 976 172 976 l 225 976 q 240 961 240 976 l 240 814 q 225 797 240 797 l 186 797 q 172 814 172 797 m 399 814 l 399 961 q 414 976 399 976 l 451 976 q 467 961 467 976 l 467 814 q 451 797 467 797 l 414 797 q 399 814 399 797 m 138 -211 l 86 -211 q 71 -196 71 -211 l 71 -162 q 86 -147 71 -147 l 124 -147 q 194 -135 165 -147 q 246 -92 224 -124 q 275 -42 268 -60 q 307 38 294 1 l 281 38 q 261 54 265 38 l 40 692 q 51 708 35 708 l 94 708 q 113 692 108 708 l 317 96 l 322 96 l 526 692 q 544 708 531 708 l 586 708 q 599 692 603 708 q 340 -61 350 -36 q 301 -129 329 -86 q 138 -211 249 -211 z "},"Ā":{"ha":739,"x_min":42,"x_max":699,"o":"m 511 1044 l 229 1044 q 213 1058 213 1044 l 213 1085 q 229 1100 213 1100 l 511 1100 q 526 1085 526 1100 l 526 1058 q 511 1044 526 1044 m 94 0 l 51 0 q 42 17 36 0 l 318 876 q 338 893 322 893 l 403 893 q 422 876 417 893 l 699 17 q 689 0 703 0 l 644 0 q 626 17 631 0 l 551 239 l 188 239 l 113 17 q 94 0 107 0 m 367 817 l 207 301 l 533 301 l 372 817 l 367 817 z "},"ā":{"ha":697,"x_min":90,"x_max":593,"o":"m 524 861 l 243 861 q 226 876 226 861 l 226 900 q 243 914 226 914 l 524 914 q 540 900 540 914 l 540 876 q 524 861 540 861 m 374 0 l 285 0 q 142 53 194 0 q 90 197 90 106 l 90 511 q 142 656 90 603 q 285 708 194 708 l 579 708 q 593 692 593 708 l 593 17 q 579 0 593 0 l 539 0 q 524 17 524 0 l 524 72 l 518 72 q 374 0 482 0 m 524 199 l 524 633 q 510 646 524 646 l 290 646 q 193 610 226 646 q 160 508 160 574 l 160 200 q 193 99 160 135 q 290 63 226 63 l 381 63 q 485 98 447 63 q 524 199 524 133 z "},"Ă":{"ha":739,"x_min":42,"x_max":699,"o":"m 231 1147 q 243 1161 231 1161 l 269 1161 q 282 1147 282 1161 l 282 1132 q 301 1049 282 1072 q 365 1025 319 1025 l 372 1025 q 439 1049 419 1025 q 458 1132 458 1074 l 458 1146 q 471 1160 458 1160 l 494 1160 q 508 1146 508 1160 l 508 1131 q 376 982 508 982 l 361 982 q 231 1131 231 982 l 231 1147 m 94 0 l 51 0 q 42 17 36 0 l 318 876 q 338 893 322 893 l 403 893 q 422 876 417 893 l 699 17 q 689 0 703 0 l 644 0 q 626 17 631 0 l 551 239 l 188 239 l 113 17 q 94 0 107 0 m 367 817 l 207 301 l 533 301 l 372 817 l 367 817 z "},"ă":{"ha":697,"x_min":90,"x_max":593,"o":"m 524 199 l 524 633 q 510 646 524 646 l 290 646 q 193 610 226 646 q 160 508 160 574 l 160 200 q 193 99 160 135 q 290 63 226 63 l 381 63 q 485 98 447 63 q 524 199 524 133 m 374 0 l 285 0 q 142 53 194 0 q 90 197 90 106 l 90 511 q 142 656 90 603 q 285 708 194 708 l 579 708 q 593 692 593 708 l 593 17 q 579 0 593 0 l 539 0 q 524 17 524 0 l 524 72 l 518 72 q 374 0 482 0 m 236 946 l 236 963 q 249 976 236 976 l 274 976 q 288 963 288 976 l 288 947 q 306 864 288 888 q 371 840 325 840 l 378 840 q 444 865 425 840 q 464 947 464 889 l 464 961 q 476 975 464 975 l 500 975 q 513 961 513 975 l 513 946 q 381 797 513 797 l 367 797 q 236 946 236 797 z "},"Ą":{"ha":739,"x_min":42,"x_max":699,"o":"m 689 0 l 653 0 l 581 -97 l 633 -97 q 665 -101 657 -97 q 672 -117 672 -104 q 642 -138 672 -129 q 574 -147 611 -147 q 527 -130 536 -147 q 535 -92 518 -112 l 624 25 l 551 239 l 188 239 l 113 17 q 94 0 107 0 l 51 0 q 42 17 36 0 l 318 876 q 338 893 322 893 l 403 893 q 422 876 417 893 l 699 17 q 689 0 703 0 m 207 301 l 533 301 l 372 817 l 367 817 l 207 301 z "},"ą":{"ha":697,"x_min":90,"x_max":593,"o":"m 481 -100 l 535 -99 q 572 -114 572 -97 q 540 -142 571 -129 q 474 -156 510 -156 q 431 -131 439 -156 q 440 -87 424 -107 l 524 24 l 524 72 l 518 72 q 374 0 482 0 l 285 0 q 142 53 194 0 q 90 197 90 106 l 90 511 q 142 656 90 603 q 285 708 194 708 l 579 708 q 593 692 593 708 l 593 17 q 579 0 593 0 l 553 0 q 535 -24 547 -7 q 515 -51 524 -40 q 481 -100 494 -79 m 290 63 l 381 63 q 485 98 447 63 q 524 199 524 133 l 524 633 q 510 646 524 646 l 290 646 q 193 610 226 646 q 160 508 160 574 l 160 200 q 193 99 160 135 q 290 63 226 63 z "},"Ć":{"ha":753,"x_min":104,"x_max":668,"o":"m 474 0 l 299 0 q 156 53 208 0 q 104 197 104 106 l 104 696 q 156 840 104 788 q 299 893 208 893 l 474 893 q 616 840 564 893 q 668 696 668 788 l 668 628 q 653 611 668 611 l 614 611 q 599 628 599 611 l 599 693 q 565 795 599 760 q 467 831 531 831 l 304 831 q 207 794 240 831 q 174 693 174 758 l 174 200 q 207 99 174 135 q 304 63 240 63 l 467 63 q 565 98 531 63 q 599 200 599 133 l 599 265 q 614 282 599 282 l 653 282 q 668 265 668 282 l 668 197 q 616 53 668 106 q 474 0 564 0 m 468 1161 l 529 1161 q 539 1157 536 1161 q 536 1146 542 1153 l 413 994 q 389 982 403 982 l 361 982 q 354 999 346 982 l 442 1146 q 468 1161 450 1161 z "},"ć":{"ha":547,"x_min":90,"x_max":500,"o":"m 399 976 l 461 976 q 471 972 468 976 q 468 961 474 967 l 343 810 q 321 797 335 797 l 293 797 q 286 814 278 797 l 374 961 q 399 976 381 976 m 500 47 l 500 15 q 485 0 500 0 l 285 0 q 142 53 194 0 q 90 197 90 106 l 90 511 q 142 656 90 603 q 285 708 194 708 l 485 708 q 500 693 500 708 l 500 660 q 485 646 500 646 l 290 646 q 193 610 226 646 q 160 508 160 574 l 160 200 q 193 99 160 135 q 290 63 226 63 l 485 63 q 500 47 500 63 z "},"Ċ":{"ha":753,"x_min":104,"x_max":668,"o":"m 474 0 l 299 0 q 156 53 208 0 q 104 197 104 106 l 104 696 q 156 840 104 788 q 299 893 208 893 l 474 893 q 616 840 564 893 q 668 696 668 788 l 668 628 q 653 611 668 611 l 614 611 q 599 628 599 611 l 599 693 q 565 795 599 760 q 467 831 531 831 l 304 831 q 207 794 240 831 q 174 693 174 758 l 174 200 q 207 99 174 135 q 304 63 240 63 l 467 63 q 565 98 531 63 q 599 200 599 133 l 599 265 q 614 282 599 282 l 653 282 q 668 265 668 282 l 668 197 q 616 53 668 106 q 474 0 564 0 m 351 1004 l 351 1140 q 365 1157 351 1157 l 407 1157 q 421 1142 421 1157 l 421 1004 q 407 989 421 989 l 365 989 q 351 1004 351 989 z "},"ċ":{"ha":547,"x_min":90,"x_max":500,"o":"m 285 818 l 285 956 q 299 971 285 971 l 340 971 q 354 956 354 971 l 354 818 q 340 803 354 803 l 299 803 q 285 818 285 803 m 500 47 l 500 15 q 485 0 500 0 l 285 0 q 142 53 194 0 q 90 197 90 106 l 90 511 q 142 656 90 603 q 285 708 194 708 l 485 708 q 500 693 500 708 l 500 660 q 485 646 500 646 l 290 646 q 193 610 226 646 q 160 508 160 574 l 160 200 q 193 99 160 135 q 290 63 226 63 l 485 63 q 500 47 500 63 z "},"Č":{"ha":753,"x_min":104,"x_max":668,"o":"m 474 0 l 299 0 q 156 53 208 0 q 104 197 104 106 l 104 696 q 156 840 104 788 q 299 893 208 893 l 474 893 q 616 840 564 893 q 668 696 668 788 l 668 628 q 653 611 668 611 l 614 611 q 599 628 599 611 l 599 693 q 565 795 599 760 q 467 831 531 831 l 304 831 q 207 794 240 831 q 174 693 174 758 l 174 200 q 207 99 174 135 q 304 63 240 63 l 467 63 q 565 98 531 63 q 599 200 599 133 l 599 265 q 614 282 599 282 l 653 282 q 668 265 668 282 l 668 197 q 616 53 668 106 q 474 0 564 0 m 401 982 l 372 982 q 344 994 353 982 l 257 1146 q 264 1161 247 1161 l 296 1161 q 313 1153 310 1161 l 388 1018 l 461 1153 q 479 1161 467 1161 l 511 1161 q 518 1146 528 1161 l 429 994 q 401 982 421 982 z "},"č":{"ha":547,"x_min":90,"x_max":500,"o":"m 313 797 q 285 810 293 797 l 196 961 q 203 976 186 976 l 236 976 q 253 968 250 976 l 326 833 l 401 968 q 418 976 404 976 l 451 976 q 458 961 468 976 l 369 810 q 342 797 361 797 l 313 797 m 500 47 l 500 15 q 485 0 500 0 l 285 0 q 142 53 194 0 q 90 197 90 106 l 90 511 q 142 656 90 603 q 285 708 194 708 l 485 708 q 500 693 500 708 l 500 660 q 485 646 500 646 l 290 646 q 193 610 226 646 q 160 508 160 574 l 160 200 q 193 99 160 135 q 290 63 226 63 l 485 63 q 500 47 500 63 z "},"Ď":{"ha":774,"x_min":118,"x_max":669,"o":"m 367 982 q 339 994 347 982 l 250 1146 q 257 1161 240 1161 l 289 1161 q 307 1153 301 1161 l 381 1018 l 456 1153 q 472 1161 458 1161 l 506 1161 q 511 1146 521 1161 l 424 994 q 396 982 415 982 l 367 982 m 201 63 l 468 63 q 566 98 532 63 q 600 200 600 133 l 600 693 q 566 795 600 760 q 468 831 532 831 l 201 831 q 188 818 188 831 l 188 75 q 201 63 188 63 m 118 17 l 118 876 q 132 893 118 893 l 475 893 q 617 840 565 893 q 669 696 669 788 l 669 197 q 617 53 669 106 q 475 0 565 0 l 132 0 q 118 17 118 0 z "},"ď":{"ha":742,"x_min":90,"x_max":750,"o":"m 750 961 l 750 865 q 735 782 750 835 l 700 656 q 687 646 696 646 q 678 658 678 646 l 678 961 q 692 976 678 976 l 736 976 q 750 961 750 976 m 375 0 l 282 0 q 142 53 193 0 q 90 197 90 106 l 90 511 q 142 656 90 603 q 282 708 193 708 l 375 708 q 521 636 482 708 l 526 636 l 526 960 q 540 976 526 976 l 581 976 q 596 960 596 976 l 596 17 q 581 0 596 0 l 540 0 q 526 17 526 0 l 526 72 l 521 72 q 375 0 482 0 m 526 199 l 526 510 q 488 610 526 575 q 383 646 450 646 l 290 646 q 193 610 226 646 q 160 508 160 574 l 160 200 q 193 99 160 135 q 290 63 226 63 l 383 63 q 488 98 450 63 q 526 199 526 133 z "},"Đ":{"ha":714,"x_min":35,"x_max":674,"o":"m 204 63 l 472 63 q 570 98 536 63 q 604 200 604 133 l 604 693 q 570 795 604 760 q 472 831 536 831 l 204 831 q 192 818 192 831 l 192 557 q 204 546 192 546 l 410 546 q 425 531 425 546 l 425 501 q 410 488 425 488 l 204 488 q 192 475 192 488 l 192 75 q 204 63 192 63 m 479 0 l 136 0 q 122 17 122 0 l 122 475 q 108 488 122 488 l 50 488 q 35 501 35 488 l 35 531 q 50 546 35 546 l 108 546 q 122 557 122 546 l 122 876 q 136 893 122 893 l 479 893 q 622 840 569 893 q 674 696 674 788 l 674 197 q 622 53 674 106 q 479 0 569 0 z "},"đ":{"ha":749,"x_min":90,"x_max":714,"o":"m 375 0 l 285 0 q 142 53 194 0 q 90 197 90 106 l 90 419 q 142 564 90 511 q 285 617 194 617 l 375 617 q 521 543 483 617 l 526 543 l 526 760 q 513 772 526 772 l 289 772 q 274 788 274 772 l 274 815 q 289 831 274 831 l 513 831 q 526 843 526 831 l 526 960 q 540 976 526 976 l 581 976 q 596 960 596 976 l 596 843 q 610 831 596 831 l 697 831 q 714 815 714 831 l 714 788 q 697 772 714 772 l 610 772 q 596 760 596 772 l 596 17 q 581 0 596 0 l 540 0 q 526 17 526 0 l 526 72 l 521 72 q 375 0 482 0 m 526 199 l 526 417 q 488 517 526 482 q 383 553 450 553 l 290 553 q 194 517 228 553 q 160 417 160 482 l 160 200 q 193 99 160 135 q 290 63 226 63 l 383 63 q 488 98 450 63 q 526 199 526 133 z "},"Ē":{"ha":668,"x_min":118,"x_max":578,"o":"m 488 1044 l 206 1044 q 190 1058 190 1044 l 190 1085 q 206 1100 190 1100 l 488 1100 q 503 1085 503 1100 l 503 1058 q 488 1044 503 1044 m 561 0 l 132 0 q 118 17 118 0 l 118 876 q 132 893 118 893 l 561 893 q 578 878 578 893 l 578 846 q 561 831 578 831 l 201 831 q 188 818 188 831 l 188 499 q 201 486 188 486 l 522 486 q 538 471 538 486 l 538 439 q 522 424 538 424 l 201 424 q 188 411 188 424 l 188 75 q 201 63 188 63 l 561 63 q 578 47 578 63 l 578 15 q 561 0 578 0 z "},"ē":{"ha":683,"x_min":90,"x_max":600,"o":"m 488 861 l 206 861 q 190 876 190 861 l 190 900 q 206 914 190 914 l 488 914 q 503 900 503 914 l 503 876 q 488 861 503 861 m 575 0 l 285 0 q 142 53 194 0 q 90 197 90 106 l 90 511 q 142 656 90 603 q 285 708 194 708 l 404 708 q 547 656 494 708 q 600 511 600 603 l 600 335 q 583 318 600 318 l 172 318 q 160 306 160 318 l 160 199 q 193 98 160 133 q 290 63 226 63 l 575 63 q 590 47 590 63 l 590 15 q 575 0 590 0 m 172 374 l 518 374 q 531 386 531 374 l 531 510 q 497 610 531 575 q 400 646 464 646 l 290 646 q 193 610 226 646 q 160 510 160 575 l 160 386 q 172 374 160 374 z "},"Ĕ":{"ha":668,"x_min":118,"x_max":578,"o":"m 201 1147 q 214 1161 201 1161 l 240 1161 q 253 1147 253 1161 l 253 1132 q 272 1049 253 1072 q 336 1025 290 1025 l 342 1025 q 410 1049 390 1025 q 429 1132 429 1074 l 429 1146 q 442 1160 429 1160 l 465 1160 q 478 1146 478 1160 l 478 1131 q 346 982 478 982 l 332 982 q 201 1131 201 982 l 201 1147 m 561 0 l 132 0 q 118 17 118 0 l 118 876 q 132 893 118 893 l 561 893 q 578 878 578 893 l 578 846 q 561 831 578 831 l 201 831 q 188 818 188 831 l 188 499 q 201 486 188 486 l 522 486 q 538 471 538 486 l 538 439 q 522 424 538 424 l 201 424 q 188 411 188 424 l 188 75 q 201 63 188 63 l 561 63 q 578 47 578 63 l 578 15 q 561 0 578 0 z "},"ĕ":{"ha":683,"x_min":90,"x_max":600,"o":"m 172 374 l 518 374 q 531 386 531 374 l 531 510 q 497 610 531 575 q 400 646 464 646 l 290 646 q 193 610 226 646 q 160 510 160 575 l 160 386 q 172 374 160 374 m 575 0 l 285 0 q 142 53 194 0 q 90 197 90 106 l 90 511 q 142 656 90 603 q 285 708 194 708 l 404 708 q 547 656 494 708 q 600 511 600 603 l 600 335 q 583 318 600 318 l 172 318 q 160 306 160 318 l 160 199 q 193 98 160 133 q 290 63 226 63 l 575 63 q 590 47 590 63 l 590 15 q 575 0 590 0 m 203 946 l 203 963 q 215 976 203 976 l 242 976 q 254 963 254 976 l 254 947 q 273 864 254 888 q 338 840 292 840 l 344 840 q 411 865 392 840 q 431 947 431 889 l 431 961 q 443 975 431 975 l 467 975 q 481 961 481 975 l 481 946 q 349 797 481 797 l 333 797 q 203 946 203 797 z "},"Ė":{"ha":689,"x_min":118,"x_max":578,"o":"m 313 1004 l 313 1140 q 326 1157 313 1157 l 368 1157 q 382 1142 382 1157 l 382 1004 q 368 989 382 989 l 326 989 q 313 1004 313 989 m 561 0 l 132 0 q 118 17 118 0 l 118 876 q 132 893 118 893 l 561 893 q 578 878 578 893 l 578 846 q 561 831 578 831 l 201 831 q 188 818 188 831 l 188 499 q 201 486 188 486 l 522 486 q 538 471 538 486 l 538 439 q 522 424 538 424 l 201 424 q 188 411 188 424 l 188 75 q 201 63 188 63 l 561 63 q 578 47 578 63 l 578 15 q 561 0 578 0 z "},"ė":{"ha":683,"x_min":90,"x_max":600,"o":"m 311 818 l 311 956 q 326 971 311 971 l 367 971 q 382 956 382 971 l 382 818 q 367 803 382 803 l 326 803 q 311 818 311 803 m 575 0 l 285 0 q 142 53 194 0 q 90 197 90 106 l 90 511 q 142 656 90 603 q 285 708 194 708 l 404 708 q 547 656 494 708 q 600 511 600 603 l 600 335 q 583 318 600 318 l 172 318 q 160 306 160 318 l 160 199 q 193 98 160 133 q 290 63 226 63 l 575 63 q 590 47 590 63 l 590 15 q 575 0 590 0 m 172 374 l 518 374 q 531 386 531 374 l 531 510 q 497 610 531 575 q 400 646 464 646 l 290 646 q 193 610 226 646 q 160 510 160 575 l 160 386 q 172 374 160 374 z "},"Ę":{"ha":668,"x_min":118,"x_max":578,"o":"m 561 831 l 201 831 q 188 818 188 831 l 188 499 q 201 486 188 486 l 522 486 q 538 471 538 486 l 538 439 q 522 424 538 424 l 201 424 q 188 411 188 424 l 188 75 q 201 63 188 63 l 561 63 q 578 47 578 63 l 578 15 q 561 0 578 0 l 490 0 l 417 -97 l 471 -97 q 501 -101 493 -97 q 508 -117 508 -104 q 478 -138 508 -129 q 411 -147 449 -147 q 365 -130 374 -147 q 372 -92 356 -112 l 442 0 l 132 0 q 118 17 118 0 l 118 876 q 132 893 118 893 l 561 893 q 578 878 578 893 l 578 846 q 561 831 578 831 z "},"ę":{"ha":683,"x_min":90,"x_max":600,"o":"m 421 -100 l 475 -99 q 511 -114 514 -97 q 481 -142 511 -129 q 415 -156 450 -156 q 372 -131 379 -156 q 381 -87 364 -107 l 446 0 l 285 0 q 142 53 194 0 q 90 197 90 106 l 90 511 q 142 656 90 603 q 285 708 194 708 l 404 708 q 547 656 494 708 q 600 511 600 603 l 600 335 q 583 318 600 318 l 172 318 q 160 306 160 318 l 160 199 q 193 98 160 133 q 290 63 226 63 l 575 63 q 590 47 590 63 l 590 15 q 575 0 590 0 l 493 0 q 476 -24 488 -7 q 456 -51 464 -40 q 421 -100 435 -79 m 531 386 l 531 510 q 497 610 531 575 q 400 646 464 646 l 290 646 q 193 610 226 646 q 160 510 160 575 l 160 386 q 172 374 160 374 l 518 374 q 531 386 531 374 z "},"Ě":{"ha":668,"x_min":118,"x_max":578,"o":"m 333 982 q 307 994 315 982 l 218 1146 q 225 1161 208 1161 l 257 1161 q 275 1153 269 1161 l 349 1018 l 424 1153 q 440 1161 426 1161 l 474 1161 q 479 1146 489 1161 l 392 994 q 364 982 383 982 l 333 982 m 561 0 l 132 0 q 118 17 118 0 l 118 876 q 132 893 118 893 l 561 893 q 578 878 578 893 l 578 846 q 561 831 578 831 l 201 831 q 188 818 188 831 l 188 499 q 201 486 188 486 l 522 486 q 538 471 538 486 l 538 439 q 522 424 538 424 l 201 424 q 188 411 188 424 l 188 75 q 201 63 188 63 l 561 63 q 578 47 578 63 l 578 15 q 561 0 578 0 z "},"ě":{"ha":683,"x_min":90,"x_max":600,"o":"m 332 797 q 304 810 313 797 l 215 961 q 222 976 206 976 l 256 976 q 272 968 269 976 l 346 833 l 421 968 q 438 976 424 976 l 471 976 q 478 961 488 976 l 389 810 q 361 797 381 797 l 332 797 m 575 0 l 285 0 q 142 53 194 0 q 90 197 90 106 l 90 511 q 142 656 90 603 q 285 708 194 708 l 404 708 q 547 656 494 708 q 600 511 600 603 l 600 335 q 583 318 600 318 l 172 318 q 160 306 160 318 l 160 199 q 193 98 160 133 q 290 63 226 63 l 575 63 q 590 47 590 63 l 590 15 q 575 0 590 0 m 172 374 l 518 374 q 531 386 531 374 l 531 510 q 497 610 531 575 q 400 646 464 646 l 290 646 q 193 610 226 646 q 160 510 160 575 l 160 386 q 172 374 160 374 z "},"Ĝ":{"ha":749,"x_min":104,"x_max":646,"o":"m 500 982 l 467 982 q 450 990 453 982 l 375 1125 l 301 990 q 283 982 299 982 l 251 982 q 244 997 235 982 l 333 1149 q 360 1161 342 1161 l 390 1161 q 418 1149 410 1161 l 506 997 q 500 982 515 982 m 450 0 l 299 0 q 156 53 208 0 q 104 197 104 106 l 104 696 q 156 840 104 788 q 299 893 208 893 l 450 893 q 593 840 540 893 q 646 696 646 788 l 646 633 q 631 617 646 617 l 590 617 q 575 633 575 617 l 575 693 q 542 795 575 760 q 444 831 508 831 l 304 831 q 207 794 240 831 q 174 693 174 758 l 174 200 q 207 99 174 135 q 304 63 240 63 l 444 63 q 542 98 508 63 q 575 200 575 133 l 575 383 q 563 396 575 396 l 403 396 q 388 411 388 396 l 388 443 q 403 458 388 458 l 619 458 q 646 431 646 458 l 646 197 q 593 53 646 106 q 450 0 540 0 z "},"ĝ":{"ha":703,"x_min":96,"x_max":600,"o":"m 497 797 l 464 797 q 447 806 450 797 l 372 940 l 299 806 q 282 797 296 797 l 249 797 q 242 813 232 797 l 331 964 q 358 976 339 976 l 388 976 q 415 964 407 976 l 504 813 q 497 797 514 797 m 379 40 l 289 40 q 148 93 200 40 q 96 236 96 146 l 96 511 q 148 656 96 603 q 290 708 200 708 l 585 708 q 600 692 600 708 l 600 3 q 547 -142 600 -89 q 404 -194 494 -194 l 151 -194 q 136 -179 136 -194 l 136 -146 q 151 -132 136 -132 l 399 -132 q 496 -97 463 -132 q 529 6 529 -61 l 529 113 l 524 113 q 379 40 489 40 m 529 239 l 529 633 q 517 646 529 646 l 297 646 q 199 610 233 646 q 165 508 165 575 l 165 239 q 199 138 165 174 q 297 103 233 103 l 386 103 q 491 138 453 103 q 529 239 529 174 z "},"Ğ":{"ha":749,"x_min":104,"x_max":646,"o":"m 236 1147 q 250 1161 236 1161 l 275 1161 q 288 1147 288 1161 l 288 1132 q 306 1049 288 1074 q 371 1025 325 1025 l 378 1025 q 445 1049 425 1025 q 465 1132 465 1074 l 465 1146 q 478 1160 465 1160 l 501 1160 q 514 1146 514 1160 l 514 1131 q 382 982 514 982 l 367 982 q 236 1131 236 982 l 236 1147 m 450 0 l 299 0 q 156 53 208 0 q 104 197 104 106 l 104 696 q 156 840 104 788 q 299 893 208 893 l 450 893 q 593 840 540 893 q 646 696 646 788 l 646 633 q 631 617 646 617 l 590 617 q 575 633 575 617 l 575 693 q 542 795 575 760 q 444 831 508 831 l 304 831 q 207 794 240 831 q 174 693 174 758 l 174 200 q 207 99 174 135 q 304 63 240 63 l 444 63 q 542 98 508 63 q 575 200 575 133 l 575 383 q 563 396 575 396 l 403 396 q 388 411 388 396 l 388 443 q 403 458 388 458 l 619 458 q 646 431 646 458 l 646 197 q 593 53 646 106 q 450 0 540 0 z "},"ğ":{"ha":703,"x_min":96,"x_max":600,"o":"m 529 239 l 529 633 q 517 646 529 646 l 297 646 q 199 610 233 646 q 165 508 165 575 l 165 239 q 199 138 165 174 q 297 103 233 103 l 386 103 q 491 138 453 103 q 529 239 529 174 m 379 40 l 289 40 q 148 93 200 40 q 96 236 96 146 l 96 511 q 148 656 96 603 q 290 708 200 708 l 585 708 q 600 692 600 708 l 600 3 q 547 -142 600 -89 q 404 -194 494 -194 l 151 -194 q 136 -179 136 -194 l 136 -146 q 151 -132 136 -132 l 399 -132 q 496 -97 463 -132 q 529 6 529 -61 l 529 113 l 524 113 q 379 40 489 40 m 247 946 l 247 963 q 260 976 247 976 l 286 976 q 299 963 299 976 l 299 947 q 317 864 299 888 q 382 840 336 840 l 389 840 q 456 865 436 840 q 475 947 475 889 l 475 961 q 489 975 475 975 l 511 975 q 525 961 525 975 l 525 946 q 393 797 525 797 l 378 797 q 247 946 247 797 z "},"Ġ":{"ha":749,"x_min":104,"x_max":646,"o":"m 339 1004 l 339 1140 q 353 1157 339 1157 l 394 1157 q 408 1142 408 1157 l 408 1004 q 394 989 408 989 l 353 989 q 339 1004 339 989 m 450 0 l 299 0 q 156 53 208 0 q 104 197 104 106 l 104 696 q 156 840 104 788 q 299 893 208 893 l 450 893 q 593 840 540 893 q 646 696 646 788 l 646 633 q 631 617 646 617 l 590 617 q 575 633 575 617 l 575 693 q 542 795 575 760 q 444 831 508 831 l 304 831 q 207 794 240 831 q 174 693 174 758 l 174 200 q 207 99 174 135 q 304 63 240 63 l 444 63 q 542 98 508 63 q 575 200 575 133 l 575 383 q 563 396 575 396 l 403 396 q 388 411 388 396 l 388 443 q 403 458 388 458 l 619 458 q 646 431 646 458 l 646 197 q 593 53 646 106 q 450 0 540 0 z "},"ġ":{"ha":703,"x_min":96,"x_max":600,"o":"m 347 818 l 347 956 q 361 971 347 971 l 403 971 q 417 956 417 971 l 417 818 q 403 803 417 803 l 361 803 q 347 818 347 803 m 379 40 l 289 40 q 148 93 200 40 q 96 236 96 146 l 96 511 q 148 656 96 603 q 290 708 200 708 l 585 708 q 600 692 600 708 l 600 3 q 547 -142 600 -89 q 404 -194 494 -194 l 151 -194 q 136 -179 136 -194 l 136 -146 q 151 -132 136 -132 l 399 -132 q 496 -97 463 -132 q 529 6 529 -61 l 529 113 l 524 113 q 379 40 489 40 m 529 239 l 529 633 q 517 646 529 646 l 297 646 q 199 610 233 646 q 165 508 165 575 l 165 239 q 199 138 165 174 q 297 103 233 103 l 386 103 q 491 138 453 103 q 529 239 529 174 z "},"Ģ":{"ha":749,"x_min":104,"x_max":646,"o":"m 435 -60 l 435 -125 q 419 -204 435 -158 l 385 -321 q 371 -331 381 -331 q 361 -318 361 -331 l 361 -60 q 376 -44 361 -44 l 421 -44 q 435 -60 435 -44 m 450 0 l 299 0 q 156 53 208 0 q 104 197 104 106 l 104 696 q 156 840 104 788 q 299 893 208 893 l 450 893 q 593 840 540 893 q 646 696 646 788 l 646 633 q 631 617 646 617 l 590 617 q 575 633 575 617 l 575 693 q 542 795 575 760 q 444 831 508 831 l 304 831 q 207 794 240 831 q 174 693 174 758 l 174 200 q 207 99 174 135 q 304 63 240 63 l 444 63 q 542 98 508 63 q 575 200 575 133 l 575 383 q 563 396 575 396 l 403 396 q 388 411 388 396 l 388 443 q 403 458 388 458 l 619 458 q 646 431 646 458 l 646 197 q 593 53 646 106 q 450 0 540 0 z "},"ģ":{"ha":703,"x_min":96,"x_max":600,"o":"m 379 40 l 289 40 q 148 93 200 40 q 96 236 96 146 l 96 511 q 148 656 96 603 q 290 708 200 708 l 585 708 q 600 692 600 708 l 600 3 q 547 -142 600 -89 q 404 -194 494 -194 l 151 -194 q 136 -179 136 -194 l 136 -146 q 151 -132 136 -132 l 399 -132 q 496 -97 463 -132 q 529 6 529 -61 l 529 113 l 524 113 q 379 40 489 40 m 529 239 l 529 633 q 517 646 529 646 l 297 646 q 199 610 233 646 q 165 508 165 575 l 165 239 q 199 138 165 174 q 297 103 233 103 l 386 103 q 491 138 453 103 q 529 239 529 174 m 340 813 l 340 878 q 356 957 340 904 l 392 1074 q 403 1083 397 1083 q 414 1071 414 1083 l 414 813 q 400 797 414 797 l 356 797 q 340 813 340 797 z "},"ĥ":{"ha":704,"x_min":104,"x_max":607,"o":"m 504 888 l 472 888 q 454 896 460 888 l 381 1031 l 306 896 q 289 888 303 888 l 257 888 q 250 903 240 888 l 338 1053 q 365 1067 347 1067 l 394 1067 q 422 1053 413 1067 l 511 903 q 504 888 521 888 m 158 0 l 118 0 q 104 17 104 0 l 104 960 q 118 976 104 976 l 158 976 q 174 960 174 976 l 174 636 l 179 636 q 324 708 218 708 l 415 708 q 556 656 504 708 q 607 511 607 603 l 607 17 q 593 0 607 0 l 553 0 q 538 17 538 0 l 538 508 q 504 610 538 574 q 407 646 471 646 l 317 646 q 212 610 250 646 q 174 510 174 575 l 174 17 q 158 0 174 0 z "},"Ħ":{"ha":726,"x_min":35,"x_max":769,"o":"m 179 0 l 139 0 q 124 17 124 0 l 124 633 q 111 646 124 646 l 50 646 q 35 661 35 646 l 35 689 q 50 704 35 704 l 111 704 q 124 717 124 704 l 124 876 q 139 893 124 893 l 179 893 q 194 876 194 893 l 194 717 q 207 704 194 704 l 597 704 q 610 715 610 704 l 610 876 q 625 893 610 893 l 665 893 q 681 876 681 893 l 681 717 q 693 704 681 704 l 754 704 q 769 689 769 704 l 769 661 q 754 646 769 646 l 693 646 q 681 633 681 646 l 681 17 q 665 0 681 0 l 625 0 q 610 17 610 0 l 610 406 q 597 417 610 417 l 207 417 q 194 406 194 417 l 194 17 q 179 0 194 0 m 207 481 l 597 481 q 610 492 610 481 l 610 633 q 597 646 610 646 l 207 646 q 194 633 194 646 l 194 492 q 207 481 194 481 z "},"ħ":{"ha":756,"x_min":35,"x_max":658,"o":"m 207 0 l 167 0 q 151 17 151 0 l 151 760 q 139 772 151 772 l 50 772 q 35 788 35 772 l 35 815 q 50 831 35 831 l 139 831 q 151 843 151 831 l 151 960 q 167 976 151 976 l 207 976 q 222 960 222 976 l 222 843 q 235 831 222 831 l 458 831 q 475 815 475 831 l 475 788 q 458 772 475 772 l 235 772 q 222 760 222 772 l 222 546 l 228 546 q 372 618 263 618 l 463 618 q 606 565 553 618 q 658 422 658 513 l 658 17 q 643 0 658 0 l 603 0 q 588 17 588 0 l 588 419 q 554 520 588 485 q 457 556 521 556 l 365 556 q 260 520 299 556 q 222 419 222 485 l 222 17 q 207 0 222 0 z "},"Ĩ":{"ha":319,"x_min":11,"x_max":308,"o":"m 175 1045 q 168 1025 175 1045 q 143 990 161 1006 q 86 975 125 975 q 29 1001 47 975 q 11 1083 11 1026 l 11 1138 q 24 1150 11 1150 l 43 1150 q 54 1138 54 1150 l 54 1092 q 63 1034 54 1050 q 92 1018 71 1018 q 121 1031 113 1018 q 146 1085 129 1043 q 178 1141 163 1128 q 233 1154 194 1154 q 290 1128 272 1154 q 308 1047 308 1103 l 308 990 q 296 976 308 976 l 276 976 q 265 990 265 976 l 265 1038 q 257 1097 265 1081 q 225 1113 249 1113 q 192 1089 201 1113 q 175 1045 189 1085 m 194 876 l 194 17 q 179 0 194 0 l 139 0 q 125 17 125 0 l 125 876 q 139 893 125 893 l 179 893 q 194 876 194 893 z "},"ĩ":{"ha":292,"x_min":-3,"x_max":294,"o":"m -3 908 l -3 963 q 10 975 -3 975 l 29 975 q 40 963 40 975 l 40 917 q 49 859 40 875 q 78 843 57 843 q 107 856 99 843 q 132 910 115 868 q 165 967 149 953 q 219 981 181 981 q 276 955 258 981 q 294 872 294 929 l 294 815 q 282 801 294 801 l 263 801 q 251 815 251 801 l 251 863 q 243 922 251 906 q 211 938 235 938 q 165 884 183 938 q 129 815 147 831 q 72 800 111 800 q 15 826 33 800 q -3 908 -3 851 m 111 17 l 111 692 q 125 708 111 708 l 165 708 q 181 692 181 708 l 181 17 q 167 0 181 0 l 125 0 q 111 17 111 0 z "},"Ī":{"ha":319,"x_min":3,"x_max":317,"o":"m 300 1044 l 19 1044 q 3 1058 3 1044 l 3 1085 q 19 1100 3 1100 l 300 1100 q 317 1085 317 1100 l 317 1058 q 300 1044 317 1044 m 194 876 l 194 17 q 179 0 194 0 l 139 0 q 125 17 125 0 l 125 876 q 139 893 125 893 l 179 893 q 194 876 194 893 z "},"ī":{"ha":289,"x_min":-12,"x_max":301,"o":"m 285 861 l 4 861 q -12 876 -12 861 l -12 900 q 4 914 -12 914 l 285 914 q 301 900 301 914 l 301 876 q 285 861 301 861 m 111 17 l 111 692 q 125 708 111 708 l 165 708 q 181 692 181 708 l 181 17 q 167 0 181 0 l 125 0 q 111 17 111 0 z "},"Ĭ":{"ha":321,"x_min":22,"x_max":299,"o":"m 22 1147 q 35 1161 22 1161 l 60 1161 q 74 1147 74 1161 l 74 1132 q 92 1049 74 1072 q 157 1025 111 1025 l 163 1025 q 231 1049 211 1025 q 250 1132 250 1074 l 250 1146 q 263 1160 250 1160 l 286 1160 q 299 1146 299 1160 l 299 1131 q 167 982 299 982 l 153 982 q 22 1131 22 982 l 22 1147 m 194 876 l 194 17 q 179 0 194 0 l 139 0 q 125 17 125 0 l 125 876 q 139 893 125 893 l 179 893 q 194 876 194 893 z "},"ĭ":{"ha":293,"x_min":8,"x_max":285,"o":"m 111 17 l 111 692 q 125 708 111 708 l 165 708 q 181 692 181 708 l 181 17 q 167 0 181 0 l 125 0 q 111 17 111 0 m 8 946 l 8 963 q 21 976 8 976 l 46 976 q 60 963 60 976 l 60 947 q 78 864 60 888 q 143 840 97 840 l 149 840 q 217 865 197 840 q 236 947 236 889 l 236 961 q 249 975 236 975 l 272 975 q 285 961 285 975 l 285 946 q 153 797 285 797 l 139 797 q 8 946 8 797 z "},"Į":{"ha":319,"x_min":43,"x_max":194,"o":"m 139 893 l 179 893 q 194 876 194 893 l 194 17 q 179 0 194 0 l 169 0 l 97 -97 l 150 -97 q 181 -101 174 -97 q 189 -117 189 -104 q 158 -138 189 -129 q 90 -147 128 -147 q 44 -130 53 -147 q 51 -92 35 -112 l 126 7 q 125 17 125 10 l 125 876 q 139 893 125 893 z "},"į":{"ha":292,"x_min":32,"x_max":181,"o":"m 125 974 l 167 974 q 181 958 181 974 l 181 825 q 167 808 181 808 l 125 808 q 111 825 111 808 l 111 958 q 125 974 111 974 m 82 -100 l 138 -99 q 172 -114 175 -97 q 142 -142 172 -129 q 76 -156 111 -156 q 33 -131 40 -156 q 42 -87 25 -107 l 113 7 q 111 17 111 10 l 111 692 q 125 708 111 708 l 165 708 q 181 692 181 708 l 181 17 q 167 0 181 0 l 154 0 q 137 -24 149 -7 q 117 -51 125 -40 q 82 -100 96 -79 z "},"İ":{"ha":319,"x_min":125,"x_max":194,"o":"m 194 876 l 194 17 q 179 0 194 0 l 139 0 q 125 17 125 0 l 125 876 q 139 893 125 893 l 179 893 q 194 876 194 893 m 125 971 l 125 1104 q 139 1119 125 1119 l 181 1119 q 194 1104 194 1119 l 194 971 q 181 954 194 954 l 139 954 q 125 971 125 954 z "},"ı":{"ha":294,"x_min":113,"x_max":182,"o":"m 113 17 l 113 692 q 126 708 113 708 l 167 708 q 182 692 182 708 l 182 17 q 167 0 182 0 l 126 0 q 113 17 113 0 z "},"Ĳ":{"ha":1001,"x_min":126,"x_max":894,"o":"m 840 893 l 879 893 q 894 878 894 893 l 894 197 q 842 53 894 106 q 700 0 790 0 l 561 0 q 418 53 471 0 q 365 197 365 106 l 365 313 q 381 328 365 328 l 421 328 q 436 313 436 328 l 436 200 q 469 98 436 133 q 567 63 503 63 l 693 63 q 791 98 757 63 q 825 200 825 133 l 825 876 q 840 893 825 893 m 196 876 l 196 17 q 181 0 196 0 l 140 0 q 126 17 126 0 l 126 876 q 140 893 126 893 l 181 893 q 196 876 196 893 z "},"ĳ":{"ha":582,"x_min":111,"x_max":471,"o":"m 111 17 l 111 692 q 125 708 111 708 l 165 708 q 181 692 181 708 l 181 17 q 167 0 181 0 l 125 0 q 111 17 111 0 m 111 825 l 111 958 q 125 974 111 974 l 167 974 q 181 958 181 974 l 181 825 q 167 808 181 808 l 125 808 q 111 825 111 808 m 401 825 l 401 958 q 415 974 401 974 l 456 974 q 471 958 471 974 l 471 825 q 456 808 471 808 l 415 808 q 401 825 401 808 m 275 -194 l 235 -194 q 218 -179 218 -194 l 218 -146 q 235 -132 218 -132 l 264 -132 q 401 11 401 -132 l 401 692 q 417 708 401 708 l 456 708 q 471 692 471 708 l 471 3 q 418 -142 471 -89 q 275 -194 365 -194 z "},"Ĵ":{"ha":686,"x_min":53,"x_max":674,"o":"m 528 893 l 567 893 q 582 878 582 893 l 582 197 q 530 53 582 106 q 388 0 478 0 l 249 0 q 106 53 158 0 q 53 197 53 106 l 53 313 q 68 328 53 328 l 108 328 q 124 313 124 328 l 124 200 q 157 98 124 133 q 254 63 190 63 l 381 63 q 478 98 444 63 q 513 200 513 133 l 513 876 q 528 893 513 893 m 667 982 l 633 982 q 617 990 619 982 l 543 1125 l 468 990 q 451 982 465 982 l 418 982 q 413 997 403 982 l 500 1149 q 528 1161 508 1161 l 558 1161 q 585 1149 576 1161 l 674 997 q 667 982 683 982 z "},"ĵ":{"ha":290,"x_min":-72,"x_max":275,"o":"m 269 797 l 236 797 q 219 806 222 797 l 144 940 l 71 806 q 53 797 65 797 l 21 797 q 14 813 4 797 l 103 964 q 131 976 111 976 l 160 976 q 188 964 179 976 l 275 813 q 269 797 285 797 m -15 -194 l -56 -194 q -72 -179 -72 -194 l -72 -146 q -56 -132 -72 -132 l -26 -132 q 111 11 111 -132 l 111 692 q 125 708 111 708 l 165 708 q 181 692 181 708 l 181 3 q 128 -142 181 -89 q -15 -194 75 -194 z "},"Ķ":{"ha":736,"x_min":118,"x_max":697,"o":"m 444 -60 l 444 -125 q 429 -204 444 -151 l 393 -321 q 381 -331 392 -331 q 371 -318 371 -331 l 371 -60 q 385 -44 371 -44 l 429 -44 q 444 -60 444 -44 m 172 0 l 132 0 q 118 17 118 0 l 118 876 q 132 893 118 893 l 172 893 q 188 876 188 893 l 188 364 l 193 364 q 218 410 201 386 l 571 876 q 600 893 583 893 l 649 893 q 654 876 667 893 l 375 503 l 697 17 q 689 0 708 0 l 650 0 q 619 17 629 0 l 331 450 l 188 278 l 188 17 q 172 0 188 0 z "},"ķ":{"ha":599,"x_min":104,"x_max":582,"o":"m 503 708 l 546 708 q 557 703 554 708 q 554 692 560 699 l 342 369 l 342 364 l 579 17 q 582 5 585 10 q 571 0 579 0 l 528 0 q 496 17 507 0 l 267 354 q 267 376 261 365 l 475 694 q 503 708 483 708 m 158 0 l 118 0 q 104 17 104 0 l 104 960 q 118 976 104 976 l 158 976 q 174 960 174 976 l 174 17 q 158 0 174 0 m 368 -60 l 368 -125 q 353 -204 368 -151 l 317 -321 q 306 -331 313 -331 q 294 -318 294 -331 l 294 -60 q 310 -44 294 -44 l 353 -44 q 368 -60 368 -44 z "},"Ĺ":{"ha":626,"x_min":118,"x_max":590,"o":"m 244 1161 l 307 1161 q 314 1146 324 1161 l 189 994 q 165 982 179 982 l 138 982 q 132 999 124 982 l 219 1146 q 244 1161 228 1161 m 574 0 l 132 0 q 118 17 118 0 l 118 876 q 132 893 118 893 l 172 893 q 188 876 188 893 l 188 78 q 201 65 188 65 l 574 65 q 590 50 590 65 l 590 15 q 574 0 590 0 z "},"ĺ":{"ha":288,"x_min":111,"x_max":307,"o":"m 235 1219 l 296 1219 q 306 1215 303 1219 q 304 1204 310 1211 l 179 1053 q 156 1040 168 1040 l 128 1040 q 121 1057 114 1040 l 210 1204 q 235 1219 215 1219 m 165 0 l 125 0 q 111 17 111 0 l 111 960 q 125 976 111 976 l 165 976 q 181 960 181 976 l 181 17 q 165 0 181 0 z "},"Ļ":{"ha":626,"x_min":118,"x_max":590,"o":"m 390 -60 l 390 -125 q 375 -204 390 -151 l 339 -321 q 326 -331 335 -331 q 317 -318 317 -331 l 317 -60 q 331 -44 317 -44 l 375 -44 q 390 -60 390 -44 m 574 0 l 132 0 q 118 17 118 0 l 118 876 q 132 893 118 893 l 172 893 q 188 876 188 893 l 188 78 q 201 65 188 65 l 574 65 q 590 50 590 65 l 590 15 q 574 0 590 0 z "},"ļ":{"ha":293,"x_min":110,"x_max":183,"o":"m 183 -60 l 183 -125 q 168 -204 183 -151 l 133 -321 q 121 -331 128 -331 q 110 -318 110 -331 l 110 -60 q 125 -44 110 -44 l 169 -44 q 183 -60 183 -44 m 165 0 l 125 0 q 111 17 111 0 l 111 960 q 125 976 111 976 l 165 976 q 181 960 181 976 l 181 17 q 165 0 181 0 z "},"Ľ":{"ha":626,"x_min":118,"x_max":590,"o":"m 503 878 l 503 782 q 488 699 503 760 l 451 572 q 440 563 447 563 q 429 575 429 563 l 429 878 q 443 893 429 893 l 488 893 q 503 878 503 893 m 574 0 l 132 0 q 118 17 118 0 l 118 876 q 132 893 118 893 l 172 893 q 188 876 188 893 l 188 78 q 201 65 188 65 l 574 65 q 590 50 590 65 l 590 15 q 574 0 590 0 z "},"ľ":{"ha":381,"x_min":111,"x_max":358,"o":"m 358 961 l 358 865 q 342 782 358 839 l 307 656 q 296 646 303 646 q 285 658 285 646 l 285 961 q 299 976 285 976 l 343 976 q 358 961 358 976 m 165 0 l 125 0 q 111 17 111 0 l 111 960 q 125 976 111 976 l 165 976 q 181 960 181 976 l 181 17 q 165 0 181 0 z "},"Ŀ":{"ha":694,"x_min":119,"x_max":592,"o":"m 576 0 l 135 0 q 119 17 119 0 l 119 876 q 135 893 119 893 l 175 893 q 190 876 190 893 l 190 78 q 203 65 190 65 l 576 65 q 592 50 592 65 l 592 15 q 576 0 592 0 m 463 522 l 463 364 q 449 347 463 347 l 399 347 q 385 364 385 347 l 385 522 q 399 538 385 538 l 449 538 q 463 522 463 538 z "},"ŀ":{"ha":436,"x_min":113,"x_max":376,"o":"m 168 0 l 128 0 q 113 17 113 0 l 113 960 q 128 976 113 976 l 168 976 q 183 960 183 976 l 183 17 q 168 0 183 0 m 376 522 l 376 364 q 363 347 376 347 l 313 347 q 299 364 299 347 l 299 522 q 313 538 299 538 l 363 538 q 376 522 376 538 z "},"Ł":{"ha":700,"x_min":13,"x_max":600,"o":"m 585 0 l 143 0 q 128 17 128 0 l 128 522 l 28 465 q 13 474 13 458 l 13 510 q 28 532 13 524 l 128 589 l 128 876 q 143 893 128 893 l 183 893 q 199 876 199 893 l 199 629 l 339 708 q 354 700 354 717 l 354 664 q 339 642 354 650 l 199 563 l 199 78 q 211 65 199 65 l 585 65 q 600 50 600 65 l 600 15 q 585 0 600 0 z "},"ł":{"ha":411,"x_min":36,"x_max":374,"o":"m 225 0 l 185 0 q 169 17 169 0 l 169 533 l 53 467 q 36 475 36 458 l 36 513 q 53 535 36 525 l 169 601 l 169 960 q 185 976 169 976 l 225 976 q 240 960 240 976 l 240 640 l 358 708 q 374 700 374 717 l 374 663 q 358 640 374 650 l 240 574 l 240 17 q 225 0 240 0 z "},"Ń":{"ha":804,"x_min":118,"x_max":688,"o":"m 504 1161 l 567 1161 q 574 1146 583 1161 l 449 994 q 426 982 440 982 l 397 982 q 392 999 383 982 l 479 1146 q 504 1161 486 1161 m 172 0 l 132 0 q 118 17 118 0 l 118 876 q 132 893 118 893 l 169 893 q 186 885 182 893 l 613 151 l 618 151 l 618 876 q 633 893 618 893 l 672 893 q 688 876 688 893 l 688 17 q 672 0 688 0 l 640 0 q 618 15 628 0 l 193 743 l 188 743 l 188 17 q 172 0 188 0 z "},"ń":{"ha":704,"x_min":104,"x_max":607,"o":"m 446 976 l 507 976 q 517 972 514 976 q 515 961 521 967 l 390 810 q 367 797 381 797 l 339 797 q 333 814 325 797 l 421 961 q 446 976 428 976 m 158 0 l 118 0 q 104 17 104 0 l 104 692 q 118 708 104 708 l 158 708 q 174 692 174 708 l 174 636 l 179 636 q 324 708 218 708 l 415 708 q 556 656 504 708 q 607 511 607 603 l 607 17 q 593 0 607 0 l 553 0 q 538 17 538 0 l 538 508 q 504 610 538 574 q 407 646 471 646 l 317 646 q 212 610 250 646 q 174 510 174 575 l 174 17 q 158 0 174 0 z "},"Ņ":{"ha":804,"x_min":118,"x_max":688,"o":"m 442 -60 l 442 -125 q 426 -204 442 -158 l 392 -321 q 378 -331 388 -331 q 369 -318 369 -331 l 369 -60 q 383 -44 369 -44 l 428 -44 q 442 -60 442 -44 m 172 0 l 132 0 q 118 17 118 0 l 118 876 q 132 893 118 893 l 169 893 q 186 885 182 893 l 613 151 l 618 151 l 618 876 q 633 893 618 893 l 672 893 q 688 876 688 893 l 688 17 q 672 0 688 0 l 640 0 q 618 15 628 0 l 193 743 l 188 743 l 188 17 q 172 0 188 0 z "},"ņ":{"ha":701,"x_min":104,"x_max":607,"o":"m 393 -60 l 393 -125 q 378 -204 393 -151 l 343 -321 q 329 -331 339 -331 q 319 -318 319 -331 l 319 -60 q 335 -44 319 -44 l 379 -44 q 393 -60 393 -44 m 158 0 l 118 0 q 104 17 104 0 l 104 692 q 118 708 104 708 l 158 708 q 174 692 174 708 l 174 636 l 179 636 q 324 708 218 708 l 415 708 q 556 656 504 708 q 607 511 607 603 l 607 17 q 593 0 607 0 l 553 0 q 538 17 538 0 l 538 508 q 504 610 538 574 q 407 646 471 646 l 317 646 q 212 610 250 646 q 174 510 174 575 l 174 17 q 158 0 174 0 z "},"Ň":{"ha":804,"x_min":118,"x_max":688,"o":"m 172 0 l 132 0 q 118 17 118 0 l 118 876 q 132 893 118 893 l 169 893 q 186 885 182 893 l 613 151 l 618 151 l 618 876 q 633 893 618 893 l 672 893 q 688 876 688 893 l 688 17 q 672 0 688 0 l 640 0 q 618 15 628 0 l 193 743 l 188 743 l 188 17 q 172 0 188 0 m 390 982 q 363 994 371 982 l 274 1146 q 281 1161 264 1161 l 314 1161 q 331 1153 328 1161 l 406 1018 l 479 1153 q 496 1161 482 1161 l 529 1161 q 536 1146 546 1161 l 447 994 q 419 982 439 982 l 390 982 z "},"ň":{"ha":704,"x_min":104,"x_max":607,"o":"m 340 797 q 314 810 322 797 l 225 961 q 232 976 215 976 l 264 976 q 282 968 276 976 l 356 833 l 429 968 q 447 976 435 976 l 481 976 q 486 961 496 976 l 399 810 q 371 797 390 797 l 340 797 m 158 0 l 118 0 q 104 17 104 0 l 104 692 q 118 708 104 708 l 158 708 q 174 692 174 708 l 174 636 l 179 636 q 324 708 218 708 l 415 708 q 556 656 504 708 q 607 511 607 603 l 607 17 q 593 0 607 0 l 553 0 q 538 17 538 0 l 538 508 q 504 610 538 574 q 407 646 471 646 l 317 646 q 212 610 250 646 q 174 510 174 575 l 174 17 q 158 0 174 0 z "},"Ŋ":{"ha":721,"x_min":119,"x_max":689,"o":"m 619 15 l 196 743 l 190 743 l 190 17 q 175 0 190 0 l 135 0 q 119 17 119 0 l 119 876 q 135 893 119 893 l 172 893 q 189 885 185 893 l 614 151 l 619 151 l 619 876 q 635 893 619 893 l 675 893 q 689 876 689 893 l 689 1 q 637 -143 689 -90 q 494 -196 585 -196 l 453 -196 q 438 -181 438 -196 l 438 -149 q 453 -133 438 -133 l 482 -133 q 619 8 619 -133 l 619 15 z "},"ŋ":{"ha":704,"x_min":104,"x_max":607,"o":"m 413 -196 l 371 -196 q 356 -181 356 -196 l 356 -149 q 371 -133 356 -133 l 401 -133 q 538 8 538 -133 l 538 508 q 504 610 538 574 q 407 646 471 646 l 317 646 q 212 610 250 646 q 174 510 174 575 l 174 17 q 158 0 174 0 l 118 0 q 104 17 104 0 l 104 692 q 118 708 104 708 l 158 708 q 174 692 174 708 l 174 636 l 179 636 q 324 708 218 708 l 413 708 q 555 656 503 708 q 607 511 607 603 l 607 1 q 555 -143 607 -90 q 413 -196 503 -196 z "},"Ō":{"ha":768,"x_min":104,"x_max":664,"o":"m 524 1044 l 243 1044 q 226 1058 226 1044 l 226 1085 q 243 1100 226 1100 l 524 1100 q 540 1085 540 1100 l 540 1058 q 524 1044 540 1044 m 304 63 l 463 63 q 560 98 526 63 q 594 200 594 133 l 594 693 q 560 795 594 760 q 463 831 526 831 l 304 831 q 207 794 240 831 q 174 693 174 758 l 174 200 q 207 99 174 135 q 304 63 240 63 m 469 0 l 299 0 q 156 53 208 0 q 104 197 104 106 l 104 696 q 156 840 104 788 q 299 893 208 893 l 469 893 q 612 840 560 893 q 664 696 664 788 l 664 197 q 612 53 664 106 q 469 0 560 0 z "},"ō":{"ha":689,"x_min":90,"x_max":600,"o":"m 485 861 l 204 861 q 188 876 188 861 l 188 900 q 204 914 188 914 l 485 914 q 501 900 501 914 l 501 876 q 485 861 501 861 m 404 0 l 285 0 q 142 53 194 0 q 90 197 90 106 l 90 511 q 142 656 90 603 q 285 708 194 708 l 404 708 q 547 656 494 708 q 600 511 600 603 l 600 197 q 547 53 600 106 q 404 0 494 0 m 290 63 l 399 63 q 497 98 463 63 q 531 199 531 133 l 531 510 q 497 610 531 575 q 399 646 463 646 l 290 646 q 193 610 226 646 q 160 510 160 575 l 160 199 q 193 98 160 133 q 290 63 226 63 z "},"Ŏ":{"ha":768,"x_min":104,"x_max":664,"o":"m 246 1147 q 258 1161 246 1161 l 283 1161 q 297 1147 297 1161 l 297 1132 q 316 1049 297 1072 q 381 1025 335 1025 l 386 1025 q 454 1049 435 1025 q 474 1132 474 1074 l 474 1146 q 486 1160 474 1160 l 510 1160 q 522 1146 522 1160 l 522 1131 q 390 982 522 982 l 376 982 q 246 1131 246 982 l 246 1147 m 304 63 l 463 63 q 560 98 526 63 q 594 200 594 133 l 594 693 q 560 795 594 760 q 463 831 526 831 l 304 831 q 207 794 240 831 q 174 693 174 758 l 174 200 q 207 99 174 135 q 304 63 240 63 m 469 0 l 299 0 q 156 53 208 0 q 104 197 104 106 l 104 696 q 156 840 104 788 q 299 893 208 893 l 469 893 q 612 840 560 893 q 664 696 664 788 l 664 197 q 612 53 664 106 q 469 0 560 0 z "},"ŏ":{"ha":689,"x_min":90,"x_max":600,"o":"m 290 63 l 399 63 q 497 98 463 63 q 531 199 531 133 l 531 510 q 497 610 531 575 q 399 646 463 646 l 290 646 q 193 610 226 646 q 160 510 160 575 l 160 199 q 193 98 160 133 q 290 63 226 63 m 404 0 l 285 0 q 142 53 194 0 q 90 197 90 106 l 90 511 q 142 656 90 603 q 285 708 194 708 l 404 708 q 547 656 494 708 q 600 511 600 603 l 600 197 q 547 53 600 106 q 404 0 494 0 m 206 946 l 206 963 q 219 976 206 976 l 244 976 q 257 963 257 976 l 257 947 q 276 865 257 889 q 340 840 294 840 l 347 840 q 415 865 394 840 q 435 947 435 889 l 435 961 q 447 975 435 975 l 471 975 q 483 961 483 975 l 483 946 q 351 797 483 797 l 338 797 q 206 946 206 797 z "},"Ő":{"ha":768,"x_min":104,"x_max":664,"o":"m 383 1161 l 426 1161 q 435 1146 446 1161 l 324 994 q 301 982 313 982 l 279 982 q 274 999 265 982 l 358 1146 q 383 1161 367 1161 m 556 1161 l 599 1161 q 606 1146 617 1161 l 494 994 q 474 982 486 982 l 451 982 q 446 999 436 982 l 531 1146 q 556 1161 539 1161 m 304 63 l 463 63 q 560 98 526 63 q 594 200 594 133 l 594 693 q 560 795 594 760 q 463 831 526 831 l 304 831 q 207 794 240 831 q 174 693 174 758 l 174 200 q 207 99 174 135 q 304 63 240 63 m 469 0 l 299 0 q 156 53 208 0 q 104 197 104 106 l 104 696 q 156 840 104 788 q 299 893 208 893 l 469 893 q 612 840 560 893 q 664 696 664 788 l 664 197 q 612 53 664 106 q 469 0 560 0 z "},"ő":{"ha":689,"x_min":90,"x_max":600,"o":"m 351 976 l 394 976 q 401 961 413 976 l 292 810 q 269 797 281 797 l 247 797 q 242 814 233 797 l 326 961 q 351 976 335 976 m 524 976 l 567 976 q 574 961 585 976 l 463 810 q 442 797 454 797 l 419 797 q 413 814 404 797 l 499 961 q 524 976 506 976 m 404 0 l 285 0 q 142 53 194 0 q 90 197 90 106 l 90 511 q 142 656 90 603 q 285 708 194 708 l 404 708 q 547 656 494 708 q 600 511 600 603 l 600 197 q 547 53 600 106 q 404 0 494 0 m 290 63 l 399 63 q 497 98 463 63 q 531 199 531 133 l 531 510 q 497 610 531 575 q 399 646 463 646 l 290 646 q 193 610 226 646 q 160 510 160 575 l 160 199 q 193 98 160 133 q 290 63 226 63 z "},"Œ":{"ha":1076,"x_min":106,"x_max":972,"o":"m 106 197 l 106 696 q 158 840 106 788 q 301 893 211 893 l 956 893 q 972 878 972 893 l 972 846 q 956 831 972 831 l 599 831 q 585 818 585 831 l 585 499 q 599 486 585 486 l 917 486 q 932 471 932 486 l 932 439 q 917 424 932 424 l 599 424 q 585 411 585 424 l 585 75 q 599 63 585 63 l 956 63 q 972 47 972 63 l 972 15 q 956 0 972 0 l 301 0 q 158 53 211 0 q 106 197 106 106 m 307 63 l 501 63 q 515 75 515 63 l 515 818 q 501 831 515 831 l 307 831 q 210 795 243 831 q 176 693 176 760 l 176 200 q 210 98 176 133 q 307 63 243 63 z "},"œ":{"ha":1128,"x_min":90,"x_max":1039,"o":"m 400 0 l 285 0 q 142 53 194 0 q 90 197 90 106 l 90 511 q 142 656 90 603 q 285 708 194 708 l 397 708 q 567 617 517 708 q 733 708 615 708 l 844 708 q 987 656 935 708 q 1039 511 1039 603 l 1039 335 q 1024 318 1039 318 l 613 318 q 600 306 600 318 l 600 200 q 633 98 600 133 q 731 63 667 63 l 1014 63 q 1029 47 1029 63 l 1029 15 q 1014 0 1029 0 l 732 0 q 561 93 611 0 q 400 0 519 0 m 613 374 l 956 374 q 969 386 969 374 l 969 508 q 936 610 969 574 q 839 646 903 646 l 731 646 q 633 610 667 646 q 600 508 600 575 l 600 386 q 613 374 600 374 m 290 63 l 399 63 q 496 98 463 63 q 529 200 529 133 l 529 508 q 496 610 529 575 q 399 646 463 646 l 290 646 q 193 610 226 646 q 160 508 160 574 l 160 200 q 193 99 160 135 q 290 63 226 63 z "},"Ŕ":{"ha":742,"x_min":118,"x_max":663,"o":"m 429 1161 l 490 1161 q 501 1157 497 1161 q 499 1146 504 1153 l 374 994 q 350 982 364 982 l 322 982 q 317 999 308 982 l 404 1146 q 429 1161 411 1161 m 172 0 l 132 0 q 118 17 118 0 l 118 876 q 132 893 118 893 l 449 893 q 592 840 539 893 q 644 696 644 788 l 644 564 q 605 436 644 486 q 497 372 565 386 l 497 367 l 663 17 q 653 0 671 0 l 610 0 q 585 17 592 0 l 421 367 l 201 367 q 188 354 188 367 l 188 17 q 172 0 188 0 m 201 426 l 442 426 q 540 462 506 426 q 575 563 575 497 l 575 693 q 540 794 575 758 q 442 831 506 831 l 201 831 q 188 818 188 831 l 188 439 q 201 426 188 426 z "},"ŕ":{"ha":435,"x_min":104,"x_max":399,"o":"m 297 976 l 358 976 q 368 972 365 976 q 365 961 371 967 l 242 810 q 218 797 231 797 l 190 797 q 183 814 178 797 l 271 961 q 297 976 278 976 m 158 0 l 118 0 q 104 17 104 0 l 104 692 q 118 708 104 708 l 158 708 q 174 692 174 708 l 174 633 l 179 633 q 233 685 194 663 q 329 708 272 708 l 383 708 q 399 693 399 708 l 399 660 q 383 646 399 644 l 318 646 q 212 604 250 646 q 174 492 174 563 l 174 17 q 158 0 174 0 z "},"Ŗ":{"ha":742,"x_min":118,"x_max":663,"o":"m 407 -60 l 407 -125 q 392 -204 407 -158 l 357 -321 q 344 -331 353 -331 q 335 -318 335 -331 l 335 -60 q 349 -44 335 -44 l 393 -44 q 407 -60 407 -44 m 172 0 l 132 0 q 118 17 118 0 l 118 876 q 132 893 118 893 l 449 893 q 592 840 539 893 q 644 696 644 788 l 644 564 q 605 436 644 486 q 497 372 565 386 l 497 367 l 663 17 q 653 0 671 0 l 610 0 q 585 17 592 0 l 421 367 l 201 367 q 188 354 188 367 l 188 17 q 172 0 188 0 m 201 426 l 442 426 q 540 462 506 426 q 575 563 575 497 l 575 693 q 540 794 575 758 q 442 831 506 831 l 201 831 q 188 818 188 831 l 188 439 q 201 426 188 426 z "},"ŗ":{"ha":435,"x_min":103,"x_max":399,"o":"m 176 -60 l 176 -125 q 161 -204 176 -151 l 126 -321 q 114 -331 121 -331 q 103 -318 103 -331 l 103 -60 q 118 -44 103 -44 l 163 -44 q 176 -60 176 -44 m 158 0 l 118 0 q 104 17 104 0 l 104 692 q 118 708 104 708 l 158 708 q 174 692 174 708 l 174 633 l 179 633 q 233 685 194 663 q 329 708 272 708 l 383 708 q 399 693 399 708 l 399 660 q 383 646 399 644 l 318 646 q 212 604 250 646 q 174 492 174 563 l 174 17 q 158 0 174 0 z "},"Ř":{"ha":742,"x_min":118,"x_max":663,"o":"m 336 982 q 308 994 317 982 l 221 1146 q 228 1161 211 1161 l 260 1161 q 276 1153 274 1161 l 351 1018 l 425 1153 q 443 1161 431 1161 l 475 1161 q 482 1146 492 1161 l 393 994 q 367 982 385 982 l 336 982 m 172 0 l 132 0 q 118 17 118 0 l 118 876 q 132 893 118 893 l 449 893 q 592 840 539 893 q 644 696 644 788 l 644 564 q 605 436 644 486 q 497 372 565 386 l 497 367 l 663 17 q 653 0 671 0 l 610 0 q 585 17 592 0 l 421 367 l 201 367 q 188 354 188 367 l 188 17 q 172 0 188 0 m 201 426 l 442 426 q 540 462 506 426 q 575 563 575 497 l 575 693 q 540 794 575 758 q 442 831 506 831 l 201 831 q 188 818 188 831 l 188 439 q 201 426 188 426 z "},"ř":{"ha":435,"x_min":104,"x_max":399,"o":"m 228 797 q 200 810 208 797 l 111 961 q 118 976 101 976 l 151 976 q 168 968 165 976 l 242 833 l 317 968 q 333 976 319 976 l 367 976 q 374 961 383 976 l 285 810 q 257 797 276 797 l 228 797 m 158 0 l 118 0 q 104 17 104 0 l 104 692 q 118 708 104 708 l 158 708 q 174 692 174 708 l 174 633 l 179 633 q 233 685 194 663 q 329 708 272 708 l 383 708 q 399 693 399 708 l 399 660 q 383 646 399 644 l 318 646 q 212 604 250 646 q 174 492 174 563 l 174 17 q 158 0 174 0 z "},"Ś":{"ha":781,"x_min":113,"x_max":668,"o":"m 113 197 l 113 247 q 128 263 113 263 l 168 263 q 183 247 183 263 l 183 201 q 318 63 183 63 l 463 63 q 597 203 597 63 l 597 261 q 547 357 597 322 q 426 407 497 392 q 284 439 356 422 q 163 500 213 456 q 113 619 113 544 l 113 696 q 165 840 113 788 q 308 893 218 893 l 469 893 q 613 840 560 893 q 665 696 665 788 l 665 657 q 650 642 665 642 l 610 642 q 594 657 594 642 l 594 692 q 460 831 594 831 l 317 831 q 183 689 183 831 l 183 619 q 354 490 183 524 q 497 458 425 476 q 618 393 568 440 q 668 265 668 346 l 668 197 q 615 53 668 106 q 472 0 563 0 l 308 0 q 165 53 218 0 q 113 197 113 106 m 468 1161 l 529 1161 q 539 1157 536 1161 q 536 1146 542 1153 l 413 994 q 389 982 403 982 l 361 982 q 354 999 346 982 l 442 1146 q 468 1161 450 1161 z "},"ś":{"ha":593,"x_min":69,"x_max":524,"o":"m 357 976 l 419 976 q 428 972 426 976 q 426 961 431 967 l 301 810 q 278 797 292 797 l 250 797 q 244 814 236 797 l 332 961 q 357 976 339 976 m 333 0 l 92 0 q 76 15 76 0 l 76 47 q 92 61 76 61 l 326 61 q 451 158 451 61 l 451 192 q 374 310 451 282 l 200 376 q 99 442 129 404 q 69 546 69 479 q 249 708 69 708 l 474 708 q 489 693 489 708 l 489 661 q 474 647 489 647 l 256 647 q 170 622 199 647 q 142 564 142 597 l 142 532 q 163 471 142 493 q 229 433 185 449 l 403 364 q 499 294 475 340 q 524 164 524 247 q 477 40 524 81 q 333 0 431 0 z "},"Ŝ":{"ha":781,"x_min":113,"x_max":668,"o":"m 113 197 l 113 247 q 128 263 113 263 l 168 263 q 183 247 183 263 l 183 201 q 318 63 183 63 l 463 63 q 597 203 597 63 l 597 261 q 547 357 597 322 q 426 407 497 392 q 284 439 356 422 q 163 500 213 456 q 113 619 113 544 l 113 696 q 165 840 113 788 q 308 893 218 893 l 469 893 q 613 840 560 893 q 665 696 665 788 l 665 657 q 650 642 665 642 l 610 642 q 594 657 594 642 l 594 692 q 460 831 594 831 l 317 831 q 183 689 183 831 l 183 619 q 354 490 183 524 q 497 458 425 476 q 618 393 568 440 q 668 265 668 346 l 668 197 q 615 53 668 106 q 472 0 563 0 l 308 0 q 165 53 218 0 q 113 197 113 106 m 515 982 l 482 982 q 464 990 469 982 l 390 1125 l 317 990 q 299 982 311 982 l 267 982 q 260 997 250 982 l 349 1149 q 375 1161 357 1161 l 406 1161 q 433 1149 425 1161 l 521 997 q 515 982 531 982 z "},"ŝ":{"ha":593,"x_min":69,"x_max":524,"o":"m 417 797 l 385 797 q 367 806 372 797 l 293 940 l 219 806 q 201 797 214 797 l 169 797 q 163 813 153 797 l 250 964 q 278 976 258 976 l 308 976 q 335 964 326 976 l 424 813 q 417 797 433 797 m 333 0 l 92 0 q 76 15 76 0 l 76 47 q 92 61 76 61 l 326 61 q 451 158 451 61 l 451 192 q 374 310 451 282 l 200 376 q 99 442 129 404 q 69 546 69 479 q 249 708 69 708 l 474 708 q 489 693 489 708 l 489 661 q 474 647 489 647 l 256 647 q 170 622 199 647 q 142 564 142 597 l 142 532 q 163 471 142 493 q 229 433 185 449 l 403 364 q 499 294 475 340 q 524 164 524 247 q 477 40 524 81 q 333 0 431 0 z "},"Ş":{"ha":781,"x_min":113,"x_max":668,"o":"m 183 689 l 183 619 q 354 490 183 524 q 497 458 425 476 q 618 393 568 440 q 668 265 668 346 l 668 197 q 615 53 668 106 q 472 0 563 0 l 451 0 l 392 -64 l 392 -69 q 500 -154 500 -69 l 500 -171 q 385 -254 500 -254 l 351 -254 q 336 -240 336 -254 l 336 -222 q 351 -208 336 -208 l 379 -208 q 435 -199 419 -208 q 451 -164 451 -189 l 451 -161 q 435 -125 451 -135 q 379 -115 419 -115 l 361 -115 q 329 -97 336 -115 q 339 -61 322 -78 l 393 0 l 308 0 q 165 53 218 0 q 113 197 113 106 l 113 247 q 128 263 113 263 l 168 263 q 183 247 183 263 l 183 201 q 318 63 183 63 l 463 63 q 597 203 597 63 l 597 261 q 547 357 597 322 q 426 407 497 392 q 284 439 356 422 q 163 500 213 456 q 113 619 113 544 l 113 696 q 165 840 113 788 q 308 893 218 893 l 469 893 q 613 840 560 893 q 665 696 665 788 l 665 657 q 650 642 665 642 l 610 642 q 594 657 594 642 l 594 692 q 460 831 594 831 l 317 831 q 183 689 183 831 z "},"ş":{"ha":593,"x_min":69,"x_max":524,"o":"m 293 -69 q 401 -154 401 -69 l 401 -171 q 288 -254 401 -254 l 253 -254 q 238 -240 238 -254 l 238 -222 q 253 -208 238 -208 l 281 -208 q 354 -164 354 -208 l 354 -161 q 338 -125 354 -135 q 281 -115 322 -115 l 263 -115 q 231 -97 238 -115 q 240 -61 224 -78 l 294 0 l 92 0 q 76 15 76 0 l 76 47 q 92 61 76 61 l 326 61 q 451 158 451 61 l 451 192 q 374 310 451 282 l 200 376 q 99 442 129 404 q 69 546 69 479 q 249 708 69 708 l 474 708 q 489 693 489 708 l 489 661 q 474 647 489 647 l 256 647 q 170 622 199 647 q 142 564 142 597 l 142 532 q 163 471 142 493 q 229 433 185 449 l 403 364 q 499 294 475 340 q 524 167 524 247 q 482 45 524 86 q 354 0 440 4 l 293 -64 l 293 -69 z "},"Š":{"ha":781,"x_min":113,"x_max":668,"o":"m 113 197 l 113 247 q 128 263 113 263 l 168 263 q 183 247 183 263 l 183 201 q 318 63 183 63 l 463 63 q 597 203 597 63 l 597 261 q 547 357 597 322 q 426 407 497 392 q 284 439 356 422 q 163 500 213 456 q 113 619 113 544 l 113 696 q 165 840 113 788 q 308 893 218 893 l 469 893 q 613 840 560 893 q 665 696 665 788 l 665 657 q 650 642 665 642 l 610 642 q 594 657 594 642 l 594 692 q 460 831 594 831 l 317 831 q 183 689 183 831 l 183 619 q 354 490 183 524 q 497 458 425 476 q 618 393 568 440 q 668 265 668 346 l 668 197 q 615 53 668 106 q 472 0 563 0 l 308 0 q 165 53 218 0 q 113 197 113 106 m 403 982 l 374 982 q 346 994 354 982 l 257 1146 q 264 1161 247 1161 l 297 1161 q 314 1153 311 1161 l 388 1018 l 463 1153 q 479 1161 465 1161 l 513 1161 q 518 1146 528 1161 l 431 994 q 403 982 422 982 z "},"š":{"ha":593,"x_min":69,"x_max":524,"o":"m 278 797 q 250 810 258 797 l 163 961 q 169 976 153 976 l 201 976 q 219 968 214 976 l 293 833 l 367 968 q 385 976 372 976 l 417 976 q 424 961 433 976 l 335 810 q 308 797 326 797 l 278 797 m 333 0 l 92 0 q 76 15 76 0 l 76 47 q 92 61 76 61 l 326 61 q 451 158 451 61 l 451 192 q 374 310 451 282 l 200 376 q 99 442 129 404 q 69 546 69 479 q 249 708 69 708 l 474 708 q 489 693 489 708 l 489 661 q 474 647 489 647 l 256 647 q 170 622 199 647 q 142 564 142 597 l 142 532 q 163 471 142 493 q 229 433 185 449 l 403 364 q 499 294 475 340 q 524 164 524 247 q 477 40 524 81 q 333 0 431 0 z "},"Ţ":{"ha":583,"x_min":25,"x_max":558,"o":"m 329 -60 l 329 -125 q 314 -204 329 -151 l 278 -321 q 266 -331 276 -331 q 256 -318 256 -331 l 256 -60 q 269 -44 256 -44 l 314 -44 q 329 -60 329 -44 m 313 0 l 272 0 q 257 17 257 0 l 257 818 q 243 831 257 831 l 42 831 q 25 846 25 831 l 25 878 q 42 893 25 893 l 542 893 q 558 878 558 893 l 558 846 q 542 831 558 831 l 340 831 q 326 818 326 831 l 326 17 q 313 0 326 0 z "},"ţ":{"ha":482,"x_min":35,"x_max":425,"o":"m 325 -60 l 325 -125 q 310 -204 325 -151 l 274 -321 q 262 -331 272 -331 q 251 -318 251 -331 l 251 -60 q 267 -44 251 -44 l 311 -44 q 325 -60 325 -44 m 135 646 l 50 646 q 35 660 35 646 l 35 693 q 50 708 35 708 l 135 708 q 147 721 147 708 l 147 833 q 163 850 147 850 l 203 850 q 218 833 218 850 l 218 721 q 231 708 218 708 l 396 708 q 411 693 411 708 l 411 660 q 396 646 411 646 l 231 646 q 218 633 218 646 l 218 196 q 254 97 218 132 q 356 63 290 63 l 410 63 q 425 47 425 63 l 425 15 q 410 0 425 0 l 350 0 q 203 51 258 0 q 147 193 147 103 l 147 633 q 135 646 147 646 z "},"Ť":{"ha":583,"x_min":25,"x_max":558,"o":"m 278 982 q 251 994 260 982 l 163 1146 q 169 1161 153 1161 l 201 1161 q 219 1153 214 1161 l 293 1018 l 368 1153 q 385 1161 371 1161 l 418 1161 q 424 1146 433 1161 l 336 994 q 308 982 328 982 l 278 982 m 313 0 l 272 0 q 257 17 257 0 l 257 818 q 243 831 257 831 l 42 831 q 25 846 25 831 l 25 878 q 42 893 25 893 l 542 893 q 558 878 558 893 l 558 846 q 542 831 558 831 l 340 831 q 326 818 326 831 l 326 17 q 313 0 326 0 z "},"ť":{"ha":550,"x_min":35,"x_max":539,"o":"m 539 878 l 539 782 q 489 572 539 754 q 475 563 485 563 q 465 575 465 563 l 465 878 q 481 893 465 893 l 524 893 q 539 878 539 893 m 135 646 l 50 646 q 35 660 35 646 l 35 693 q 50 708 35 708 l 135 708 q 147 721 147 708 l 147 833 q 163 850 147 850 l 203 850 q 218 833 218 850 l 218 721 q 231 708 218 708 l 396 708 q 411 693 411 708 l 411 660 q 396 646 411 646 l 231 646 q 218 633 218 646 l 218 196 q 254 97 218 132 q 356 63 290 63 l 410 63 q 425 47 425 63 l 425 15 q 410 0 425 0 l 350 0 q 203 51 258 0 q 147 193 147 103 l 147 633 q 135 646 147 646 z "},"Ŧ":{"ha":696,"x_min":31,"x_max":568,"o":"m 319 0 l 279 0 q 264 17 264 0 l 264 436 q 250 449 264 449 l 119 449 q 103 463 103 449 l 103 490 q 119 506 103 506 l 250 506 q 264 518 264 506 l 264 818 q 250 831 264 831 l 46 831 q 31 846 31 831 l 31 878 q 46 893 31 893 l 551 893 q 568 878 568 893 l 568 846 q 551 831 568 831 l 347 831 q 333 818 333 831 l 333 518 q 347 506 333 506 l 490 506 q 507 490 507 506 l 507 463 q 490 449 507 449 l 347 449 q 333 436 333 449 l 333 17 q 319 0 333 0 z "},"ŧ":{"ha":486,"x_min":35,"x_max":429,"o":"m 413 0 l 351 0 q 204 51 260 0 q 149 193 149 103 l 149 363 q 136 375 149 375 l 50 375 q 35 390 35 375 l 35 418 q 50 433 35 433 l 136 433 q 149 446 149 433 l 149 633 q 136 646 149 646 l 50 646 q 35 660 35 646 l 35 693 q 50 708 35 708 l 136 708 q 149 721 149 708 l 149 833 q 164 850 149 850 l 204 850 q 219 833 219 850 l 219 721 q 232 708 219 708 l 399 708 q 415 693 415 708 l 415 660 q 399 646 415 646 l 232 646 q 219 633 219 646 l 219 446 q 232 433 219 433 l 399 433 q 415 418 415 433 l 415 390 q 399 375 415 375 l 232 375 q 219 363 219 375 l 219 196 q 256 97 219 132 q 357 63 292 63 l 413 63 q 429 47 429 63 l 429 15 q 413 0 429 0 z "},"Ũ":{"ha":767,"x_min":111,"x_max":656,"o":"m 400 1049 q 392 1027 400 1049 q 367 990 385 1006 q 310 975 349 975 q 253 1001 271 975 q 235 1083 235 1026 l 235 1138 q 247 1150 235 1150 l 267 1150 q 278 1138 278 1150 l 278 1092 q 286 1034 278 1050 q 315 1018 294 1018 q 344 1031 336 1018 q 369 1085 353 1043 q 402 1141 386 1128 q 457 1154 418 1154 q 514 1128 496 1154 q 532 1047 532 1103 l 532 990 q 519 976 532 976 l 500 976 q 489 990 489 976 l 489 1038 q 481 1097 489 1081 q 451 1113 472 1113 q 422 1102 429 1113 q 400 1049 415 1092 m 601 893 l 640 893 q 656 878 656 893 l 656 197 q 603 53 656 106 q 461 0 551 0 l 306 0 q 163 53 215 0 q 111 197 111 106 l 111 876 q 125 893 111 893 l 165 893 q 181 876 181 893 l 181 200 q 214 99 181 135 q 311 63 247 63 l 454 63 q 552 98 518 63 q 586 200 586 133 l 586 876 q 601 893 586 893 z "},"ũ":{"ha":704,"x_min":97,"x_max":600,"o":"m 197 908 l 197 963 q 210 975 197 975 l 229 975 q 240 963 240 975 l 240 917 q 249 859 240 875 q 278 843 257 843 q 308 856 299 843 q 333 910 317 868 q 365 967 349 953 q 419 981 381 981 q 476 955 458 981 q 494 872 494 929 l 494 815 q 482 801 494 801 l 463 801 q 451 815 451 801 l 451 863 q 443 922 451 906 q 414 938 435 938 q 385 927 393 938 q 363 874 378 917 q 329 815 347 831 q 272 800 311 800 q 215 826 233 800 q 197 908 197 851 m 381 0 l 289 0 q 149 53 200 0 q 97 197 97 106 l 97 692 q 111 708 97 708 l 151 708 q 167 692 167 708 l 167 200 q 200 99 167 135 q 297 63 233 63 l 388 63 q 492 98 454 63 q 531 199 531 133 l 531 692 q 546 708 531 708 l 586 708 q 600 692 600 708 l 600 17 q 586 0 600 0 l 546 0 q 531 17 531 0 l 531 72 l 525 72 q 381 0 489 0 z "},"Ū":{"ha":767,"x_min":111,"x_max":656,"o":"m 524 1044 l 243 1044 q 226 1058 226 1044 l 226 1085 q 243 1100 226 1100 l 524 1100 q 540 1085 540 1100 l 540 1058 q 524 1044 540 1044 m 601 893 l 640 893 q 656 878 656 893 l 656 197 q 603 53 656 106 q 461 0 551 0 l 306 0 q 163 53 215 0 q 111 197 111 106 l 111 876 q 125 893 111 893 l 165 893 q 181 876 181 893 l 181 200 q 214 99 181 135 q 311 63 247 63 l 454 63 q 552 98 518 63 q 586 200 586 133 l 586 876 q 601 893 586 893 z "},"ū":{"ha":704,"x_min":97,"x_max":600,"o":"m 489 861 l 208 861 q 192 876 192 861 l 192 900 q 208 914 192 914 l 489 914 q 506 900 506 914 l 506 876 q 489 861 506 861 m 381 0 l 289 0 q 149 53 200 0 q 97 197 97 106 l 97 692 q 111 708 97 708 l 151 708 q 167 692 167 708 l 167 200 q 200 99 167 135 q 297 63 233 63 l 388 63 q 492 98 454 63 q 531 199 531 133 l 531 692 q 546 708 531 708 l 586 708 q 600 692 600 708 l 600 17 q 586 0 600 0 l 546 0 q 531 17 531 0 l 531 72 l 525 72 q 381 0 489 0 z "},"Ŭ":{"ha":767,"x_min":111,"x_max":656,"o":"m 246 1147 q 258 1161 246 1161 l 285 1161 q 297 1147 297 1161 l 297 1132 q 316 1049 297 1072 q 381 1025 335 1025 l 386 1025 q 454 1049 435 1025 q 474 1132 474 1074 l 474 1146 q 486 1160 474 1160 l 510 1160 q 522 1146 522 1160 l 522 1131 q 390 982 522 982 l 376 982 q 246 1131 246 982 l 246 1147 m 601 893 l 640 893 q 656 878 656 893 l 656 197 q 603 53 656 106 q 461 0 551 0 l 306 0 q 163 53 215 0 q 111 197 111 106 l 111 876 q 125 893 111 893 l 165 893 q 181 876 181 893 l 181 200 q 214 99 181 135 q 311 63 247 63 l 454 63 q 552 98 518 63 q 586 200 586 133 l 586 876 q 601 893 586 893 z "},"ŭ":{"ha":704,"x_min":97,"x_max":600,"o":"m 381 0 l 289 0 q 149 53 200 0 q 97 197 97 106 l 97 692 q 111 708 97 708 l 151 708 q 167 692 167 708 l 167 200 q 200 99 167 135 q 297 63 233 63 l 388 63 q 492 98 454 63 q 531 199 531 133 l 531 692 q 546 708 531 708 l 586 708 q 600 692 600 708 l 600 17 q 586 0 600 0 l 546 0 q 531 17 531 0 l 531 72 l 525 72 q 381 0 489 0 m 211 933 l 211 951 q 224 965 211 965 l 250 965 q 263 951 263 965 l 263 935 q 281 853 263 876 q 346 829 300 829 l 353 829 q 419 853 400 829 q 439 935 439 876 l 439 950 q 451 964 439 964 l 475 964 q 488 950 488 964 l 488 933 q 356 786 488 786 l 342 786 q 211 933 211 786 z "},"Ů":{"ha":767,"x_min":111,"x_max":656,"o":"m 396 965 l 368 965 q 269 1067 269 965 l 269 1110 q 368 1211 269 1211 l 396 1211 q 471 1185 444 1211 q 497 1110 497 1158 l 497 1067 q 471 992 497 1018 q 396 965 444 965 m 374 1003 l 390 1003 q 454 1074 454 1003 l 454 1103 q 390 1172 454 1172 l 375 1172 q 311 1103 311 1172 l 311 1074 q 374 1003 311 1003 m 601 893 l 640 893 q 656 878 656 893 l 656 197 q 603 53 656 106 q 461 0 551 0 l 306 0 q 163 53 215 0 q 111 197 111 106 l 111 876 q 125 893 111 893 l 165 893 q 181 876 181 893 l 181 200 q 214 99 181 135 q 311 63 247 63 l 454 63 q 552 98 518 63 q 586 200 586 133 l 586 876 q 601 893 586 893 z "},"ů":{"ha":704,"x_min":97,"x_max":600,"o":"m 381 0 l 289 0 q 149 53 200 0 q 97 197 97 106 l 97 692 q 111 708 97 708 l 151 708 q 167 692 167 708 l 167 200 q 200 99 167 135 q 297 63 233 63 l 388 63 q 492 98 454 63 q 531 199 531 133 l 531 692 q 546 708 531 708 l 586 708 q 600 692 600 708 l 600 17 q 586 0 600 0 l 546 0 q 531 17 531 0 l 531 72 l 525 72 q 381 0 489 0 m 253 918 l 253 865 q 267 819 253 832 q 315 806 281 806 l 335 806 q 384 819 369 806 q 399 865 399 832 l 399 918 q 384 964 399 951 q 335 976 369 976 l 315 976 q 267 964 281 976 q 253 918 253 951 m 213 860 l 213 925 q 308 1014 213 1014 l 342 1014 q 439 925 439 1014 l 439 860 q 342 769 439 769 l 308 769 q 213 860 213 769 z "},"Ű":{"ha":767,"x_min":111,"x_max":656,"o":"m 379 1161 l 422 1161 q 429 1146 440 1161 l 318 994 q 296 982 310 982 l 274 982 q 268 999 260 982 l 353 1146 q 379 1161 361 1161 m 550 1161 l 593 1161 q 600 1146 613 1161 l 490 994 q 468 982 481 982 l 446 982 q 440 999 432 982 l 525 1146 q 550 1161 533 1161 m 601 893 l 640 893 q 656 878 656 893 l 656 197 q 603 53 656 106 q 461 0 551 0 l 306 0 q 163 53 215 0 q 111 197 111 106 l 111 876 q 125 893 111 893 l 165 893 q 181 876 181 893 l 181 200 q 214 99 181 135 q 311 63 247 63 l 454 63 q 552 98 518 63 q 586 200 586 133 l 586 876 q 601 893 586 893 z "},"ű":{"ha":704,"x_min":97,"x_max":600,"o":"m 351 976 l 394 976 q 401 961 414 976 l 292 810 q 269 797 281 797 l 247 797 q 242 814 233 797 l 326 961 q 351 976 335 976 m 524 976 l 567 976 q 574 961 585 976 l 464 810 q 442 797 453 797 l 419 797 q 413 814 406 797 l 499 961 q 524 976 507 976 m 381 0 l 289 0 q 149 53 200 0 q 97 197 97 106 l 97 692 q 111 708 97 708 l 151 708 q 167 692 167 708 l 167 200 q 200 99 167 135 q 297 63 233 63 l 388 63 q 492 98 454 63 q 531 199 531 133 l 531 692 q 546 708 531 708 l 586 708 q 600 692 600 708 l 600 17 q 586 0 600 0 l 546 0 q 531 17 531 0 l 531 72 l 525 72 q 381 0 489 0 z "},"Ų":{"ha":767,"x_min":111,"x_max":656,"o":"m 601 893 l 640 893 q 656 878 656 893 l 656 197 q 603 53 656 106 q 461 0 551 0 l 435 0 l 361 -97 l 415 -97 q 447 -101 439 -97 q 454 -117 454 -104 q 424 -138 454 -129 q 356 -147 393 -147 q 309 -130 318 -147 q 317 -92 300 -112 l 386 0 l 306 0 q 163 53 215 0 q 111 197 111 106 l 111 876 q 125 893 111 893 l 165 893 q 181 876 181 893 l 181 200 q 214 99 181 135 q 311 63 247 63 l 454 63 q 552 98 518 63 q 586 200 586 133 l 586 876 q 601 893 586 893 z "},"ų":{"ha":699,"x_min":97,"x_max":600,"o":"m 489 -100 l 543 -99 q 579 -114 582 -97 q 547 -142 578 -129 q 481 -156 517 -156 q 438 -131 446 -156 q 449 -87 431 -107 l 531 24 l 531 72 l 525 72 q 381 0 489 0 l 289 0 q 149 53 200 0 q 97 197 97 106 l 97 692 q 111 708 97 708 l 151 708 q 167 692 167 708 l 167 200 q 200 99 167 135 q 297 63 233 63 l 388 63 q 492 98 454 63 q 531 199 531 133 l 531 692 q 546 708 531 708 l 586 708 q 600 692 600 708 l 600 17 q 586 0 600 0 l 560 0 q 531 -41 550 -15 q 489 -100 513 -67 z "},"Ŵ":{"ha":1104,"x_min":44,"x_max":1058,"o":"m 676 982 l 644 982 q 626 990 629 982 l 553 1125 l 478 990 q 461 982 475 982 l 428 982 q 422 997 413 982 l 510 1149 q 538 1161 518 1161 l 568 1161 q 594 1149 586 1161 l 683 997 q 676 982 693 982 m 324 0 l 254 0 q 235 17 239 0 l 44 876 q 58 893 40 893 l 104 893 q 122 876 119 893 l 288 79 l 294 79 l 506 878 q 524 893 508 893 l 576 893 q 596 878 593 893 l 808 79 l 815 79 l 979 876 q 999 893 982 893 l 1046 893 q 1058 876 1063 893 l 868 17 q 850 0 865 0 l 779 0 q 760 17 764 0 l 554 800 l 549 800 l 342 17 q 324 0 338 0 z "},"ŵ":{"ha":947,"x_min":29,"x_max":918,"o":"m 597 797 l 564 797 q 547 806 550 797 l 474 940 l 399 806 q 382 797 396 797 l 349 797 q 343 813 333 797 l 431 964 q 458 976 439 976 l 489 976 q 515 964 507 976 l 604 813 q 597 797 614 797 m 297 0 l 242 0 q 224 17 228 0 l 29 692 q 40 708 25 708 l 85 708 q 103 692 100 708 l 267 88 l 274 88 l 435 692 q 454 708 438 708 l 494 708 q 514 692 511 708 l 672 88 l 679 88 l 844 692 q 863 708 849 708 l 907 708 q 918 692 924 708 l 725 17 q 706 0 721 0 l 650 0 q 631 17 635 0 l 476 603 l 469 603 l 317 17 q 297 0 313 0 z "},"Ŷ":{"ha":685,"x_min":38,"x_max":647,"o":"m 465 982 l 432 982 q 415 990 418 982 l 342 1125 l 267 990 q 250 982 264 982 l 217 982 q 210 997 200 982 l 299 1149 q 326 1161 307 1161 l 356 1161 q 383 1149 375 1161 l 472 997 q 465 982 482 982 m 363 0 l 322 0 q 307 17 307 0 l 307 338 l 38 876 q 47 893 29 893 l 97 893 q 117 876 110 893 l 339 422 l 346 422 l 567 876 q 586 893 574 893 l 638 893 q 647 876 653 893 l 376 338 l 376 17 q 363 0 376 0 z "},"ŷ":{"ha":638,"x_min":40,"x_max":599,"o":"m 454 797 l 421 797 q 404 806 407 797 l 329 940 l 256 806 q 238 797 253 797 l 206 797 q 199 813 189 797 l 288 964 q 314 976 296 976 l 344 976 q 372 964 364 976 l 460 813 q 454 797 469 797 m 138 -211 l 86 -211 q 71 -196 71 -211 l 71 -162 q 86 -147 71 -147 l 124 -147 q 194 -135 165 -147 q 246 -92 224 -124 q 275 -42 268 -60 q 307 38 294 1 l 281 38 q 261 54 265 38 l 40 692 q 51 708 35 708 l 94 708 q 113 692 108 708 l 317 96 l 322 96 l 526 692 q 544 708 531 708 l 586 708 q 599 692 603 708 q 340 -61 350 -36 q 301 -129 329 -86 q 138 -211 249 -211 z "},"Ÿ":{"ha":685,"x_min":38,"x_max":647,"o":"m 194 999 l 194 1146 q 210 1161 194 1161 l 249 1161 q 263 1146 263 1161 l 263 999 q 249 982 263 982 l 210 982 q 194 999 194 982 m 421 999 l 421 1146 q 436 1161 421 1161 l 475 1161 q 489 1146 489 1161 l 489 999 q 475 982 489 982 l 436 982 q 421 999 421 982 m 363 0 l 322 0 q 307 17 307 0 l 307 338 l 38 876 q 47 893 29 893 l 97 893 q 117 876 110 893 l 339 422 l 346 422 l 567 876 q 586 893 574 893 l 638 893 q 647 876 653 893 l 376 338 l 376 17 q 363 0 376 0 z "},"Ź":{"ha":669,"x_min":58,"x_max":611,"o":"m 442 1161 l 504 1161 q 511 1146 521 1161 l 386 994 q 363 982 375 982 l 335 982 q 329 999 321 982 l 417 1146 q 442 1161 425 1161 m 58 15 l 58 51 q 64 75 58 68 l 518 822 l 518 828 l 90 828 q 74 843 74 828 l 74 878 q 90 893 74 893 l 581 893 q 597 878 597 893 l 597 832 q 590 808 597 819 l 140 71 l 140 65 l 594 65 q 611 51 611 65 l 611 15 q 594 0 611 0 l 74 0 q 58 15 58 0 z "},"ź":{"ha":563,"x_min":47,"x_max":515,"o":"m 396 976 l 457 976 q 467 972 464 976 q 465 961 471 967 l 340 810 q 317 797 331 797 l 289 797 q 282 814 275 797 l 371 961 q 396 976 376 976 m 47 15 l 47 35 q 56 61 47 50 l 419 640 l 419 646 l 72 646 q 57 661 57 646 l 57 693 q 72 708 57 708 l 489 708 q 506 693 506 708 l 506 663 q 499 639 506 650 l 140 68 l 140 63 l 499 63 q 515 47 515 63 l 515 15 q 499 0 515 0 l 64 0 q 47 15 47 0 z "},"Ż":{"ha":669,"x_min":58,"x_max":611,"o":"m 328 1004 l 328 1140 q 343 1157 328 1157 l 383 1157 q 397 1142 397 1157 l 397 1004 q 383 989 397 989 l 343 989 q 328 1004 328 989 m 58 15 l 58 51 q 64 75 58 68 l 518 822 l 518 828 l 90 828 q 74 843 74 828 l 74 878 q 90 893 74 893 l 581 893 q 597 878 597 893 l 597 832 q 590 808 597 819 l 140 71 l 140 65 l 594 65 q 611 51 611 65 l 611 15 q 594 0 611 0 l 74 0 q 58 15 58 0 z "},"ż":{"ha":563,"x_min":47,"x_max":515,"o":"m 272 818 l 272 956 q 288 971 272 971 l 328 971 q 343 956 343 971 l 343 818 q 328 803 343 803 l 288 803 q 272 818 272 803 m 47 15 l 47 35 q 56 61 47 50 l 419 640 l 419 646 l 72 646 q 57 661 57 646 l 57 693 q 72 708 57 708 l 489 708 q 506 693 506 708 l 506 663 q 499 639 506 650 l 140 68 l 140 63 l 499 63 q 515 47 515 63 l 515 15 q 499 0 515 0 l 64 0 q 47 15 47 0 z "},"Ž":{"ha":669,"x_min":58,"x_max":611,"o":"m 342 982 q 315 994 324 982 l 226 1146 q 233 1161 217 1161 l 267 1161 q 283 1153 281 1161 l 357 1018 l 432 1153 q 449 1161 435 1161 l 482 1161 q 488 1146 497 1161 l 400 994 q 372 982 392 982 l 342 982 m 58 15 l 58 51 q 64 75 58 68 l 518 822 l 518 828 l 90 828 q 74 843 74 828 l 74 878 q 90 893 74 893 l 581 893 q 597 878 597 893 l 597 832 q 590 808 597 819 l 140 71 l 140 65 l 594 65 q 611 51 611 65 l 611 15 q 594 0 611 0 l 74 0 q 58 15 58 0 z "},"ž":{"ha":563,"x_min":47,"x_max":515,"o":"m 296 797 q 268 810 276 797 l 179 961 q 186 976 169 976 l 219 976 q 236 968 233 976 l 310 833 l 385 968 q 401 976 388 976 l 435 976 q 442 961 451 976 l 353 810 q 325 797 344 797 l 296 797 m 47 15 l 47 35 q 56 61 47 50 l 419 640 l 419 646 l 72 646 q 57 661 57 646 l 57 693 q 72 708 57 708 l 489 708 q 506 693 506 708 l 506 663 q 499 639 506 650 l 140 68 l 140 63 l 499 63 q 515 47 515 63 l 515 15 q 499 0 515 0 l 64 0 q 47 15 47 0 z "},"ƒ":{"ha":686,"x_min":25,"x_max":661,"o":"m 83 -185 l 43 -185 q 25 -169 25 -185 l 25 -137 q 43 -122 25 -122 l 86 -122 q 226 13 197 -122 l 325 478 q 315 493 328 493 l 208 493 q 190 508 190 493 l 190 539 q 207 554 190 554 l 328 554 q 344 565 342 554 l 390 782 q 606 976 433 976 l 643 976 q 661 961 661 976 l 661 929 q 644 914 661 914 l 600 914 q 460 779 489 914 l 414 565 q 425 554 411 554 l 558 554 q 576 539 576 554 l 576 508 q 563 493 576 493 l 411 493 q 396 481 400 493 l 294 6 q 83 -185 254 -185 z "},"Ǽ":{"ha":1074,"x_min":3,"x_max":983,"o":"m 674 1161 l 736 1161 q 746 1157 743 1161 q 743 1146 749 1153 l 618 994 q 596 982 610 982 l 568 982 q 561 999 553 982 l 649 1146 q 674 1161 656 1161 m 58 0 l 11 0 q 3 17 -3 0 l 474 876 q 499 893 483 893 l 968 893 q 983 878 983 893 l 983 846 q 968 831 983 831 l 607 831 q 594 818 594 831 l 594 499 q 607 486 594 486 l 929 486 q 944 471 944 486 l 944 439 q 929 424 944 424 l 607 424 q 594 411 594 424 l 594 75 q 607 63 594 63 l 968 63 q 983 47 983 63 l 983 15 q 968 0 983 0 l 539 0 q 524 17 524 0 l 524 239 l 204 239 l 81 17 q 58 0 71 0 m 524 304 l 524 818 l 518 818 l 236 304 l 524 304 z "},"ǽ":{"ha":1104,"x_min":89,"x_max":1015,"o":"m 653 976 l 715 976 q 724 972 722 976 q 722 961 726 967 l 597 810 q 574 797 589 797 l 546 797 q 540 814 532 797 l 628 961 q 653 976 636 976 m 590 275 l 590 200 q 624 98 590 133 q 721 63 657 63 l 1000 63 q 1015 47 1015 63 l 1015 15 q 1000 0 1015 0 l 715 0 q 547 92 590 0 q 369 0 503 0 l 283 0 q 142 52 194 0 q 89 194 89 104 l 89 229 q 141 372 89 319 q 283 424 193 424 l 508 424 q 519 435 519 424 l 519 510 q 485 610 519 575 q 389 646 451 646 l 175 646 q 158 661 158 646 l 158 693 q 175 708 158 708 l 388 708 q 556 617 514 708 q 726 708 601 708 l 821 708 q 963 656 911 708 q 1015 511 1015 603 l 1015 304 q 1000 288 1015 288 l 603 288 q 590 275 590 288 m 951 354 l 951 508 q 917 610 951 575 q 819 646 883 646 l 731 646 q 628 613 665 646 q 590 514 590 579 l 590 354 q 603 343 590 343 l 938 343 q 951 354 951 343 m 521 197 l 521 354 q 507 367 521 367 l 290 367 q 157 229 157 367 l 157 199 q 290 61 157 61 l 378 61 q 483 96 444 61 q 521 197 521 131 z "},"Ǿ":{"ha":775,"x_min":68,"x_max":707,"o":"m 669 696 l 669 197 q 617 53 669 106 q 475 0 564 0 l 301 0 q 147 67 199 0 l 110 15 q 86 11 99 3 l 69 22 q 68 46 58 32 l 119 118 q 107 197 107 153 l 107 696 q 159 840 107 788 q 301 893 211 893 l 475 893 q 629 826 578 893 l 665 876 q 689 882 675 890 l 706 871 q 707 847 717 861 l 657 776 q 669 696 669 740 m 176 693 l 176 196 l 585 765 q 468 831 557 831 l 308 831 q 210 795 244 831 q 176 693 176 760 m 599 200 l 599 696 l 190 128 q 308 63 221 63 l 468 63 q 565 98 532 63 q 599 200 599 133 m 389 982 l 361 982 q 354 999 346 982 l 442 1146 q 467 1161 450 1161 l 529 1161 q 539 1157 536 1161 q 536 1146 542 1153 l 413 994 q 389 982 403 982 z "},"ǿ":{"ha":724,"x_min":42,"x_max":682,"o":"m 617 511 l 617 197 q 564 53 617 106 q 421 0 511 0 l 303 0 q 133 88 183 0 l 81 35 q 58 35 68 24 l 43 50 q 42 72 32 58 l 113 143 q 107 197 107 165 l 107 511 q 160 656 107 603 q 303 708 213 708 l 421 708 q 590 621 540 708 l 643 674 q 665 675 656 686 l 682 658 q 681 636 692 649 l 611 567 q 617 511 617 543 m 176 508 l 176 207 l 538 568 q 415 646 511 646 l 308 646 q 210 610 244 646 q 176 508 176 575 m 546 200 l 546 501 l 186 140 q 308 63 213 63 l 415 63 q 513 98 479 63 q 546 200 546 133 m 379 797 l 351 797 q 346 814 338 797 l 433 961 q 458 976 442 976 l 521 976 q 530 972 528 976 q 528 961 532 967 l 403 810 q 379 797 394 797 z "},"Ș":{"ha":781,"x_min":113,"x_max":668,"o":"m 113 197 l 113 247 q 128 263 113 263 l 168 263 q 183 247 183 263 l 183 201 q 318 63 183 63 l 463 63 q 597 203 597 63 l 597 261 q 547 357 597 322 q 426 407 497 392 q 284 439 356 422 q 163 500 213 456 q 113 619 113 544 l 113 696 q 165 840 113 788 q 308 893 218 893 l 469 893 q 613 840 560 893 q 665 696 665 788 l 665 657 q 650 642 665 642 l 610 642 q 594 657 594 642 l 594 692 q 460 831 594 831 l 317 831 q 183 689 183 831 l 183 619 q 354 490 183 524 q 497 458 425 476 q 618 393 568 440 q 668 265 668 346 l 668 197 q 615 53 668 106 q 472 0 563 0 l 308 0 q 165 53 218 0 q 113 197 113 106 m 442 -60 l 442 -125 q 426 -204 442 -151 l 390 -321 q 379 -331 386 -331 q 368 -318 368 -331 l 368 -60 q 382 -44 368 -44 l 426 -44 q 442 -60 442 -44 z "},"ș":{"ha":593,"x_min":69,"x_max":524,"o":"m 350 -60 l 350 -125 q 335 -204 350 -151 l 299 -321 q 287 -331 297 -331 q 276 -318 276 -331 l 276 -60 q 292 -44 276 -44 l 336 -44 q 350 -60 350 -44 m 333 0 l 92 0 q 76 15 76 0 l 76 47 q 92 61 76 61 l 326 61 q 451 158 451 61 l 451 192 q 374 310 451 282 l 200 376 q 99 442 129 404 q 69 546 69 479 q 249 708 69 708 l 474 708 q 489 693 489 708 l 489 661 q 474 647 489 647 l 256 647 q 170 622 199 647 q 142 564 142 597 l 142 532 q 163 471 142 493 q 229 433 185 449 l 403 364 q 499 294 475 340 q 524 164 524 247 q 477 40 524 81 q 333 0 431 0 z "},"ˆ":{"ha":453,"x_min":94,"x_max":357,"o":"m 350 797 l 317 797 q 300 806 303 797 l 226 940 l 151 806 q 135 797 149 797 l 101 797 q 94 813 85 797 l 183 964 q 211 976 192 976 l 240 976 q 268 964 260 976 l 357 813 q 350 797 367 797 z "},"ˇ":{"ha":453,"x_min":94,"x_max":357,"o":"m 211 797 q 183 810 192 797 l 94 961 q 101 976 85 976 l 135 976 q 151 968 149 976 l 226 833 l 300 968 q 317 976 303 976 l 350 976 q 357 961 367 976 l 268 810 q 240 797 260 797 l 211 797 z "},"ˉ":{"ha":497,"x_min":92,"x_max":406,"o":"m 389 861 l 108 861 q 92 876 92 861 l 92 900 q 108 914 92 914 l 389 914 q 406 900 406 914 l 406 876 q 389 861 406 861 z "},"˘":{"ha":461,"x_min":92,"x_max":369,"o":"m 92 946 l 92 963 q 106 976 92 976 l 131 976 q 143 963 143 976 l 143 947 q 162 865 143 889 q 226 840 181 840 l 233 840 q 301 865 281 840 q 321 947 321 889 l 321 961 q 333 975 321 975 l 357 975 q 369 961 369 975 l 369 946 q 238 797 369 797 l 222 797 q 92 946 92 797 z "},"˙":{"ha":254,"x_min":92,"x_max":163,"o":"m 92 818 l 92 956 q 107 971 92 971 l 147 971 q 163 956 163 971 l 163 818 q 147 803 163 803 l 107 803 q 92 818 92 803 z "},"˚":{"ha":413,"x_min":72,"x_max":297,"o":"m 111 918 l 111 865 q 125 819 111 832 q 174 806 139 806 l 193 806 q 242 819 228 806 q 257 865 257 832 l 257 918 q 242 964 257 951 q 193 976 228 976 l 174 976 q 125 964 139 976 q 111 918 111 951 m 72 860 l 72 925 q 167 1014 72 1014 l 200 1014 q 297 925 297 1014 l 297 860 q 200 769 297 769 l 167 769 q 72 860 72 769 z "},"˛":{"ha":338,"x_min":97,"x_max":238,"o":"m 147 -100 l 201 -99 q 238 -114 240 -97 q 207 -142 238 -129 q 141 -156 176 -156 q 98 -131 106 -156 q 107 -87 90 -107 l 193 28 l 236 24 q 147 -100 192 -39 z "},"˜":{"ha":513,"x_min":92,"x_max":389,"o":"m 92 908 l 92 963 q 104 975 92 975 l 124 975 q 135 963 135 975 l 135 917 q 143 859 135 875 q 172 843 151 843 q 201 856 193 843 q 226 910 210 868 q 259 967 243 953 q 314 981 275 981 q 371 955 353 981 q 389 872 389 929 l 389 815 q 376 801 389 801 l 357 801 q 346 815 346 801 l 346 863 q 338 922 346 906 q 306 938 329 938 q 272 914 282 938 q 256 870 269 910 q 224 815 242 831 q 167 800 206 800 q 110 826 128 800 q 92 908 92 851 z "},"˝":{"ha":524,"x_min":96,"x_max":428,"o":"m 207 976 l 249 976 q 257 961 268 976 l 146 810 q 124 797 136 797 l 103 797 q 96 814 88 797 l 181 961 q 207 976 189 976 m 378 976 l 421 976 q 428 961 439 976 l 317 810 q 296 797 308 797 l 274 797 q 267 814 261 797 l 353 961 q 378 976 361 976 z "},"Μ":{"ha":732,"x_min":114,"x_max":618,"o":"m 185 -168 q 169 -185 185 -185 l 129 -185 q 114 -168 114 -185 l 114 692 q 129 708 114 708 l 169 708 q 185 692 185 708 l 185 200 q 218 98 185 133 q 315 63 251 63 l 406 63 q 510 98 472 63 q 549 199 549 133 l 549 692 q 564 708 549 708 l 603 708 q 618 692 618 708 l 618 17 q 603 0 618 0 l 564 0 q 549 17 549 0 l 549 72 l 543 72 q 397 0 504 0 q 359 -1 389 0 q 317 -1 329 -1 q 281 2 306 0 q 244 10 257 4 q 185 50 204 26 l 185 -168 z "},"Π":{"ha":840,"x_min":53,"x_max":788,"o":"m 258 0 l 218 0 q 204 17 204 0 l 204 817 q 190 828 204 828 l 69 828 q 53 843 53 828 l 53 878 q 69 893 53 893 l 772 893 q 788 878 788 893 l 788 843 q 772 828 788 828 l 650 828 q 638 815 638 828 l 638 17 q 622 0 638 0 l 582 0 q 567 17 567 0 l 567 815 q 554 828 567 828 l 288 828 q 274 815 274 828 l 274 17 q 258 0 274 0 z "},"Σ":{"ha":668,"x_min":85,"x_max":588,"o":"m 85 847 l 85 878 q 100 893 85 893 l 571 893 q 588 878 588 893 l 588 842 q 571 826 588 826 l 168 826 l 168 821 l 393 468 q 393 421 407 444 l 167 71 l 167 65 l 572 65 q 588 49 588 65 l 588 13 q 572 0 588 0 l 100 0 q 85 15 85 0 l 85 44 q 92 71 85 60 l 325 443 l 325 449 l 92 821 q 85 847 85 829 z "},"ँ":{"ha":0,"x_min":-376,"x_max":63,"o":"m -104 954 l -211 954 q -376 1124 -376 954 l -376 1133 q -360 1153 -376 1153 l -329 1153 q -314 1133 -314 1153 l -314 1125 q -289 1038 -314 1064 q -204 1013 -264 1013 l -110 1013 q -26 1038 -50 1013 q -1 1125 -1 1064 l -1 1133 q 17 1153 -1 1153 l 44 1153 q 63 1133 63 1153 l 63 1125 q -104 954 63 954 m -122 1217 l -122 1172 q -137 1156 -122 1156 l -175 1156 q -190 1172 -190 1156 l -190 1217 q -175 1233 -190 1233 l -137 1233 q -122 1217 -122 1233 z "},"ं":{"ha":0,"x_min":-203,"x_max":-128,"o":"m -128 1082 l -128 1031 q -143 1014 -128 1014 l -187 1014 q -203 1031 -203 1014 l -203 1082 q -187 1099 -203 1099 l -143 1099 q -128 1082 -128 1099 z "},"ः":{"ha":343,"x_min":135,"x_max":210,"o":"m 210 586 l 210 535 q 193 517 210 517 l 151 517 q 135 535 135 517 l 135 586 q 151 604 135 604 l 193 604 q 210 586 210 604 m 210 169 l 210 118 q 193 100 210 100 l 151 100 q 135 118 135 100 l 135 169 q 151 188 135 188 l 193 188 q 210 169 210 188 z "},"अ":{"ha":831,"x_min":50,"x_max":850,"o":"m 667 865 l 833 865 q 850 850 850 865 l 850 824 q 833 807 850 807 l 717 807 q 703 794 703 807 l 703 17 q 688 0 703 0 l 651 0 q 636 17 636 0 l 636 332 q 622 344 636 344 l 436 344 q 439 311 439 322 l 439 253 q 386 108 439 161 q 242 54 333 54 l 67 54 q 50 69 50 54 l 50 100 q 67 115 50 115 l 239 115 q 338 151 304 115 q 372 253 372 186 l 372 306 q 239 439 372 439 l 151 439 q 135 456 135 439 l 135 485 q 151 500 135 500 l 239 500 q 372 635 372 500 l 372 669 q 338 772 372 736 q 239 807 304 807 l 115 807 q 99 824 99 807 l 99 850 q 115 865 99 865 l 243 865 q 388 814 336 865 q 439 669 439 763 l 439 632 q 346 474 439 510 l 346 468 q 418 404 394 450 l 622 404 q 636 417 636 404 l 636 832 q 644 856 636 846 q 667 865 653 865 z "},"आ":{"ha":1150,"x_min":47,"x_max":1169,"o":"m 664 865 l 1153 865 q 1169 850 1169 865 l 1169 824 q 1153 807 1169 807 l 1036 807 q 1022 794 1022 807 l 1022 17 q 1007 0 1022 0 l 971 0 q 956 17 956 0 l 956 794 q 942 807 956 807 l 714 807 q 700 794 700 807 l 700 17 q 685 0 700 0 l 649 0 q 633 17 633 0 l 633 332 q 619 344 633 344 l 433 344 q 436 311 436 322 l 436 253 q 383 108 436 161 q 239 54 331 54 l 64 54 q 47 69 47 54 l 47 100 q 64 115 47 115 l 236 115 q 335 151 301 115 q 369 253 369 186 l 369 306 q 236 439 369 439 l 149 439 q 132 456 132 439 l 132 485 q 149 500 132 500 l 236 500 q 369 635 369 500 l 369 669 q 335 772 369 736 q 236 807 301 807 l 113 807 q 96 824 96 807 l 96 850 q 113 865 96 865 l 240 865 q 385 814 333 865 q 436 669 436 763 l 436 632 q 343 474 436 510 l 343 468 q 415 404 392 450 l 619 404 q 633 417 633 404 l 633 832 q 642 856 633 846 q 664 865 650 865 z "},"इ":{"ha":664,"x_min":-19,"x_max":683,"o":"m 397 328 l 275 328 q 100 481 100 328 l 100 503 q 275 654 100 654 l 456 654 q 469 667 469 654 l 469 794 q 456 807 469 807 l -3 807 q -19 824 -19 807 l -19 850 q -3 865 -19 865 l 667 865 q 683 850 683 865 l 683 824 q 667 807 683 807 l 550 807 q 536 794 536 807 l 536 629 q 526 603 536 613 q 501 593 517 593 l 278 593 q 192 572 217 593 q 167 499 167 550 l 167 481 q 192 408 167 429 q 278 388 218 388 l 403 388 q 576 239 576 388 l 576 174 q 403 19 576 19 l 283 19 q 167 68 197 19 l 161 68 l 161 -44 q 144 -60 161 -60 l 113 -60 q 96 -44 96 -60 l 96 219 q 113 236 96 236 l 144 236 q 161 219 161 236 l 161 190 q 276 81 161 81 l 397 81 q 484 102 458 81 q 510 176 510 124 l 510 235 q 484 307 510 286 q 397 328 458 328 z "},"ई":{"ha":664,"x_min":-19,"x_max":683,"o":"m 415 1015 l 415 933 q 431 878 415 892 q 496 865 446 865 l 667 865 q 683 850 683 865 l 683 824 q 667 807 683 807 l 550 807 q 536 796 536 807 l 536 629 q 526 603 536 613 q 501 593 517 593 l 278 593 q 192 572 217 593 q 167 499 167 550 l 167 481 q 192 408 167 429 q 278 388 218 388 l 403 388 q 576 239 576 388 l 576 174 q 403 19 576 19 l 283 19 q 167 68 197 19 l 161 68 l 161 -44 q 144 -60 161 -60 l 113 -60 q 96 -44 96 -60 l 96 219 q 113 236 96 236 l 144 236 q 161 219 161 236 l 161 190 q 276 81 161 81 l 397 81 q 484 102 458 81 q 510 176 510 124 l 510 235 q 484 307 510 286 q 397 328 458 328 l 275 328 q 100 481 100 328 l 100 503 q 275 654 100 654 l 456 654 q 469 667 469 654 l 469 796 q 456 807 469 807 l -3 807 q -19 824 -19 807 l -19 850 q -3 865 -19 865 l 376 865 l 376 871 q 347 943 347 886 l 347 1017 q 399 1159 347 1111 q 535 1207 450 1207 l 614 1207 q 631 1192 631 1207 l 631 1161 q 614 1146 631 1146 l 536 1146 q 415 1015 415 1146 z "},"उ":{"ha":654,"x_min":-19,"x_max":674,"o":"m 560 290 l 560 200 q 506 54 560 108 q 361 0 453 0 l 265 0 q 120 53 174 0 q 67 200 67 107 l 67 285 q 83 303 67 303 l 118 303 q 133 285 133 303 l 133 201 q 169 98 133 135 q 269 61 204 61 l 358 61 q 458 98 424 61 q 493 203 493 135 l 493 281 q 358 418 493 418 l 275 418 q 258 433 258 418 l 258 463 q 275 479 258 479 l 353 479 q 486 613 486 479 l 486 671 q 453 771 486 735 q 358 807 419 807 l -3 807 q -19 824 -19 807 l -19 850 q -3 865 -19 865 l 657 865 q 674 850 674 865 l 674 824 q 657 807 674 807 l 489 807 l 489 801 q 553 669 553 769 l 553 608 q 468 453 553 489 l 468 447 q 560 290 560 404 z "},"ऊ":{"ha":918,"x_min":-19,"x_max":938,"o":"m -3 865 l 921 865 q 938 850 938 865 l 938 824 q 921 807 938 807 l 489 807 l 489 801 q 553 669 553 769 l 553 608 q 468 453 553 489 l 468 447 l 471 446 l 688 446 q 822 398 772 446 q 872 263 872 350 l 872 196 q 822 60 872 108 q 688 13 772 13 l 658 13 q 642 29 642 13 l 642 58 q 658 74 642 74 l 678 74 q 807 206 807 74 l 807 254 q 678 386 807 386 l 536 386 q 560 290 560 346 l 560 201 q 506 55 560 110 q 361 0 453 0 l 265 0 q 120 53 174 0 q 67 200 67 107 l 67 285 q 83 303 67 303 l 118 303 q 133 285 133 303 l 133 201 q 169 98 133 135 q 269 61 204 61 l 358 61 q 458 98 424 61 q 493 204 493 135 l 493 281 q 358 418 493 418 l 275 418 q 258 433 258 418 l 258 463 q 275 479 258 479 l 353 479 q 486 613 486 479 l 486 671 q 453 771 486 735 q 358 807 419 807 l -3 807 q -19 824 -19 807 l -19 850 q -3 865 -19 865 z "},"ऋ":{"ha":1046,"x_min":-19,"x_max":1065,"o":"m -3 865 l 1049 865 q 1065 850 1065 865 l 1065 824 q 1049 807 1065 807 l 571 807 q 557 794 557 807 l 557 382 l 810 578 q 858 597 835 597 l 925 597 q 940 581 940 597 l 940 314 q 914 292 940 292 l 872 292 q 786 269 813 292 q 760 196 760 247 l 760 154 q 786 81 760 103 q 874 60 813 60 l 940 60 q 960 43 960 60 l 960 17 q 939 0 960 0 l 869 0 q 693 150 693 0 l 693 199 q 863 347 693 343 q 876 360 876 347 l 876 550 l 557 303 l 557 17 q 542 0 557 0 l 506 0 q 490 17 490 0 l 490 247 l 190 15 q 157 0 175 0 l 115 0 q 101 12 101 0 q 124 40 101 24 l 378 238 l 489 321 l 489 414 q 353 538 489 538 l 290 538 q 156 415 156 538 l 156 336 q 140 318 156 318 l 104 318 q 89 336 89 318 l 89 418 q 141 553 89 507 q 286 599 193 599 l 346 599 q 485 542 446 599 l 490 542 l 490 794 q 476 807 490 807 l -3 807 q -19 824 -19 807 l -19 850 q -3 865 -19 865 z "},"ऌ":{"ha":939,"x_min":-19,"x_max":961,"o":"m 914 -165 q 928 -158 921 -158 q 949 -175 936 -158 q 961 -198 961 -192 q 949 -217 961 -204 q 760 -285 881 -285 q 564 -106 564 -285 q 606 29 564 -14 q 736 72 649 72 l 744 72 l 744 418 q 713 522 744 490 q 617 553 682 553 q 520 522 551 553 q 489 418 489 492 l 489 297 q 472 281 489 281 l 439 281 q 422 297 422 281 l 422 421 q 390 522 422 492 q 294 553 358 553 q 197 521 229 553 q 165 417 165 489 l 165 250 q 199 146 165 178 q 301 114 233 114 l 368 114 q 385 97 385 114 l 385 68 q 368 53 385 53 l 296 53 q 151 101 203 53 q 99 247 99 150 l 99 419 q 150 567 99 518 q 292 615 201 615 q 453 522 421 615 l 458 522 q 613 615 488 615 q 739 557 707 615 l 744 557 l 744 794 q 732 807 744 807 l -3 807 q -19 824 -19 807 l -19 850 q -3 865 -19 865 l 942 865 q 960 850 960 865 l 960 824 q 942 807 960 807 l 825 807 q 813 794 813 807 l 813 29 q 794 13 813 13 l 738 13 q 653 -15 676 13 q 629 -107 629 -43 q 661 -198 629 -171 q 769 -225 693 -225 q 914 -165 844 -225 z "},"ऍ":{"ha":724,"x_min":-19,"x_max":750,"o":"m -3 865 l 733 865 q 750 850 750 865 l 750 824 q 733 807 750 807 l 647 807 q 633 794 633 807 l 633 588 q 583 443 633 490 q 447 396 533 396 l 388 396 q 371 413 371 396 l 371 442 q 388 457 371 457 l 443 457 q 567 588 567 457 l 567 794 q 554 807 567 807 l 207 807 q 193 794 193 807 l 193 251 q 231 144 193 182 q 340 106 269 106 l 579 106 q 596 89 596 106 l 596 60 q 579 43 596 43 l 332 43 q 183 100 238 43 q 128 250 128 157 l 128 794 q 114 807 128 807 l -3 807 q -19 824 -19 807 l -19 850 q -3 865 -19 865 m 429 1007 l 332 1007 q 165 1176 165 1007 l 165 1186 q 182 1206 165 1206 l 213 1206 q 229 1186 229 1206 l 229 1178 q 253 1091 229 1117 q 338 1065 278 1065 l 424 1065 q 508 1091 483 1065 q 532 1178 532 1117 l 532 1186 q 549 1206 532 1206 l 578 1206 q 596 1186 596 1206 l 596 1176 q 429 1007 596 1007 z "},"ऎ":{"ha":725,"x_min":-19,"x_max":750,"o":"m 650 865 l 733 865 q 750 850 750 865 l 750 824 q 733 807 750 807 l 647 807 q 633 794 633 807 l 633 588 q 583 443 633 490 q 447 396 533 396 l 388 396 q 371 413 371 396 l 371 442 q 388 457 371 457 l 443 457 q 567 588 567 457 l 567 794 q 554 807 567 807 l 207 807 q 193 794 193 807 l 193 251 q 231 144 193 182 q 340 106 269 106 l 579 106 q 596 89 596 106 l 596 60 q 579 43 596 43 l 332 43 q 183 100 238 43 q 128 250 128 157 l 128 794 q 114 807 128 807 l -3 807 q -19 824 -19 807 l -19 850 q -3 865 -19 865 l 556 865 q 569 883 569 865 q 552 919 569 901 q 474 968 535 936 l 385 1014 q 301 1080 326 1043 q 276 1176 276 1117 l 276 1196 q 292 1211 276 1211 l 326 1211 q 342 1196 342 1211 l 342 1179 q 381 1089 342 1117 q 486 1032 393 1079 q 608 956 579 985 q 636 878 636 926 q 650 865 636 865 z "},"ए":{"ha":731,"x_min":-19,"x_max":750,"o":"m -3 865 l 733 865 q 750 850 750 865 l 750 824 q 733 807 750 807 l 647 807 q 633 794 633 807 l 633 588 q 583 443 633 490 q 447 396 533 396 l 388 396 q 371 413 371 396 l 371 442 q 388 457 371 457 l 443 457 q 567 588 567 457 l 567 794 q 554 807 567 807 l 207 807 q 193 794 193 807 l 193 251 q 231 144 193 182 q 340 106 269 106 l 579 106 q 596 89 596 106 l 596 60 q 579 43 596 43 l 332 43 q 183 100 238 43 q 128 250 128 157 l 128 794 q 114 807 128 807 l -3 807 q -19 824 -19 807 l -19 850 q -3 865 -19 865 z "},"ऐ":{"ha":731,"x_min":-19,"x_max":750,"o":"m 650 865 l 733 865 q 750 850 750 865 l 750 824 q 733 807 750 807 l 647 807 q 633 794 633 807 l 633 588 q 583 443 633 490 q 447 396 533 396 l 388 396 q 371 413 371 396 l 371 442 q 388 457 371 457 l 443 457 q 567 588 567 457 l 567 794 q 554 807 567 807 l 207 807 q 193 794 193 807 l 193 251 q 231 144 193 182 q 340 106 269 106 l 579 106 q 596 89 596 106 l 596 60 q 579 43 596 43 l 332 43 q 183 100 238 43 q 128 250 128 157 l 128 794 q 114 807 128 807 l -3 807 q -19 824 -19 807 l -19 850 q -3 865 -19 865 l 572 865 q 424 1061 497 956 l 339 1186 q 335 1199 335 1192 q 349 1211 335 1211 l 386 1211 q 411 1197 401 1211 l 617 885 q 650 865 629 865 z "},"ऑ":{"ha":1151,"x_min":50,"x_max":1172,"o":"m 667 865 l 1154 865 q 1172 850 1172 865 l 1172 824 q 1154 807 1172 807 l 1038 807 q 1025 794 1025 807 l 1025 17 q 1008 0 1025 0 l 974 0 q 958 17 958 0 l 958 794 q 944 807 958 807 l 717 807 q 703 794 703 807 l 703 17 q 688 0 703 0 l 651 0 q 636 17 636 0 l 636 332 q 622 344 636 344 l 436 344 q 439 311 439 322 l 439 253 q 386 108 439 161 q 242 54 333 54 l 67 54 q 50 69 50 54 l 50 100 q 67 115 50 115 l 239 115 q 338 151 304 115 q 372 253 372 186 l 372 306 q 239 439 372 439 l 151 439 q 135 456 135 439 l 135 485 q 151 500 135 500 l 239 500 q 372 635 372 500 l 372 669 q 338 772 372 736 q 239 807 304 807 l 115 807 q 99 824 99 807 l 99 850 q 115 865 99 865 l 243 865 q 388 814 336 865 q 439 669 439 763 l 439 632 q 346 474 439 510 l 346 468 q 418 404 394 450 l 622 404 q 636 417 636 404 l 636 832 q 644 856 636 846 q 667 865 653 865 m 886 954 l 789 954 q 622 1124 622 954 l 622 1133 q 640 1153 622 1153 l 669 1153 q 686 1133 686 1153 l 686 1125 q 710 1038 686 1064 q 794 1013 735 1013 l 881 1013 q 965 1038 940 1013 q 989 1125 989 1064 l 989 1133 q 1007 1153 989 1153 l 1035 1153 q 1053 1133 1053 1153 l 1053 1125 q 886 954 1053 954 z "},"ऒ":{"ha":1150,"x_min":50,"x_max":1169,"o":"m 1039 865 l 1153 865 q 1169 850 1169 865 l 1169 824 q 1153 807 1169 807 l 1036 807 q 1022 794 1022 807 l 1022 17 q 1007 0 1022 0 l 971 0 q 956 17 956 0 l 956 794 q 942 807 956 807 l 717 807 q 703 794 703 807 l 703 17 q 688 0 703 0 l 651 0 q 636 17 636 0 l 636 332 q 622 344 636 344 l 436 344 q 439 311 439 322 l 439 253 q 386 108 439 161 q 242 54 333 54 l 67 54 q 50 69 50 54 l 50 100 q 67 115 50 115 l 239 115 q 338 151 304 115 q 372 253 372 186 l 372 306 q 239 439 372 439 l 151 439 q 135 456 135 439 l 135 485 q 151 500 135 500 l 239 500 q 372 635 372 500 l 372 669 q 338 772 372 736 q 239 807 304 807 l 115 807 q 99 824 99 807 l 99 850 q 115 865 99 865 l 243 865 q 388 814 336 865 q 439 669 439 763 l 439 632 q 346 474 439 510 l 346 468 q 418 404 394 450 l 622 404 q 636 417 636 404 l 636 832 q 644 856 636 846 q 667 865 653 865 l 944 865 q 958 883 958 865 q 941 919 958 901 q 863 968 924 936 l 774 1014 q 690 1080 715 1043 q 665 1176 665 1117 l 665 1196 q 681 1211 665 1211 l 715 1211 q 731 1196 731 1211 l 731 1179 q 769 1089 731 1117 q 875 1032 782 1079 q 997 956 968 985 q 1025 878 1025 926 q 1039 865 1025 865 z "},"ओ":{"ha":1151,"x_min":50,"x_max":1172,"o":"m 1043 865 l 1154 865 q 1172 850 1172 865 l 1172 824 q 1154 807 1172 807 l 1038 807 q 1025 794 1025 807 l 1025 17 q 1008 0 1025 0 l 974 0 q 958 17 958 0 l 958 794 q 944 807 958 807 l 717 807 q 703 794 703 807 l 703 17 q 688 0 703 0 l 651 0 q 636 17 636 0 l 636 332 q 622 344 636 344 l 436 344 q 439 311 439 322 l 439 253 q 386 108 439 161 q 242 54 333 54 l 67 54 q 50 69 50 54 l 50 100 q 67 115 50 115 l 239 115 q 338 151 304 115 q 372 253 372 186 l 372 306 q 239 439 372 439 l 151 439 q 135 456 135 439 l 135 485 q 151 500 135 500 l 239 500 q 372 635 372 500 l 372 669 q 338 772 372 736 q 239 807 304 807 l 115 807 q 99 824 99 807 l 99 850 q 115 865 99 865 l 243 865 q 388 814 336 865 q 439 669 439 763 l 439 632 q 346 474 439 510 l 346 468 q 418 404 394 450 l 622 404 q 636 417 636 404 l 636 832 q 644 856 636 846 q 667 865 653 865 l 958 865 l 958 871 q 814 1061 893 944 l 728 1186 q 724 1199 724 1192 q 738 1211 724 1211 l 779 1211 q 804 1197 794 1211 l 1010 885 q 1043 865 1022 865 z "},"औ":{"ha":1151,"x_min":50,"x_max":1172,"o":"m 1035 865 l 1154 865 q 1172 850 1172 865 l 1172 824 q 1154 807 1172 807 l 1038 807 q 1025 794 1025 807 l 1025 17 q 1008 0 1025 0 l 974 0 q 958 17 958 0 l 958 794 q 944 807 958 807 l 717 807 q 703 794 703 807 l 703 17 q 688 0 703 0 l 651 0 q 636 17 636 0 l 636 332 q 622 344 636 344 l 436 344 q 439 311 439 322 l 439 253 q 386 108 439 161 q 242 54 333 54 l 67 54 q 50 69 50 54 l 50 100 q 67 115 50 115 l 239 115 q 338 151 304 115 q 372 253 372 186 l 372 306 q 239 439 372 439 l 151 439 q 135 456 135 439 l 135 485 q 151 500 135 500 l 239 500 q 372 635 372 500 l 372 669 q 338 772 372 736 q 239 807 304 807 l 115 807 q 99 824 99 807 l 99 850 q 115 865 99 865 l 243 865 q 388 814 336 865 q 439 669 439 763 l 439 632 q 346 474 439 510 l 346 468 q 418 404 394 450 l 622 404 q 636 417 636 404 l 636 832 q 644 856 636 846 q 667 865 653 865 l 956 865 l 956 871 q 801 1061 904 913 l 717 1186 q 713 1199 713 1192 q 728 1211 713 1211 l 761 1211 q 789 1196 781 1211 l 981 899 l 985 900 q 960 1122 960 957 l 960 1196 q 975 1211 960 1211 l 1008 1211 q 1025 1196 1025 1211 l 1025 878 q 1035 865 1025 865 z "},"क":{"ha":1007,"x_min":-19,"x_max":1028,"o":"m 536 794 l 536 603 l 542 603 q 678 668 572 668 l 725 668 q 869 616 817 668 q 922 472 922 564 l 922 325 q 869 181 922 233 q 725 129 817 129 l 657 129 q 640 146 640 129 l 640 175 q 657 190 640 190 l 721 190 q 821 226 786 190 q 856 328 856 261 l 856 469 q 820 572 856 536 q 719 607 785 607 l 669 607 q 571 574 606 607 q 536 478 536 540 l 536 17 q 521 0 536 0 l 486 0 q 471 17 471 0 l 471 194 l 465 194 q 331 129 431 129 l 282 129 q 138 181 190 129 q 85 325 85 233 l 85 472 q 139 616 86 564 q 282 668 192 668 l 351 668 q 368 653 368 668 l 368 622 q 351 607 368 607 l 288 607 q 187 572 222 607 q 151 469 151 536 l 151 328 q 187 226 151 261 q 289 190 222 190 l 338 190 q 436 224 401 190 q 471 319 471 258 l 471 794 q 457 807 471 807 l -3 807 q -19 824 -19 807 l -19 850 q -3 865 -19 865 l 1011 865 q 1028 850 1028 865 l 1028 824 q 1011 807 1028 807 l 550 807 q 536 794 536 807 z "},"ख":{"ha":967,"x_min":-19,"x_max":986,"o":"m 774 258 l 768 258 q 636 193 729 194 l 626 193 q 491 244 539 193 q 443 385 443 296 l 443 444 q 492 584 443 533 q 631 635 542 635 l 656 635 q 672 618 672 635 l 672 589 q 656 574 672 574 l 633 574 q 510 439 510 574 l 510 389 q 635 253 510 253 l 642 253 q 774 390 774 253 l 774 794 q 760 807 774 807 l 368 807 q 356 794 356 807 l 356 576 q 310 440 356 485 q 185 394 264 394 l 128 394 l 375 29 q 382 14 382 19 q 367 0 382 0 l 329 0 q 307 15 317 0 l 74 360 l 47 393 l 47 438 q 65 456 47 456 l 176 456 q 289 578 289 456 l 289 794 q 276 807 289 807 l -3 807 q -19 824 -19 807 l -19 850 q -3 865 -19 865 l 969 865 q 986 850 986 865 l 986 824 q 969 807 986 807 l 853 807 q 839 794 839 807 l 839 17 q 824 0 839 0 l 789 0 q 774 17 774 0 l 774 258 z "},"ग":{"ha":686,"x_min":-19,"x_max":706,"o":"m -3 865 l 689 865 q 706 850 706 865 l 706 824 q 689 807 706 807 l 572 807 q 558 794 558 807 l 558 17 q 543 0 558 0 l 507 0 q 492 17 492 0 l 492 794 q 479 807 492 807 l 265 807 q 253 794 253 807 l 253 497 q 203 351 253 399 q 67 304 154 304 l 43 304 q 26 319 26 304 l 26 350 q 43 367 26 367 l 63 367 q 185 499 185 367 l 185 794 q 172 807 185 807 l -3 807 q -19 824 -19 807 l -19 850 q -3 865 -19 865 z "},"घ":{"ha":776,"x_min":-19,"x_max":796,"o":"m 100 640 l 100 686 q 150 801 100 775 l 150 807 l -3 807 q -19 824 -19 807 l -19 850 q -3 865 -19 865 l 779 865 q 796 850 796 865 l 796 824 q 779 807 796 807 l 663 807 q 650 794 650 807 l 650 17 q 633 0 650 0 l 599 0 q 582 17 582 0 l 582 181 l 576 181 q 442 113 544 113 l 289 113 q 150 159 200 113 q 100 294 100 206 l 100 351 q 188 496 100 465 l 188 501 q 100 640 100 532 m 569 807 l 274 807 q 167 689 167 807 l 167 644 q 281 529 167 529 l 367 529 q 383 513 383 529 l 383 483 q 367 468 383 468 l 281 468 q 167 351 167 468 l 167 299 q 294 174 167 174 l 439 174 q 546 213 510 174 q 582 319 582 251 l 582 794 q 569 807 582 807 z "},"ङ":{"ha":701,"x_min":-19,"x_max":721,"o":"m 656 492 l 656 446 q 640 429 656 429 l 599 429 q 583 446 583 429 l 583 492 q 599 508 583 508 l 640 508 q 656 492 656 508 m -3 865 l 704 865 q 721 850 721 865 l 721 824 q 704 807 721 807 l 546 807 q 532 794 532 807 l 532 618 q 522 592 532 601 q 497 582 513 582 l 282 582 q 196 561 221 582 q 171 488 171 540 l 171 469 q 196 396 171 417 q 282 375 221 375 l 399 375 q 574 226 574 375 l 574 154 q 399 0 574 0 l 269 0 q 140 40 183 0 q 97 169 97 79 l 97 181 q 114 200 97 200 l 147 200 q 163 181 163 200 l 163 169 q 187 83 163 106 q 272 60 211 60 l 393 60 q 480 82 454 60 q 506 158 506 104 l 506 221 q 480 295 506 274 q 393 317 454 317 l 279 317 q 104 467 104 317 l 104 492 q 279 643 104 643 l 453 643 q 467 656 467 643 l 467 794 q 454 807 467 807 l -3 807 q -19 824 -19 807 l -19 850 q -3 865 -19 865 z "},"च":{"ha":782,"x_min":-19,"x_max":803,"o":"m 210 542 l 47 542 q 31 557 31 542 l 31 588 q 47 603 31 603 l 431 603 q 449 588 449 603 l 449 557 q 431 542 449 542 l 342 542 q 247 506 279 542 q 214 404 214 471 l 214 343 q 249 242 214 278 q 349 207 283 207 l 450 207 q 551 242 515 207 q 588 343 588 278 l 588 794 q 575 807 588 807 l -3 807 q -19 824 -19 807 l -19 850 q -3 865 -19 865 l 785 865 q 803 850 803 865 l 803 824 q 785 807 803 807 l 668 807 q 656 794 656 807 l 656 17 q 639 0 656 0 l 603 0 q 588 17 588 0 l 588 213 l 582 213 q 444 146 549 146 l 343 146 q 200 197 253 146 q 147 340 147 249 l 147 403 q 210 536 147 500 l 210 542 z "},"छ":{"ha":807,"x_min":-19,"x_max":826,"o":"m -3 865 l 810 865 q 826 850 826 865 l 826 824 q 810 807 826 808 l 683 807 q 668 796 668 807 l 668 626 q 649 569 668 589 q 706 429 706 528 l 706 253 q 654 113 706 167 q 514 60 603 60 l 292 60 q 154 106 203 60 q 106 240 106 151 l 106 306 q 193 450 106 422 l 193 456 q 106 593 106 485 l 106 685 q 157 801 106 774 l 157 807 l -3 807 q -19 824 -19 808 l -19 850 q -3 865 -19 865 m 478 601 l 532 601 q 596 594 565 601 q 601 624 601 606 l 601 794 q 588 807 601 807 l 285 807 q 200 777 226 807 q 174 685 174 747 l 174 599 q 288 483 174 483 l 344 483 q 361 468 361 483 l 361 438 q 344 422 361 422 l 290 422 q 174 304 174 422 l 174 246 q 202 150 174 179 q 296 121 231 121 l 506 121 q 640 260 640 121 l 640 428 q 614 516 640 488 q 529 544 588 544 l 478 544 q 460 560 460 544 l 460 586 q 478 601 460 601 z "},"ज":{"ha":760,"x_min":-19,"x_max":779,"o":"m 329 521 l 329 515 q 386 392 386 485 l 386 286 q 338 144 386 192 q 207 97 290 97 l 58 97 q 42 113 42 97 l 42 142 q 58 158 42 158 l 197 158 q 319 290 319 158 l 319 390 q 196 521 319 521 l 115 521 q 99 536 99 521 l 99 568 q 115 583 99 583 l 551 583 q 565 596 565 583 l 565 794 q 553 807 565 807 l -3 807 q -19 824 -19 807 l -19 850 q -3 865 -19 865 l 763 865 q 779 850 779 865 l 779 824 q 763 807 779 807 l 646 807 q 632 794 632 807 l 632 17 q 617 0 632 0 l 581 0 q 565 17 565 0 l 565 508 q 551 521 565 521 l 329 521 z "},"झ":{"ha":922,"x_min":-19,"x_max":942,"o":"m 715 807 l 501 807 q 488 794 488 807 l 488 651 q 453 615 488 615 l 281 615 q 194 594 219 615 q 168 521 168 574 l 168 503 q 194 431 168 451 q 281 410 221 410 l 714 410 q 728 424 728 410 l 728 794 q 715 807 728 807 m 408 807 l -3 807 q -19 824 -19 807 l -19 850 q -3 865 -19 865 l 925 865 q 942 850 942 865 l 942 824 q 925 807 942 807 l 808 807 q 794 794 794 807 l 794 17 q 779 0 794 0 l 743 0 q 728 17 728 0 l 728 338 q 714 350 728 350 l 496 350 q 529 261 529 325 l 529 208 q 354 54 529 54 l 282 54 q 165 101 194 54 l 160 101 l 160 -18 q 143 -35 160 -35 l 111 -35 q 94 -18 94 -35 l 94 258 q 111 275 94 275 l 143 275 q 160 258 160 275 l 160 224 q 275 114 160 114 l 350 114 q 437 136 411 114 q 463 211 463 158 l 463 256 q 439 328 463 307 q 361 350 415 350 l 278 350 q 101 503 101 350 l 101 525 q 278 676 101 676 l 408 676 q 421 689 421 676 l 421 794 q 408 807 421 807 z "},"ञ":{"ha":822,"x_min":-19,"x_max":842,"o":"m 615 364 l 418 364 q 404 351 404 364 l 403 303 q 351 170 400 214 q 218 126 301 126 l 78 126 q 61 142 61 126 l 61 172 q 78 188 61 188 l 217 188 q 342 319 342 188 l 342 458 q 218 590 342 590 l 100 590 q 82 606 82 590 l 82 636 q 100 651 82 651 l 218 651 q 351 608 301 651 q 403 474 400 564 q 404 438 403 439 q 418 425 404 425 l 615 425 q 628 439 628 425 l 628 794 q 615 807 628 807 l -3 807 q -19 824 -19 807 l -19 850 q -3 865 -19 865 l 825 865 q 842 850 842 865 l 842 824 q 825 807 842 807 l 708 807 q 696 794 696 807 l 696 17 q 679 0 696 0 l 644 0 q 628 17 628 0 l 628 351 q 615 364 628 364 z "},"ट":{"ha":674,"x_min":-19,"x_max":693,"o":"m 290 611 l 447 611 q 460 624 460 611 l 460 794 q 447 807 460 807 l -3 807 q -19 824 -19 807 l -19 850 q -3 865 -19 865 l 676 865 q 693 850 693 865 l 693 824 q 676 807 693 807 l 540 807 q 526 794 526 807 l 526 586 q 492 550 526 550 l 294 550 q 194 514 229 550 q 160 411 160 478 l 160 254 q 194 151 160 188 q 294 115 229 115 l 404 115 q 504 151 469 115 q 539 253 539 186 l 539 308 q 554 326 539 326 l 588 326 q 604 308 604 326 l 604 251 q 551 107 604 160 q 407 54 499 54 l 290 54 q 146 108 199 54 q 93 253 93 161 l 93 413 q 146 558 93 504 q 290 611 199 611 z "},"ठ":{"ha":711,"x_min":-19,"x_max":732,"o":"m 407 550 l 293 550 q 193 513 228 550 q 158 410 158 476 l 158 256 q 194 152 158 189 q 294 115 229 115 l 404 115 q 506 152 471 115 q 540 256 540 189 l 540 410 q 506 513 540 476 q 407 550 471 550 m 714 807 l 558 807 q 544 794 544 807 l 544 707 q 489 592 544 621 l 489 586 q 575 529 543 574 q 607 419 607 485 l 607 250 q 553 107 607 160 q 410 54 500 54 l 289 54 q 144 108 197 54 q 92 253 92 161 l 92 413 q 145 558 92 504 q 289 611 199 611 l 379 611 q 453 633 429 611 q 478 714 478 656 l 478 794 q 465 807 478 807 l -3 807 q -19 824 -19 807 l -19 850 q -3 865 -19 865 l 714 865 q 732 850 732 865 l 732 824 q 714 807 732 807 z "},"ड":{"ha":660,"x_min":-19,"x_max":681,"o":"m -3 865 l 663 865 q 681 850 681 865 l 681 824 q 663 807 681 807 l 546 807 q 532 794 532 807 l 532 618 q 522 592 532 601 q 497 582 513 582 l 282 582 q 196 561 221 582 q 171 488 171 540 l 171 464 q 196 390 171 411 q 282 369 221 369 l 396 369 q 574 221 574 369 l 574 154 q 526 39 574 78 q 397 0 479 0 l 271 0 q 97 169 97 0 l 97 181 q 114 200 97 200 l 147 200 q 163 181 163 200 l 163 169 q 190 83 163 107 q 275 60 217 60 l 392 60 q 506 158 506 60 l 506 215 q 478 290 506 268 q 390 311 451 311 l 279 311 q 104 461 104 311 l 104 492 q 279 643 104 643 l 453 643 q 467 656 467 643 l 467 794 q 454 807 467 807 l -3 807 q -19 824 -19 807 l -19 850 q -3 865 -19 865 z "},"ढ":{"ha":674,"x_min":-19,"x_max":694,"o":"m 426 54 l 292 54 q 148 108 200 54 q 96 253 96 161 l 96 419 q 148 565 96 513 q 290 618 200 618 l 456 618 q 468 631 468 618 l 468 794 q 456 807 468 807 l -3 807 q -19 824 -19 807 l -19 850 q -3 865 -19 865 l 676 865 q 694 850 694 865 l 694 824 q 676 807 694 807 l 549 807 q 535 794 535 807 l 535 592 q 503 558 535 558 l 294 558 q 195 522 229 558 q 161 418 161 485 l 161 251 q 195 149 161 185 q 296 114 229 114 l 426 114 q 517 144 489 114 q 544 238 544 174 l 544 258 q 529 335 544 313 q 468 357 514 357 q 407 335 422 357 q 392 260 392 314 l 392 239 q 376 222 392 222 l 350 222 q 331 240 331 222 l 331 261 q 362 376 331 339 q 467 414 393 414 q 574 376 542 414 q 607 257 607 338 l 607 235 q 426 54 607 54 z "},"ण":{"ha":946,"x_min":-19,"x_max":967,"o":"m 435 807 l 193 807 q 179 794 179 807 l 179 438 q 299 310 179 310 l 329 310 q 449 438 449 310 l 449 794 q 435 807 449 807 m 739 807 l 525 807 q 514 794 514 807 l 514 438 q 465 295 514 342 q 331 249 415 249 l 297 249 q 163 295 213 249 q 114 438 114 342 l 114 794 q 100 807 114 807 l -3 807 q -19 824 -19 807 l -19 850 q -3 865 -19 865 l 949 865 q 967 850 967 865 l 967 824 q 949 807 967 807 l 832 807 q 819 794 819 807 l 819 17 q 803 0 819 0 l 768 0 q 753 17 753 0 l 753 794 q 739 807 753 807 z "},"त":{"ha":689,"x_min":-19,"x_max":708,"o":"m 158 382 l 158 192 q 293 60 158 60 l 311 60 q 329 44 329 60 l 329 15 q 311 0 329 0 l 285 0 q 144 48 197 0 q 92 193 92 96 l 92 383 q 142 529 92 482 q 279 576 192 576 l 481 576 q 494 589 494 576 l 494 794 q 482 807 494 807 l -3 807 q -19 824 -19 807 l -19 850 q -3 865 -19 865 l 692 865 q 708 850 708 865 l 708 824 q 692 807 708 807 l 575 807 q 561 794 561 807 l 561 17 q 546 0 561 0 l 510 0 q 494 17 494 0 l 494 501 q 481 514 494 514 l 283 514 q 158 382 158 514 z "},"थ":{"ha":824,"x_min":85,"x_max":843,"o":"m 629 221 l 624 221 q 469 146 588 146 l 300 146 q 142 206 200 146 q 85 360 85 265 l 85 492 q 101 507 85 507 l 268 507 q 392 633 392 507 l 392 706 q 289 807 392 807 q 186 706 186 807 l 186 646 q 171 629 186 629 l 138 629 q 122 646 122 629 l 122 710 q 167 826 122 786 q 288 867 211 867 q 411 826 365 867 q 457 706 457 786 l 457 632 q 269 446 457 446 l 151 446 l 151 361 q 191 247 151 288 q 306 207 231 207 l 471 207 q 588 249 546 207 q 629 363 629 292 l 629 832 q 638 856 629 846 q 660 865 646 865 l 826 865 q 843 850 843 865 l 843 824 q 826 807 843 807 l 710 807 q 697 794 697 807 l 697 17 q 681 0 697 0 l 646 0 q 629 17 629 0 l 629 221 z "},"द":{"ha":679,"x_min":-19,"x_max":699,"o":"m 289 643 l 475 643 q 488 656 488 643 l 488 794 q 475 807 488 807 l -3 807 q -19 824 -19 807 l -19 850 q -3 865 -19 865 l 682 865 q 699 850 699 865 l 699 824 q 682 807 699 807 l 567 807 q 554 794 554 807 l 554 617 q 545 592 554 601 q 521 582 536 582 l 294 582 q 195 545 229 582 q 161 442 161 508 l 161 318 q 195 216 161 251 q 296 181 229 181 l 394 181 q 511 293 511 181 l 511 339 q 526 356 511 356 l 558 356 q 575 339 575 356 l 575 17 q 558 0 575 0 l 526 0 q 511 17 511 0 l 511 168 l 506 168 q 388 119 474 119 l 290 119 q 147 173 199 119 q 94 318 94 226 l 94 444 q 147 590 94 538 q 289 643 199 643 z "},"ध":{"ha":778,"x_min":-19,"x_max":797,"o":"m 306 807 l 275 807 q 193 778 218 807 q 168 689 168 749 l 168 640 q 282 525 168 525 l 368 525 q 385 510 385 525 l 385 479 q 368 464 385 464 l 282 464 q 168 347 168 464 l 168 289 q 199 193 168 224 q 296 163 231 163 l 440 163 q 547 201 511 163 q 583 308 583 240 l 583 794 q 569 807 583 807 l 460 807 q 443 824 443 807 l 443 850 q 460 865 443 865 l 781 865 q 797 850 797 865 l 797 824 q 781 807 797 807 l 664 807 q 650 794 650 807 l 650 17 q 635 0 650 0 l 599 0 q 583 17 583 0 l 583 169 l 578 169 q 443 101 546 101 l 290 101 q 151 149 201 101 q 101 285 101 196 l 101 349 q 189 492 101 464 l 189 497 q 101 638 101 528 l 101 686 q 151 801 101 775 l 151 807 l -3 807 q -19 824 -19 807 l -19 850 q -3 865 -19 865 l 306 865 q 322 850 322 865 l 322 824 q 306 807 322 807 z "},"न":{"ha":657,"x_min":-19,"x_max":676,"o":"m 450 807 l -3 807 q -19 824 -19 807 l -19 850 q -3 865 -19 865 l 660 865 q 676 850 676 865 l 676 824 q 660 807 676 807 l 543 807 q 529 794 529 807 l 529 17 q 514 0 529 0 l 478 0 q 463 17 463 0 l 463 447 q 449 461 463 461 l 211 461 q 129 381 129 461 q 138 322 129 351 q 147 285 147 292 q 133 271 147 271 l 106 271 q 83 286 89 271 q 63 391 63 333 q 97 485 63 449 q 197 521 132 521 l 449 521 q 463 533 463 521 l 463 794 q 450 807 463 807 z "},"ऩ":{"ha":657,"x_min":-19,"x_max":676,"o":"m 278 26 l 278 -21 q 263 -37 278 -37 l 221 -37 q 206 -21 206 -37 l 206 26 q 221 43 206 43 l 263 43 q 278 26 278 43 m 450 807 l -3 807 q -19 824 -19 807 l -19 850 q -3 865 -19 865 l 660 865 q 676 850 676 865 l 676 824 q 660 807 676 807 l 543 807 q 529 794 529 807 l 529 17 q 514 0 529 0 l 478 0 q 463 17 463 0 l 463 447 q 449 461 463 461 l 211 461 q 129 381 129 461 q 138 322 129 351 q 147 285 147 292 q 133 271 147 271 l 106 271 q 83 286 89 271 q 63 391 63 333 q 97 485 63 449 q 197 521 132 521 l 449 521 q 463 533 463 521 l 463 794 q 450 807 463 807 z "},"प":{"ha":699,"x_min":-19,"x_max":719,"o":"m 313 308 l 369 308 q 471 344 436 308 q 506 444 506 379 l 506 794 q 492 807 506 807 l 194 807 q 181 794 181 807 l 181 443 q 313 308 181 308 m -3 865 l 703 865 q 719 850 719 865 l 719 824 q 703 807 719 807 l 585 807 q 572 794 572 807 l 572 17 q 556 0 572 0 l 521 0 q 506 17 506 0 l 506 311 l 500 311 q 364 246 464 246 l 307 246 q 167 298 219 246 q 114 439 114 350 l 114 794 q 103 807 114 804 l -3 807 q -19 824 -19 807 l -19 850 q -3 865 -19 865 z "},"फ":{"ha":1026,"x_min":-19,"x_max":1046,"o":"m 556 478 l 556 17 q 539 0 556 0 l 506 0 q 489 17 489 0 l 489 319 l 483 319 q 347 256 450 256 l 307 256 q 167 307 219 256 q 114 447 114 358 l 114 794 q 103 807 114 804 l -3 807 q -19 824 -19 807 l -19 850 q -3 865 -19 865 l 1029 865 q 1046 850 1046 865 l 1046 824 q 1029 807 1046 807 l 568 807 q 556 794 556 807 l 556 603 l 561 603 q 696 668 589 668 l 744 668 q 888 616 835 668 q 940 472 940 564 l 940 325 q 888 181 940 233 q 744 129 835 129 l 675 129 q 658 146 658 129 l 658 175 q 675 190 658 190 l 739 190 q 839 226 804 190 q 874 328 874 261 l 874 469 q 838 572 874 536 q 738 607 803 607 l 688 607 q 590 574 624 607 q 556 478 556 540 m 313 317 l 353 317 q 453 351 418 317 q 489 447 489 385 l 489 794 q 476 807 489 807 l 194 807 q 181 794 181 807 l 181 453 q 313 317 181 317 z "},"ब":{"ha":682,"x_min":-19,"x_max":701,"o":"m -3 865 l 685 865 q 701 850 701 865 l 701 824 q 685 807 701 807 l 568 807 q 554 794 554 807 l 554 17 q 539 0 554 0 l 503 0 q 488 17 488 0 l 488 186 l 482 186 q 344 122 449 122 l 285 122 q 141 174 194 122 q 88 317 88 226 l 88 479 q 142 623 89 571 q 285 675 194 675 l 367 675 q 383 658 383 675 l 383 631 q 367 615 383 615 l 289 615 q 194 585 226 615 l 486 288 q 488 315 488 296 l 488 794 q 474 807 488 807 l -3 807 q -19 824 -19 807 l -19 850 q -3 865 -19 865 m 289 181 l 350 181 q 467 236 432 181 l 165 543 q 154 478 154 514 l 154 318 q 188 216 154 251 q 289 181 222 181 z "},"भ":{"ha":682,"x_min":-19,"x_max":701,"o":"m 475 408 l 192 408 q 178 396 178 408 l 178 258 q 163 242 178 242 l 126 242 q 111 258 111 242 l 111 700 q 8 807 111 807 l -3 807 q -19 824 -19 807 l -19 850 q -3 865 -19 865 l 8 865 q 133 823 89 865 q 178 701 178 781 l 178 482 q 190 468 178 468 l 475 468 q 488 481 488 468 l 488 794 q 475 807 488 807 l 365 807 q 346 824 346 807 l 346 850 q 365 865 346 865 l 685 865 q 701 850 701 865 l 701 824 q 685 807 701 807 l 568 807 q 554 794 554 807 l 554 17 q 539 0 554 0 l 504 0 q 488 17 488 0 l 488 396 q 475 408 488 408 z "},"म":{"ha":681,"x_min":-19,"x_max":700,"o":"m 486 481 l 486 794 q 474 807 486 807 l 190 807 q 176 794 176 807 l 176 482 q 189 468 176 468 l 472 468 q 486 481 486 468 m 472 408 l 190 408 q 176 396 176 408 l 176 258 q 161 242 176 242 l 125 242 q 110 258 110 242 l 110 794 q 96 807 110 807 l -3 807 q -19 824 -19 807 l -19 850 q -3 865 -19 865 l 683 865 q 700 850 700 865 l 700 824 q 683 807 700 807 l 567 807 q 553 794 553 807 l 553 17 q 538 0 553 0 l 501 0 q 486 17 486 0 l 486 396 q 472 408 486 408 z "},"य":{"ha":783,"x_min":-19,"x_max":803,"o":"m 575 807 l 318 807 l 318 801 q 368 683 368 772 l 368 663 q 189 488 368 488 l 161 488 l 161 361 q 201 245 161 286 q 318 204 242 204 l 429 204 q 547 246 506 204 q 589 360 589 288 l 589 794 q 575 807 589 807 m 301 671 l 301 688 q 274 779 301 751 q 182 807 247 807 l -3 807 q -19 824 -19 807 l -19 850 q -3 865 -19 865 l 786 865 q 803 850 803 865 l 803 824 q 786 807 803 807 l 669 807 q 656 794 656 807 l 656 17 q 640 0 656 0 l 604 0 q 589 17 589 0 l 589 218 l 583 218 q 429 144 547 144 l 314 144 q 153 205 213 144 q 94 361 94 265 l 94 532 q 111 547 94 547 l 182 547 q 274 574 246 547 q 301 671 301 601 z "},"र":{"ha":468,"x_min":-19,"x_max":489,"o":"m 289 578 l 289 794 q 276 807 289 807 l -3 807 q -19 824 -19 807 l -19 850 q -3 865 -19 865 l 471 865 q 489 850 489 865 l 489 824 q 471 807 489 807 l 369 807 q 356 794 356 807 l 356 576 q 310 440 356 486 q 185 394 264 394 l 128 394 l 374 25 q 378 14 378 21 q 363 0 378 0 l 326 0 q 306 14 313 0 l 74 360 l 47 393 l 47 438 q 65 456 47 456 l 176 456 q 289 578 289 456 z "},"ऱ":{"ha":482,"x_min":-19,"x_max":501,"o":"m 96 17 l 96 -29 q 82 -46 96 -46 l 39 -46 q 24 -29 24 -46 l 24 17 q 39 33 24 33 l 82 33 q 96 17 96 33 m 301 578 l 301 794 q 289 807 301 807 l -3 807 q -19 824 -19 807 l -19 850 q -3 865 -19 865 l 485 865 q 501 850 501 865 l 501 824 q 485 807 501 807 l 382 807 q 368 794 368 807 l 368 576 q 322 440 368 486 q 199 394 276 394 l 142 394 l 386 25 q 390 14 390 21 q 376 0 390 0 l 340 0 q 318 14 328 0 l 88 360 l 60 393 l 60 438 q 79 456 60 456 l 189 456 q 301 578 301 456 z "},"ल":{"ha":939,"x_min":-19,"x_max":958,"o":"m 613 615 q 739 557 707 615 l 744 557 l 744 794 q 732 807 744 807 l -3 807 q -19 824 -19 807 l -19 850 q -3 865 -19 865 l 942 865 q 958 850 958 865 l 958 824 q 942 807 958 807 l 825 807 q 813 794 813 807 l 813 17 q 796 0 813 0 l 761 0 q 744 17 744 0 l 744 418 q 713 522 744 490 q 617 553 682 553 q 519 522 551 553 q 488 418 488 492 l 488 297 q 472 281 488 281 l 439 281 q 422 297 422 281 l 422 421 q 390 522 422 492 q 294 553 358 553 q 197 521 229 553 q 165 417 165 489 l 165 250 q 199 146 165 178 q 301 114 233 114 l 367 114 q 385 97 385 114 l 385 68 q 367 53 385 53 l 296 53 q 151 101 203 53 q 99 247 99 150 l 99 419 q 150 567 99 518 q 292 615 201 615 q 451 522 421 615 l 457 522 q 613 615 489 615 z "},"ळ":{"ha":933,"x_min":-19,"x_max":954,"o":"m -3 865 l 936 865 q 954 850 954 865 l 954 824 q 936 807 954 807 l 681 807 q 668 794 668 807 l 668 625 q 679 611 668 614 q 835 422 835 585 l 835 247 q 783 106 835 156 q 639 56 731 56 l 628 56 q 464 139 508 56 q 300 56 419 56 l 289 56 q 145 106 197 56 q 93 247 93 156 l 93 422 q 145 565 93 515 q 289 615 197 615 l 300 615 q 464 531 419 615 q 592 613 501 597 q 604 625 604 614 l 604 794 q 590 807 604 807 l -3 807 q -19 824 -19 807 l -19 850 q -3 865 -19 865 m 431 249 l 431 422 q 300 554 431 554 l 290 554 q 158 422 158 554 l 158 249 q 290 117 158 117 l 300 117 q 431 249 431 117 m 769 249 l 769 422 q 638 554 769 554 l 628 554 q 497 422 497 554 l 497 249 q 628 117 497 117 l 638 117 q 769 249 769 117 z "},"ऴ":{"ha":933,"x_min":-19,"x_max":954,"o":"m -3 865 l 936 865 q 954 850 954 865 l 954 824 q 936 807 954 807 l 681 807 q 668 794 668 807 l 668 625 q 679 611 668 614 q 835 422 835 585 l 835 247 q 783 106 835 156 q 639 56 731 56 l 628 56 q 464 139 508 56 q 300 56 419 56 l 289 56 q 145 106 197 56 q 93 247 93 156 l 93 422 q 145 565 93 515 q 289 615 197 615 l 300 615 q 464 531 419 615 q 592 613 501 597 q 604 625 604 614 l 604 794 q 590 807 604 807 l -3 807 q -19 824 -19 807 l -19 850 q -3 865 -19 865 m 431 249 l 431 422 q 300 554 431 554 l 290 554 q 158 422 158 554 l 158 249 q 290 117 158 117 l 300 117 q 431 249 431 117 m 769 249 l 769 422 q 638 554 769 554 l 628 554 q 497 422 497 554 l 497 249 q 628 117 497 117 l 638 117 q 769 249 769 117 m 265 0 l 308 0 q 324 -17 324 0 l 324 -62 q 308 -79 324 -79 l 265 -79 q 250 -62 250 -79 l 250 -17 q 265 0 250 0 z "},"व":{"ha":672,"x_min":-19,"x_max":692,"o":"m 544 794 l 544 17 q 529 0 544 0 l 494 0 q 479 17 479 0 l 479 192 l 474 192 q 336 128 440 128 l 285 128 q 141 180 194 128 q 88 322 88 232 l 88 471 q 142 615 89 563 q 285 667 194 667 l 358 667 q 376 651 376 667 l 376 621 q 358 606 376 606 l 290 606 q 190 570 225 606 q 156 468 156 535 l 156 325 q 290 189 156 189 l 342 189 q 444 224 408 189 q 479 322 479 260 l 479 794 q 465 807 479 807 l -3 807 q -19 824 -19 807 l -19 850 q -3 865 -19 865 l 675 865 q 692 850 692 865 l 692 824 q 675 807 692 807 l 558 807 q 544 794 544 807 z "},"श":{"ha":853,"x_min":61,"x_max":872,"o":"m 658 17 l 658 832 q 667 856 658 846 q 689 865 675 865 l 856 865 q 872 850 872 865 l 872 824 q 856 807 872 807 l 739 807 q 725 794 725 807 l 725 17 q 710 0 725 0 l 674 0 q 658 17 658 0 m 389 13 q 374 0 389 0 l 335 0 q 314 14 324 0 l 89 342 l 61 375 l 61 419 q 81 436 61 436 l 275 436 q 399 568 399 436 l 399 692 q 372 780 399 753 q 284 807 346 807 q 196 781 222 807 q 169 692 169 754 l 169 621 q 154 604 169 604 l 119 604 q 103 621 103 604 l 103 692 q 284 865 103 865 q 465 692 465 865 l 465 568 q 415 424 465 472 q 276 376 365 376 l 142 376 l 383 25 q 389 13 389 17 z "},"ष":{"ha":701,"x_min":-19,"x_max":722,"o":"m 508 794 q 494 807 508 807 l 178 807 l 508 431 l 508 794 m 313 303 l 372 303 q 494 371 463 303 l 181 731 l 181 438 q 313 303 181 303 m -3 865 l 706 865 q 722 850 722 865 l 722 824 q 706 807 722 807 l 589 807 q 575 794 575 807 l 575 17 q 560 0 575 0 l 524 0 q 508 17 508 0 l 508 304 l 503 304 q 367 242 468 242 l 307 242 q 167 293 219 242 q 114 433 114 344 l 114 794 q 103 807 114 804 l -3 807 q -19 824 -19 807 l -19 850 q -3 865 -19 865 z "},"स":{"ha":799,"x_min":-19,"x_max":819,"o":"m 275 450 l 592 450 q 604 464 604 450 l 604 794 q 592 807 604 807 l 339 807 q 326 794 326 807 l 326 583 q 275 456 326 488 l 275 450 m 340 31 q 349 11 349 22 q 333 0 349 0 l 294 0 q 274 14 281 0 l 88 331 l 47 390 l 47 433 q 65 450 47 450 l 149 450 q 228 480 197 450 q 258 574 258 510 l 258 794 q 246 807 258 807 l -3 807 q -19 824 -19 807 l -19 850 q -3 865 -19 865 l 801 865 q 819 850 819 865 l 819 824 q 801 807 819 807 l 685 807 q 672 794 672 807 l 672 17 q 656 0 672 0 l 621 0 q 604 17 604 0 l 604 376 q 592 389 604 389 l 128 389 l 340 31 z "},"ह":{"ha":668,"x_min":-19,"x_max":688,"o":"m 465 807 l -3 807 q -19 824 -19 807 l -19 850 q -3 865 -19 865 l 671 865 q 688 850 688 865 l 688 824 q 671 807 688 807 l 558 807 q 544 794 544 807 l 544 631 q 510 594 544 594 l 293 594 q 204 569 232 594 q 176 486 176 544 q 203 403 176 428 q 292 378 231 378 l 397 378 q 568 208 568 378 l 568 169 q 551 154 568 154 l 518 154 q 503 169 503 154 l 503 201 q 476 292 503 264 q 390 319 450 319 l 294 319 q 201 283 233 319 q 169 181 169 246 l 169 140 q 313 1 169 1 l 535 1 q 551 -14 551 1 l 551 -42 q 535 -57 551 -57 l 308 -57 q 156 -5 210 -57 q 103 139 103 47 l 103 182 q 193 343 103 304 l 193 349 q 110 490 110 379 q 286 654 110 654 l 464 654 q 478 667 478 654 l 478 794 q 465 807 478 807 z "},"़":{"ha":0,"x_min":-222,"x_max":-149,"o":"m -149 -68 l -149 -114 q -164 -131 -149 -131 l -207 -131 q -222 -114 -222 -131 l -222 -68 q -207 -51 -222 -51 l -164 -51 q -149 -68 -149 -51 z "},"ऽ":{"ha":735,"x_min":122,"x_max":614,"o":"m 614 281 l 614 189 q 429 0 614 0 l 358 0 q 260 26 308 0 q 188 75 211 51 q 132 136 164 99 q 122 153 122 143 q 131 169 122 164 q 158 188 151 188 q 176 175 164 188 q 235 114 217 132 q 289 78 254 96 q 361 61 324 61 l 421 61 q 519 95 493 61 q 546 193 546 129 l 546 278 q 508 360 546 329 q 358 448 469 390 q 209 558 246 506 q 172 698 172 611 q 208 825 172 785 q 349 865 243 865 l 539 865 q 556 850 556 865 l 556 824 q 539 807 556 807 l 356 807 q 261 781 283 807 q 239 697 239 756 q 274 596 239 639 q 422 494 308 553 q 575 393 536 435 q 614 281 614 351 z "},"ा":{"ha":321,"x_min":-18,"x_max":342,"o":"m 179 0 l 143 0 q 128 17 128 0 l 128 794 q 114 807 128 807 l -1 807 q -18 824 -18 807 l -18 850 q -1 865 -18 865 l 325 865 q 342 850 342 865 l 342 824 q 325 807 342 807 l 208 807 q 194 794 194 807 l 194 17 q 179 0 194 0 z "},"ि":{"ha":321,"x_min":-18,"x_max":869,"o":"m 324 1217 l 674 1217 q 869 1033 869 1217 l 869 975 q 854 958 869 958 l 818 958 q 803 975 803 958 l 803 1032 q 772 1127 803 1099 q 674 1156 740 1156 l 324 1156 q 225 1127 256 1156 q 194 1032 194 1099 l 194 878 q 208 865 194 865 l 325 865 q 342 850 342 865 l 342 824 q 325 807 342 807 l 208 807 q 194 794 194 807 l 194 17 q 179 0 194 0 l 143 0 q 128 17 128 0 l 128 794 q 114 807 128 807 l -1 807 q -18 824 -18 807 l -18 850 q -1 865 -18 865 l 114 865 q 128 878 128 865 l 128 1040 q 324 1217 128 1217 z "},"ी":{"ha":321,"x_min":-197,"x_max":342,"o":"m 208 865 l 325 865 q 342 850 342 865 l 342 824 q 325 807 342 807 l 208 807 q 194 794 194 807 l 194 17 q 179 0 194 0 l 143 0 q 128 17 128 0 l 128 794 q 114 807 128 807 l -1 807 q -18 824 -18 807 l -18 850 q -1 865 -18 865 l 114 865 q 128 878 128 865 l 128 1032 q 97 1127 128 1099 q -1 1156 65 1156 q -99 1127 -68 1156 q -131 1032 -131 1099 l -131 975 q -146 958 -131 958 l -181 958 q -197 975 -197 958 l -197 1033 q -1 1217 -197 1217 q 194 1040 194 1217 l 194 878 q 208 865 194 865 z "},"ु":{"ha":0,"x_min":-483,"x_max":42,"o":"m -194 -25 l -194 1 q -178 18 -194 18 l -122 18 q 6 -24 -29 18 q 42 -155 42 -65 q 3 -291 42 -244 q -125 -337 -36 -337 l -211 -337 q -328 -305 -278 -337 q -400 -240 -379 -272 q -443 -167 -421 -208 q -467 -124 -465 -126 q -472 -116 -469 -121 q -478 -103 -474 -111 q -483 -88 -483 -96 q -475 -75 -483 -81 q -438 -60 -444 -60 q -424 -74 -432 -60 q -393 -131 -415 -87 q -360 -191 -371 -175 q -325 -233 -349 -207 q -207 -278 -286 -278 l -125 -278 q -36 -239 -56 -278 q -22 -165 -22 -207 q -24 -107 -22 -124 q -36 -72 -26 -90 q -122 -42 -54 -42 l -178 -42 q -194 -25 -194 -42 z "},"ू":{"ha":0,"x_min":-361,"x_max":144,"o":"m -206 -333 q -326 -290 -290 -333 q -361 -159 -361 -247 q -323 -25 -361 -71 q -194 21 -285 21 l -139 21 q -14 -15 -58 21 q 29 -52 11 -35 q 65 -102 47 -69 q 91 -154 82 -135 q 117 -213 100 -174 q 139 -265 133 -253 q 144 -283 144 -276 q 135 -296 144 -290 q 101 -308 104 -308 q 83 -290 92 -308 q 56 -227 75 -271 q 28 -163 38 -183 q 1 -114 19 -143 q -36 -72 -18 -85 q -140 -37 -81 -37 l -194 -37 q -275 -67 -253 -37 q -297 -158 -297 -96 q -280 -247 -297 -219 q -206 -275 -262 -275 l -149 -275 q -131 -292 -131 -275 l -131 -317 q -149 -333 -131 -333 l -206 -333 z "},"ृ":{"ha":0,"x_min":-376,"x_max":42,"o":"m -128 1 l -128 -25 q -144 -42 -128 -42 l -210 -42 q -292 -68 -271 -42 q -312 -158 -312 -94 q -287 -251 -312 -222 q -207 -279 -261 -279 l -156 -279 q -64 -249 -103 -279 q -46 -235 -51 -239 q -26 -218 -40 -231 q -5 -201 -11 -206 q 8 -196 1 -196 q 22 -203 15 -196 q 42 -235 42 -231 q 29 -251 42 -239 q -153 -339 -64 -339 l -210 -339 q -376 -158 -376 -339 q -337 -24 -376 -65 q -211 18 -299 18 l -144 18 q -128 1 -128 18 z "},"ॅ":{"ha":0,"x_min":-372,"x_max":58,"o":"m -108 954 l -206 954 q -372 1124 -372 954 l -372 1133 q -356 1153 -372 1153 l -325 1153 q -308 1133 -308 1153 l -308 1125 q -284 1038 -308 1064 q -200 1013 -260 1013 l -114 1013 q -30 1038 -54 1013 q -6 1125 -6 1064 l -6 1133 q 13 1153 -6 1153 l 40 1153 q 58 1133 58 1153 l 58 1125 q -108 954 58 954 z "},"ॆ":{"ha":0,"x_min":-487,"x_max":-104,"o":"m -208 865 q -194 883 -194 865 q -212 919 -194 901 q -290 968 -229 936 l -379 1014 q -462 1080 -437 1043 q -487 1176 -487 1117 l -487 1196 q -472 1211 -487 1211 l -437 1211 q -422 1196 -422 1211 l -422 1179 q -383 1089 -422 1117 q -278 1032 -371 1079 q -156 956 -185 985 q -128 878 -128 926 q -114 865 -128 865 l -104 865 l -104 836 l -219 836 l -219 865 l -208 865 z "}}}
